G04 Layer_Physical_Order=2*
G04 Layer_Color=16711680*
%FSLAX25Y25*%
%MOIN*%
G70*
G01*
G75*
%ADD10C,0.03000*%
%ADD12C,0.05000*%
%ADD13C,0.01000*%
%ADD15C,0.09842*%
%ADD16R,0.09842X0.09842*%
%ADD17O,0.07000X0.09000*%
%ADD18R,0.06693X0.06693*%
%ADD19C,0.06693*%
%ADD20C,0.05905*%
%ADD21C,0.07874*%
%ADD22R,0.07874X0.07874*%
%ADD23R,0.06693X0.06693*%
%ADD24O,0.09000X0.07000*%
%ADD25R,0.05905X0.05905*%
%ADD26C,0.08661*%
%ADD27C,0.06299*%
%ADD28C,0.07087*%
%ADD29R,0.07087X0.07087*%
%ADD30C,0.17716*%
%ADD31R,0.17716X0.17716*%
%ADD32R,0.07874X0.07874*%
%ADD33C,0.11811*%
%ADD34C,0.23000*%
G36*
X460000Y1793D02*
X459500Y0D01*
X458000Y0D01*
X-500D01*
Y377500D01*
X500Y378500D01*
X460000D01*
Y1793D01*
D02*
G37*
%LPC*%
G36*
X423144Y100925D02*
X421926Y97983D01*
X423144Y95042D01*
X426086Y97983D01*
X423144Y100925D01*
D02*
G37*
G36*
X213429Y113953D02*
X205524D01*
Y106047D01*
X208520D01*
X208918Y104047D01*
X208209Y103753D01*
X206451Y103025D01*
X205198Y100000D01*
X206451Y96975D01*
X209476Y95722D01*
X212502Y96975D01*
X213755Y100000D01*
X212502Y103025D01*
X210744Y103753D01*
X210034Y104047D01*
X210432Y106047D01*
X213429D01*
Y113953D01*
D02*
G37*
G36*
X282429D02*
X274524D01*
Y106047D01*
X277520D01*
X277918Y104047D01*
X277209Y103753D01*
X275451Y103025D01*
X274198Y100000D01*
X275451Y96975D01*
X278476Y95722D01*
X281502Y96975D01*
X282755Y100000D01*
X281502Y103025D01*
X279744Y103753D01*
X279034Y104047D01*
X279432Y106047D01*
X282429D01*
Y113953D01*
D02*
G37*
G36*
X36856Y100925D02*
X33914Y97983D01*
X36856Y95042D01*
X38074Y97983D01*
X36856Y100925D01*
D02*
G37*
G36*
X28144Y100925D02*
X26926Y97983D01*
X28144Y95042D01*
X31086Y97983D01*
X28144Y100925D01*
D02*
G37*
G36*
X431856Y100925D02*
X428914Y97983D01*
X431856Y95042D01*
X433074Y97983D01*
X431856Y100925D01*
D02*
G37*
G36*
X133217Y107992D02*
X130041Y106676D01*
X128725Y103500D01*
X130041Y100324D01*
X133217Y99009D01*
X136392Y100324D01*
X137708Y103500D01*
X136392Y106676D01*
X133217Y107992D01*
D02*
G37*
G36*
X326783D02*
X323607Y106676D01*
X322292Y103500D01*
X323607Y100324D01*
X326783Y99009D01*
X329959Y100324D01*
X331275Y103500D01*
X329959Y106676D01*
X326783Y107992D01*
D02*
G37*
G36*
X362217D02*
X359041Y106676D01*
X357725Y103500D01*
X359041Y100324D01*
X362217Y99009D01*
X365392Y100324D01*
X366708Y103500D01*
X365392Y106676D01*
X362217Y107992D01*
D02*
G37*
G36*
X181524Y114278D02*
X178498Y113025D01*
X177245Y110000D01*
X178498Y106975D01*
X180256Y106246D01*
X180965Y105953D01*
X180568Y103953D01*
X177571D01*
Y96047D01*
X185476D01*
Y103953D01*
X182480D01*
X182082Y105953D01*
X182791Y106246D01*
X184549Y106975D01*
X185802Y110000D01*
X184549Y113025D01*
X181524Y114278D01*
D02*
G37*
G36*
X250524D02*
X247498Y113025D01*
X246245Y110000D01*
X247498Y106975D01*
X249256Y106246D01*
X249966Y105953D01*
X249568Y103953D01*
X246571D01*
Y96047D01*
X254476D01*
Y103953D01*
X251480D01*
X251082Y105953D01*
X251791Y106246D01*
X253549Y106975D01*
X254802Y110000D01*
X253549Y113025D01*
X250524Y114278D01*
D02*
G37*
G36*
X97783Y107992D02*
X94608Y106676D01*
X93292Y103500D01*
X94608Y100324D01*
X97783Y99009D01*
X100959Y100324D01*
X102275Y103500D01*
X100959Y106676D01*
X97783Y107992D01*
D02*
G37*
G36*
X427500Y96569D02*
X424559Y93628D01*
X427500Y92410D01*
X430441Y93628D01*
X427500Y96569D01*
D02*
G37*
G36*
X270217Y92492D02*
X267041Y91176D01*
X265725Y88000D01*
X267041Y84824D01*
X270217Y83508D01*
X273393Y84824D01*
X274708Y88000D01*
X273393Y91176D01*
X270217Y92492D01*
D02*
G37*
G36*
X131139Y90941D02*
X128198Y88000D01*
X131139Y85059D01*
X132357Y88000D01*
X131139Y90941D01*
D02*
G37*
G36*
X328861Y90941D02*
X327643Y88000D01*
X328861Y85059D01*
X331802Y88000D01*
X328861Y90941D01*
D02*
G37*
G36*
X126783Y86586D02*
X123842Y83644D01*
X126783Y82426D01*
X129725Y83644D01*
X126783Y86586D01*
D02*
G37*
G36*
X333217D02*
X330275Y83644D01*
X333217Y82426D01*
X336158Y83644D01*
X333217Y86586D01*
D02*
G37*
G36*
X189783Y92492D02*
X186608Y91176D01*
X185292Y88000D01*
X186608Y84824D01*
X189783Y83508D01*
X192959Y84824D01*
X194275Y88000D01*
X192959Y91176D01*
X189783Y92492D01*
D02*
G37*
G36*
X333217Y93574D02*
X330275Y92356D01*
X333217Y89414D01*
X336158Y92356D01*
X333217Y93574D01*
D02*
G37*
G36*
X234783Y92492D02*
X231608Y91176D01*
X231082Y89908D01*
X228918D01*
X228393Y91176D01*
X225217Y92492D01*
X222041Y91176D01*
X220725Y88000D01*
X222041Y84824D01*
X225217Y83508D01*
X228393Y84824D01*
X228918Y86092D01*
X231082D01*
X231608Y84824D01*
X234783Y83508D01*
X237959Y84824D01*
X239275Y88000D01*
X237959Y91176D01*
X234783Y92492D01*
D02*
G37*
G36*
X32500Y96569D02*
X29559Y93628D01*
X32500Y92410D01*
X35441Y93628D01*
X32500Y96569D01*
D02*
G37*
G36*
X337572Y90941D02*
X334631Y88000D01*
X337572Y85059D01*
X338790Y88000D01*
X337572Y90941D01*
D02*
G37*
G36*
X122428Y90941D02*
X121210Y88000D01*
X122428Y85059D01*
X125369Y88000D01*
X122428Y90941D01*
D02*
G37*
G36*
X126783Y93574D02*
X123842Y92356D01*
X126783Y89414D01*
X129725Y92356D01*
X126783Y93574D01*
D02*
G37*
G36*
X90500Y122705D02*
X87173Y121327D01*
X86582Y119900D01*
X84418D01*
X83827Y121327D01*
X80500Y122705D01*
X77173Y121327D01*
X76582Y119900D01*
X74418D01*
X73827Y121327D01*
X70500Y122705D01*
X67173Y121327D01*
X66582Y119900D01*
X64418D01*
X63827Y121327D01*
X60500Y122705D01*
X57173Y121327D01*
X55795Y118000D01*
X57173Y114673D01*
X60500Y113295D01*
X63827Y114673D01*
X64418Y116100D01*
X66582D01*
X67173Y114673D01*
X70500Y113295D01*
X73827Y114673D01*
X74418Y116100D01*
X76582D01*
X77173Y114673D01*
X80500Y113295D01*
X83827Y114673D01*
X84418Y116100D01*
X86582D01*
X87173Y114673D01*
X90500Y113295D01*
X93827Y114673D01*
X95205Y118000D01*
X93827Y121327D01*
X90500Y122705D01*
D02*
G37*
G36*
X399500D02*
X396173Y121327D01*
X395582Y119900D01*
X393418D01*
X392827Y121327D01*
X389500Y122705D01*
X386173Y121327D01*
X386041Y121008D01*
X384041D01*
X384006Y121092D01*
X380914Y118000D01*
X384006Y114908D01*
X384041Y114992D01*
X386041D01*
X386173Y114673D01*
X389500Y113295D01*
X392827Y114673D01*
X393418Y116100D01*
X395582D01*
X396173Y114673D01*
X399500Y113295D01*
X402827Y114673D01*
X404205Y118000D01*
X402827Y121327D01*
X399500Y122705D01*
D02*
G37*
G36*
X299862Y125791D02*
X297072Y123000D01*
X299862Y120209D01*
X301018Y123000D01*
X299862Y125791D01*
D02*
G37*
G36*
X136217Y127491D02*
X133041Y126176D01*
X131725Y123000D01*
X133041Y119824D01*
X136217Y118509D01*
X139392Y119824D01*
X139543Y120189D01*
X141543Y120189D01*
X141632Y119975D01*
X144658Y118722D01*
X147683Y119975D01*
X148936Y123000D01*
X147683Y126025D01*
X144658Y127278D01*
X141632Y126025D01*
X141543Y125811D01*
X139543Y125811D01*
X139392Y126176D01*
X136217Y127491D01*
D02*
G37*
G36*
X224006Y125592D02*
X220914Y122500D01*
X224006Y119408D01*
X225287Y122500D01*
X224006Y125592D01*
D02*
G37*
G36*
X379500Y123787D02*
X376408Y122506D01*
X379500Y119414D01*
X382592Y122506D01*
X379500Y123787D01*
D02*
G37*
G36*
X279295Y125948D02*
X278139Y123158D01*
X279295Y120367D01*
X282086Y123158D01*
X279295Y125948D01*
D02*
G37*
G36*
X219500Y128287D02*
X216408Y127006D01*
X219500Y123914D01*
X222592Y127006D01*
X219500Y128287D01*
D02*
G37*
G36*
X172295Y125948D02*
X171565Y124187D01*
X171471Y123959D01*
X169306D01*
X169231Y124141D01*
X168547Y125791D01*
X165757Y123000D01*
X168547Y120209D01*
X169277Y121971D01*
X169371Y122199D01*
X171536D01*
X171612Y122017D01*
X172295Y120367D01*
X175086Y123158D01*
X172295Y125948D01*
D02*
G37*
G36*
X287705D02*
X284914Y123158D01*
X287705Y120367D01*
X288388Y122017D01*
X288464Y122199D01*
X290629D01*
X290723Y121971D01*
X291453Y120209D01*
X294243Y123000D01*
X291453Y125791D01*
X290769Y124141D01*
X290694Y123959D01*
X288529D01*
X288435Y124187D01*
X287705Y125948D01*
D02*
G37*
G36*
X160138Y125791D02*
X158982Y123000D01*
X160138Y120209D01*
X162928Y123000D01*
X160138Y125791D01*
D02*
G37*
G36*
X180705Y125948D02*
X177914Y123158D01*
X180705Y120367D01*
X181861Y123158D01*
X180705Y125948D01*
D02*
G37*
G36*
X359216Y127491D02*
X356041Y126176D01*
X354725Y123000D01*
X356041Y119824D01*
X359216Y118509D01*
X362392Y119824D01*
X363708Y123000D01*
X362392Y126176D01*
X359216Y127491D01*
D02*
G37*
G36*
X395000Y103871D02*
X391556Y102444D01*
X391082Y101301D01*
X388918D01*
X388444Y102444D01*
X385000Y103871D01*
X381556Y102444D01*
X381082Y101301D01*
X378918D01*
X378444Y102444D01*
X375000Y103871D01*
X371556Y102444D01*
X370129Y99000D01*
Y97000D01*
X371556Y93556D01*
X375000Y92129D01*
X378444Y93556D01*
X378918Y94699D01*
X381082D01*
X381556Y93556D01*
X385000Y92129D01*
X388444Y93556D01*
X388918Y94699D01*
X391082D01*
X391556Y93556D01*
X395000Y92129D01*
X398444Y93556D01*
X399871Y97000D01*
Y99000D01*
X398444Y102444D01*
X395000Y103871D01*
D02*
G37*
G36*
X379500Y116586D02*
X376408Y113494D01*
X379500Y112213D01*
X382592Y113494D01*
X379500Y116586D01*
D02*
G37*
G36*
X369500Y122705D02*
X366173Y121327D01*
X364795Y118000D01*
X366173Y114673D01*
X369500Y113295D01*
X372827Y114673D01*
X372959Y114992D01*
X374959D01*
X374994Y114908D01*
X378086Y118000D01*
X374994Y121092D01*
X374959Y121008D01*
X372959D01*
X372827Y121327D01*
X369500Y122705D01*
D02*
G37*
G36*
X32500Y103557D02*
X29559Y102339D01*
X32500Y99398D01*
X35441Y102339D01*
X32500Y103557D01*
D02*
G37*
G36*
X427500Y103557D02*
X424559Y102339D01*
X427500Y99398D01*
X430441Y102339D01*
X427500Y103557D01*
D02*
G37*
G36*
X85000Y103871D02*
X81556Y102444D01*
X81082Y101301D01*
X78918D01*
X78444Y102444D01*
X75000Y103871D01*
X71556Y102444D01*
X71082Y101301D01*
X68918D01*
X68444Y102444D01*
X65000Y103871D01*
X61556Y102444D01*
X60129Y99000D01*
Y97000D01*
X61556Y93556D01*
X65000Y92129D01*
X68444Y93556D01*
X68918Y94699D01*
X71082D01*
X71556Y93556D01*
X75000Y92129D01*
X78444Y93556D01*
X78918Y94699D01*
X81082D01*
X81556Y93556D01*
X85000Y92129D01*
X88444Y93556D01*
X89871Y97000D01*
Y99000D01*
X88444Y102444D01*
X85000Y103871D01*
D02*
G37*
G36*
X176500Y121743D02*
X173709Y118953D01*
X176500Y117797D01*
X179291Y118953D01*
X176500Y121743D01*
D02*
G37*
G36*
X283500D02*
X280709Y118953D01*
X283500Y117797D01*
X286291Y118953D01*
X283500Y121743D01*
D02*
G37*
G36*
X100784Y127491D02*
X97607Y126176D01*
X96292Y123000D01*
X97607Y119824D01*
X100784Y118509D01*
X103959Y119824D01*
X105275Y123000D01*
X103959Y126176D01*
X100784Y127491D01*
D02*
G37*
G36*
X219500Y121086D02*
X216408Y117994D01*
X219500Y116713D01*
X222592Y117994D01*
X219500Y121086D01*
D02*
G37*
G36*
X164342Y121586D02*
X161552Y118795D01*
X164342Y117639D01*
X167133Y118795D01*
X164342Y121586D01*
D02*
G37*
G36*
X295657D02*
X292867Y118795D01*
X295657Y117639D01*
X298448Y118795D01*
X295657Y121586D01*
D02*
G37*
G36*
X118543Y73433D02*
X109457D01*
Y64346D01*
X118543D01*
Y73433D01*
D02*
G37*
G36*
X404072Y34441D02*
X401131Y31500D01*
X404072Y28559D01*
X405290Y31500D01*
X404072Y34441D01*
D02*
G37*
G36*
X58283Y35586D02*
X55342Y32645D01*
X58284Y31426D01*
X61225Y32644D01*
X58283Y35586D01*
D02*
G37*
G36*
X93717Y41491D02*
X90541Y40176D01*
X89225Y37000D01*
X90541Y33824D01*
X93717Y32509D01*
X96892Y33824D01*
X98208Y37000D01*
X96892Y40176D01*
X93717Y41491D01*
D02*
G37*
G36*
X267283Y36492D02*
X264107Y35176D01*
X262792Y32000D01*
X264107Y28824D01*
X267283Y27509D01*
X270459Y28824D01*
X271775Y32000D01*
X270459Y35176D01*
X267283Y36492D01*
D02*
G37*
G36*
X302717D02*
X299541Y35176D01*
X298225Y32000D01*
X299541Y28824D01*
X302717Y27509D01*
X305892Y28824D01*
X307208Y32000D01*
X305892Y35176D01*
X302717Y36492D01*
D02*
G37*
G36*
X395361Y34441D02*
X394143Y31500D01*
X395361Y28559D01*
X398302Y31500D01*
X395361Y34441D01*
D02*
G37*
G36*
X58284Y42574D02*
X55342Y41355D01*
X58283Y38414D01*
X61225Y41356D01*
X58284Y42574D01*
D02*
G37*
G36*
X179500Y47743D02*
X175203Y43446D01*
X179500Y41666D01*
X183797Y43446D01*
X179500Y47743D01*
D02*
G37*
G36*
X280500D02*
X276203Y43446D01*
X280500Y41666D01*
X284797Y43446D01*
X280500Y47743D01*
D02*
G37*
G36*
X399717Y37074D02*
X396775Y35856D01*
X399717Y32914D01*
X402658Y35855D01*
X399717Y37074D01*
D02*
G37*
G36*
X62639Y39941D02*
X59698Y37000D01*
X62639Y34059D01*
X63857Y37000D01*
X62639Y39941D01*
D02*
G37*
G36*
X53928Y39941D02*
X52710Y37000D01*
X53928Y34059D01*
X56869Y37000D01*
X53928Y39941D01*
D02*
G37*
G36*
X192717Y36492D02*
X189541Y35176D01*
X188225Y32000D01*
X189541Y28824D01*
X192717Y27509D01*
X195893Y28824D01*
X197208Y32000D01*
X195893Y35176D01*
X192717Y36492D01*
D02*
G37*
G36*
X157283Y22991D02*
X154107Y21676D01*
X152792Y18500D01*
X154107Y15324D01*
X157283Y14008D01*
X160459Y15324D01*
X161775Y18500D01*
X160459Y21676D01*
X157283Y22991D01*
D02*
G37*
G36*
X192717D02*
X189541Y21676D01*
X188225Y18500D01*
X189541Y15324D01*
X192717Y14008D01*
X195893Y15324D01*
X197208Y18500D01*
X195893Y21676D01*
X192717Y22991D01*
D02*
G37*
G36*
X267283D02*
X264107Y21676D01*
X262792Y18500D01*
X264107Y15324D01*
X267283Y14008D01*
X270459Y15324D01*
X271775Y18500D01*
X270459Y21676D01*
X267283Y22991D01*
D02*
G37*
G36*
X79347Y22847D02*
X70653D01*
Y14154D01*
X72065D01*
X72463Y12154D01*
X71673Y11827D01*
X70295Y8500D01*
X71673Y5173D01*
X75000Y3796D01*
X78327Y5173D01*
X79705Y8500D01*
X78327Y11827D01*
X77537Y12154D01*
X77935Y14154D01*
X79347D01*
Y22847D01*
D02*
G37*
G36*
X25000Y35530D02*
X15433Y31567D01*
X11470Y22000D01*
X15433Y12433D01*
X25000Y8470D01*
X34567Y12433D01*
X38530Y22000D01*
X34567Y31567D01*
X25000Y35530D01*
D02*
G37*
G36*
X435000D02*
X425433Y31567D01*
X421470Y22000D01*
X425433Y12433D01*
X435000Y8470D01*
X444567Y12433D01*
X448530Y22000D01*
X444567Y31567D01*
X435000Y35530D01*
D02*
G37*
G36*
X343000Y29991D02*
X339824Y28676D01*
X339082Y26886D01*
X336918D01*
X336176Y28676D01*
X333000Y29991D01*
X329824Y28676D01*
X329082Y26886D01*
X326918D01*
X326176Y28676D01*
X323000Y29991D01*
X319824Y28676D01*
X318509Y25500D01*
X319824Y22324D01*
X323000Y21009D01*
X326176Y22324D01*
X326918Y24114D01*
X329082D01*
X329824Y22324D01*
X333000Y21009D01*
X336176Y22324D01*
X336918Y24114D01*
X339082D01*
X339824Y22324D01*
X343000Y21009D01*
X346176Y22324D01*
X347492Y25500D01*
X346176Y28676D01*
X343000Y29991D01*
D02*
G37*
G36*
X364283Y35991D02*
X361107Y34676D01*
X359792Y31500D01*
X361107Y28324D01*
X364283Y27009D01*
X367459Y28324D01*
X368775Y31500D01*
X367459Y34676D01*
X364283Y35991D01*
D02*
G37*
G36*
X157283Y36492D02*
X154107Y35176D01*
X152792Y32000D01*
X154107Y28824D01*
X157283Y27509D01*
X160459Y28824D01*
X161775Y32000D01*
X160459Y35176D01*
X157283Y36492D01*
D02*
G37*
G36*
X302717Y22991D02*
X299541Y21676D01*
X298225Y18500D01*
X299541Y15324D01*
X302717Y14008D01*
X305892Y15324D01*
X307208Y18500D01*
X305892Y21676D01*
X302717Y22991D01*
D02*
G37*
G36*
X399717Y30086D02*
X396775Y27144D01*
X399717Y25926D01*
X402658Y27145D01*
X399717Y30086D01*
D02*
G37*
G36*
X137000Y29991D02*
X133824Y28676D01*
X133082Y26886D01*
X130918D01*
X130176Y28676D01*
X127000Y29991D01*
X123824Y28676D01*
X123082Y26886D01*
X120918D01*
X120176Y28676D01*
X117000Y29991D01*
X113824Y28676D01*
X112508Y25500D01*
X113824Y22324D01*
X117000Y21009D01*
X120176Y22324D01*
X120918Y24114D01*
X123082D01*
X123824Y22324D01*
X127000Y21009D01*
X130176Y22324D01*
X130918Y24114D01*
X133082D01*
X133824Y22324D01*
X137000Y21009D01*
X140176Y22324D01*
X141491Y25500D01*
X140176Y28676D01*
X137000Y29991D01*
D02*
G37*
G36*
X118657Y58353D02*
X115414Y55110D01*
X118657Y51868D01*
X120000Y55110D01*
X118657Y58353D01*
D02*
G37*
G36*
X230000Y59491D02*
X225703Y57711D01*
X230000Y53414D01*
X234297Y57711D01*
X230000Y59491D01*
D02*
G37*
G36*
X297783Y92492D02*
X294607Y91176D01*
X293292Y88000D01*
X293995Y86303D01*
Y61374D01*
X295105Y58695D01*
X297400Y56400D01*
X300079Y55290D01*
X308653D01*
Y54732D01*
X317347D01*
Y63425D01*
X316315D01*
X315917Y65425D01*
X316327Y65595D01*
X317705Y68921D01*
X316327Y72248D01*
X313000Y73626D01*
X309673Y72248D01*
X308295Y68921D01*
X309673Y65595D01*
X310083Y65425D01*
X309685Y63425D01*
X308653D01*
Y62867D01*
X301648D01*
X301572Y62943D01*
Y86303D01*
X302275Y88000D01*
X300959Y91176D01*
X297783Y92492D01*
D02*
G37*
G36*
X351543Y59239D02*
X347414Y55110D01*
X351543Y50981D01*
Y59239D01*
D02*
G37*
G36*
X340457Y59239D02*
Y50981D01*
X344586Y55110D01*
X340457Y59239D01*
D02*
G37*
G36*
X109343Y58353D02*
X108000Y55110D01*
X109343Y51868D01*
X112586Y55110D01*
X109343Y58353D01*
D02*
G37*
G36*
X179500Y75252D02*
X174968Y73374D01*
X173091Y68843D01*
X174968Y64311D01*
X179500Y62433D01*
X184032Y64311D01*
X185909Y68843D01*
X184032Y73374D01*
X179500Y75252D01*
D02*
G37*
G36*
X162217Y92492D02*
X159041Y91176D01*
X157725Y88000D01*
X158428Y86303D01*
Y62788D01*
X152052D01*
X151347Y64496D01*
X151347Y64788D01*
Y73189D01*
X142654D01*
Y64496D01*
X143685D01*
X144082Y62496D01*
X143673Y62327D01*
X142295Y59000D01*
X143673Y55673D01*
X147000Y54295D01*
X149212Y55212D01*
X160000D01*
X162679Y56321D01*
X164895Y58538D01*
X166005Y61216D01*
Y86303D01*
X166708Y88000D01*
X165392Y91176D01*
X162217Y92492D01*
D02*
G37*
G36*
X346000Y73807D02*
X342523Y72367D01*
X341082Y68890D01*
X342523Y65412D01*
X346000Y63972D01*
X349477Y65412D01*
X350918Y68890D01*
X349477Y72367D01*
X346000Y73807D01*
D02*
G37*
G36*
X114000Y61110D02*
X110757Y59767D01*
X114000Y56524D01*
X117243Y59767D01*
X114000Y61110D01*
D02*
G37*
G36*
X350129Y60654D02*
X341871D01*
X346000Y56524D01*
X350129Y60654D01*
D02*
G37*
G36*
X280500Y75252D02*
X275968Y73374D01*
X274091Y68843D01*
X275968Y64311D01*
X280500Y62433D01*
X285032Y64311D01*
X286909Y68843D01*
X285032Y73374D01*
X280500Y75252D01*
D02*
G37*
G36*
Y56649D02*
X276203Y54869D01*
X280500Y50572D01*
X284797Y54869D01*
X280500Y56649D01*
D02*
G37*
G36*
X286211Y53455D02*
X281914Y49158D01*
X286211Y44860D01*
X287991Y49158D01*
X286211Y53455D01*
D02*
G37*
G36*
X274788D02*
X273008Y49158D01*
X274788Y44860D01*
X279086Y49158D01*
X274788Y53455D01*
D02*
G37*
G36*
X210000Y58409D02*
X205468Y56532D01*
X203591Y52000D01*
X205468Y47468D01*
X210000Y45591D01*
X214532Y47468D01*
X216409Y52000D01*
X214532Y56532D01*
X210000Y58409D01*
D02*
G37*
G36*
X230000Y50586D02*
X225703Y46288D01*
X230000Y44508D01*
X234297Y46288D01*
X230000Y50586D01*
D02*
G37*
G36*
X173788Y53455D02*
X172009Y49158D01*
X173788Y44860D01*
X178086Y49158D01*
X173788Y53455D01*
D02*
G37*
G36*
X185212Y53455D02*
X180914Y49158D01*
X185212Y44860D01*
X186992Y49158D01*
X185212Y53455D01*
D02*
G37*
G36*
X114000Y53696D02*
X110757Y50453D01*
X114000Y49110D01*
X117243Y50453D01*
X114000Y53696D01*
D02*
G37*
G36*
X346000D02*
X341871Y49567D01*
X350129D01*
X346000Y53696D01*
D02*
G37*
G36*
X179500Y56649D02*
X175203Y54869D01*
X179500Y50572D01*
X183797Y54869D01*
X179500Y56649D01*
D02*
G37*
G36*
X255921Y57921D02*
X244079D01*
Y46079D01*
X255921D01*
Y57921D01*
D02*
G37*
G36*
X224289Y56297D02*
X222509Y52000D01*
X224289Y47703D01*
X228586Y52000D01*
X224289Y56297D01*
D02*
G37*
G36*
X235712Y56297D02*
X231414Y52000D01*
X235712Y47703D01*
X237491Y52000D01*
X235712Y56297D01*
D02*
G37*
G36*
X295657Y128361D02*
X292867Y127205D01*
X295657Y124414D01*
X298448Y127205D01*
X295657Y128361D01*
D02*
G37*
G36*
X184500Y243770D02*
X180420Y242080D01*
X178730Y238000D01*
X180420Y233920D01*
X184500Y232230D01*
X188580Y233920D01*
X190270Y238000D01*
X188580Y242080D01*
X184500Y243770D01*
D02*
G37*
G36*
X275500D02*
X271420Y242080D01*
X269730Y238000D01*
X271420Y233920D01*
X275500Y232230D01*
X279580Y233920D01*
X281270Y238000D01*
X279580Y242080D01*
X275500Y243770D01*
D02*
G37*
G36*
X295500D02*
X291420Y242080D01*
X289730Y238000D01*
X291420Y233920D01*
X295500Y232230D01*
X299580Y233920D01*
X301270Y238000D01*
X299580Y242080D01*
X295500Y243770D01*
D02*
G37*
G36*
X362000Y211705D02*
X358673Y210327D01*
X358347Y209537D01*
X356347Y209935D01*
Y211347D01*
X347654D01*
Y202654D01*
X356347D01*
Y204065D01*
X358347Y204463D01*
X358673Y203673D01*
X362000Y202295D01*
X365327Y203673D01*
X366705Y207000D01*
X365327Y210327D01*
X362000Y211705D01*
D02*
G37*
G36*
X330000Y217770D02*
X325920Y216080D01*
X324080Y216080D01*
X320000Y217770D01*
X315920Y216080D01*
X314080Y216080D01*
X310000Y217770D01*
X305920Y216080D01*
X304230Y212000D01*
X305920Y207920D01*
X310000Y206230D01*
X313803Y207805D01*
X315000Y207870D01*
X316197Y207805D01*
X320000Y206230D01*
X323803Y207805D01*
X325000Y207870D01*
X326197Y207805D01*
X330000Y206230D01*
X334080Y207920D01*
X335770Y212000D01*
X334080Y216080D01*
X330000Y217770D01*
D02*
G37*
G36*
X164500Y243770D02*
X160420Y242080D01*
X158730Y238000D01*
X160420Y233920D01*
X164500Y232230D01*
X168580Y233920D01*
X170270Y238000D01*
X168580Y242080D01*
X164500Y243770D01*
D02*
G37*
G36*
X224289Y254297D02*
X222509Y250000D01*
X224289Y245703D01*
X228586Y250000D01*
X224289Y254297D01*
D02*
G37*
G36*
X235712D02*
X231414Y250000D01*
X235712Y245703D01*
X237491Y250000D01*
X235712Y254297D01*
D02*
G37*
G36*
X230000Y257491D02*
X225703Y255712D01*
X230000Y251414D01*
X234297Y255712D01*
X230000Y257491D01*
D02*
G37*
G36*
Y248586D02*
X225703Y244288D01*
X230000Y242509D01*
X234297Y244288D01*
X230000Y248586D01*
D02*
G37*
G36*
X250000Y256409D02*
X245468Y254532D01*
X243591Y250000D01*
X245468Y245468D01*
X250000Y243591D01*
X254532Y245468D01*
X256409Y250000D01*
X254532Y254532D01*
X250000Y256409D01*
D02*
G37*
G36*
X215921Y255921D02*
X204079D01*
Y244079D01*
X215921D01*
Y255921D01*
D02*
G37*
G36*
X108000Y211705D02*
X104673Y210327D01*
X104347Y209537D01*
X102347Y209935D01*
Y211347D01*
X93654D01*
Y202654D01*
X102347D01*
Y204065D01*
X104347Y204463D01*
X104673Y203673D01*
X108000Y202295D01*
X111327Y203673D01*
X112705Y207000D01*
X111327Y210327D01*
X108000Y211705D01*
D02*
G37*
G36*
X243624Y195210D02*
X240414Y192000D01*
X243624Y188791D01*
X244953Y192000D01*
X243624Y195210D01*
D02*
G37*
G36*
X386500Y204708D02*
X383324Y203393D01*
X382009Y200217D01*
X383324Y197041D01*
X386500Y195725D01*
X389676Y197041D01*
X390991Y200217D01*
X389676Y203393D01*
X386500Y204708D01*
D02*
G37*
G36*
X398500D02*
X395324Y203393D01*
X394008Y200217D01*
X395324Y197041D01*
X398500Y195725D01*
X401676Y197041D01*
X402991Y200217D01*
X401676Y203393D01*
X398500Y204708D01*
D02*
G37*
G36*
X212376Y195210D02*
X211047Y192000D01*
X212376Y188791D01*
X215586Y192000D01*
X212376Y195210D01*
D02*
G37*
G36*
X232376D02*
X231047Y192000D01*
X232376Y188791D01*
X235586Y192000D01*
X232376Y195210D01*
D02*
G37*
G36*
X223624D02*
X220414Y192000D01*
X223624Y188791D01*
X224953Y192000D01*
X223624Y195210D01*
D02*
G37*
G36*
X204217Y216492D02*
X201041Y215176D01*
X199725Y212000D01*
X201041Y208824D01*
X204217Y207508D01*
X207393Y208824D01*
X208708Y212000D01*
X207393Y215176D01*
X204217Y216492D01*
D02*
G37*
G36*
X255783D02*
X252607Y215176D01*
X251292Y212000D01*
X252607Y208824D01*
X255783Y207508D01*
X258959Y208824D01*
X260275Y212000D01*
X258959Y215176D01*
X255783Y216492D01*
D02*
G37*
G36*
X291217D02*
X288041Y215176D01*
X286725Y212000D01*
X288041Y208824D01*
X291217Y207508D01*
X294392Y208824D01*
X295708Y212000D01*
X294392Y215176D01*
X291217Y216492D01*
D02*
G37*
G36*
X61500Y204708D02*
X58324Y203393D01*
X57008Y200217D01*
X58324Y197041D01*
X61500Y195725D01*
X64676Y197041D01*
X65991Y200217D01*
X64676Y203393D01*
X61500Y204708D01*
D02*
G37*
G36*
X73500D02*
X70324Y203393D01*
X69008Y200217D01*
X70324Y197041D01*
X73500Y195725D01*
X76676Y197041D01*
X77991Y200217D01*
X76676Y203393D01*
X73500Y204708D01*
D02*
G37*
G36*
X168783Y216492D02*
X165608Y215176D01*
X164292Y212000D01*
X165608Y208824D01*
X168783Y207508D01*
X171959Y208824D01*
X173275Y212000D01*
X171959Y215176D01*
X168783Y216492D01*
D02*
G37*
G36*
X164500Y267770D02*
X160420Y266080D01*
X158730Y262000D01*
X160420Y257920D01*
X164500Y256230D01*
X168580Y257920D01*
X170270Y262000D01*
X168580Y266080D01*
X164500Y267770D01*
D02*
G37*
G36*
X166000Y356474D02*
X160715Y354285D01*
X158526Y349000D01*
X160715Y343715D01*
X166000Y341526D01*
X171285Y343715D01*
X173475Y349000D01*
X171285Y354285D01*
X166000Y356474D01*
D02*
G37*
G36*
X187500D02*
X182215Y354285D01*
X180025Y349000D01*
X182215Y343715D01*
X187500Y341526D01*
X192785Y343715D01*
X194975Y349000D01*
X192785Y354285D01*
X187500Y356474D01*
D02*
G37*
G36*
X272500D02*
X267215Y354285D01*
X265025Y349000D01*
X267215Y343715D01*
X272500Y341526D01*
X277785Y343715D01*
X279975Y349000D01*
X277785Y354285D01*
X272500Y356474D01*
D02*
G37*
G36*
X192437Y293347D02*
X182563D01*
Y283472D01*
X192437D01*
Y293347D01*
D02*
G37*
G36*
X187500Y334934D02*
X183721Y333369D01*
X182156Y329591D01*
X183721Y325812D01*
X187500Y324247D01*
X191279Y325812D01*
X192844Y329591D01*
X191279Y333369D01*
X187500Y334934D01*
D02*
G37*
G36*
X144500Y356474D02*
X139215Y354285D01*
X138146Y351706D01*
X81000D01*
X79087Y350913D01*
X79087Y350913D01*
X75087Y346913D01*
X74294Y345000D01*
Y231500D01*
X75087Y229587D01*
X81587Y223087D01*
X83500Y222294D01*
X83500Y222294D01*
X125879D01*
X127294Y220879D01*
Y216649D01*
X125920Y216080D01*
X124230Y212000D01*
X125920Y207920D01*
X130000Y206230D01*
X134080Y207920D01*
X135920Y207920D01*
X140000Y206230D01*
X144080Y207920D01*
X145920Y207920D01*
X150000Y206230D01*
X154080Y207920D01*
X155770Y212000D01*
X154080Y216080D01*
X150000Y217770D01*
X145920Y216080D01*
X144080Y216080D01*
X140000Y217770D01*
X135920Y216080D01*
X134470Y216080D01*
X132706Y217511D01*
Y222000D01*
X131913Y223913D01*
X128913Y226913D01*
X127000Y227706D01*
X84621D01*
X79706Y232621D01*
Y343879D01*
X82121Y346294D01*
X138146D01*
X139215Y343715D01*
X144500Y341526D01*
X149785Y343715D01*
X151974Y349000D01*
X149785Y354285D01*
X144500Y356474D01*
D02*
G37*
G36*
X435000Y371530D02*
X425433Y367567D01*
X421470Y358000D01*
X425433Y348433D01*
X435000Y344470D01*
X444567Y348433D01*
X448530Y358000D01*
X444567Y367567D01*
X435000Y371530D01*
D02*
G37*
G36*
X341910Y369344D02*
X338131Y367779D01*
X336566Y364000D01*
X338131Y360221D01*
X341910Y358656D01*
X345688Y360221D01*
X347253Y364000D01*
X345688Y367779D01*
X341910Y369344D01*
D02*
G37*
G36*
X388028Y368937D02*
X378153D01*
Y359063D01*
X388028D01*
Y368937D01*
D02*
G37*
G36*
X294000Y356474D02*
X288715Y354285D01*
X286526Y349000D01*
X288715Y343715D01*
X294000Y341526D01*
X299285Y343715D01*
X301474Y349000D01*
X299285Y354285D01*
X294000Y356474D01*
D02*
G37*
G36*
X315500D02*
X310215Y354285D01*
X308026Y349000D01*
X310215Y343715D01*
X315500Y341526D01*
X320785Y343715D01*
X322974Y349000D01*
X320785Y354285D01*
X315500Y356474D01*
D02*
G37*
G36*
X25000Y371530D02*
X15433Y367567D01*
X11470Y358000D01*
X15433Y348433D01*
X25000Y344470D01*
X34567Y348433D01*
X38530Y358000D01*
X34567Y367567D01*
X25000Y371530D01*
D02*
G37*
G36*
X412129Y288858D02*
X393241D01*
X402685Y279414D01*
X412129Y288858D01*
D02*
G37*
G36*
X57315Y276586D02*
X50004Y269275D01*
X57315Y266247D01*
X64626Y269275D01*
X57315Y276586D01*
D02*
G37*
G36*
X402685D02*
X393241Y267142D01*
X412129D01*
X402685Y276586D01*
D02*
G37*
G36*
X363315Y288670D02*
X355770Y285545D01*
X352644Y278000D01*
X355770Y270455D01*
X363315Y267330D01*
X370860Y270455D01*
X373986Y278000D01*
X370860Y285545D01*
X363315Y288670D01*
D02*
G37*
G36*
X184500Y267770D02*
X180420Y266080D01*
X178730Y262000D01*
X180420Y257920D01*
X184500Y256230D01*
X188580Y257920D01*
X190270Y262000D01*
X188580Y266080D01*
X184500Y267770D01*
D02*
G37*
G36*
X275500D02*
X271420Y266080D01*
X269730Y262000D01*
X271420Y257920D01*
X275500Y256230D01*
X279580Y257920D01*
X281270Y262000D01*
X279580Y266080D01*
X275500Y267770D01*
D02*
G37*
G36*
X295500D02*
X291420Y266080D01*
X289730Y262000D01*
X291420Y257920D01*
X295500Y256230D01*
X299580Y257920D01*
X301270Y262000D01*
X299580Y266080D01*
X295500Y267770D01*
D02*
G37*
G36*
X48590Y285311D02*
X45562Y278000D01*
X48590Y270689D01*
X55901Y278000D01*
X48590Y285311D01*
D02*
G37*
G36*
X66040Y285311D02*
X58729Y278000D01*
X66040Y270689D01*
X69068Y278000D01*
X66040Y285311D01*
D02*
G37*
G36*
X57315Y289753D02*
X50004Y286725D01*
X57315Y279414D01*
X64626Y286725D01*
X57315Y289753D01*
D02*
G37*
G36*
X106543Y287858D02*
X86827D01*
Y268142D01*
X106543D01*
Y287858D01*
D02*
G37*
G36*
X391827Y287444D02*
Y268556D01*
X401271Y278000D01*
X391827Y287444D01*
D02*
G37*
G36*
X413543Y287444D02*
X404099Y278000D01*
X413543Y268556D01*
Y287444D01*
D02*
G37*
G36*
X417500Y148586D02*
X413568Y144654D01*
X421432D01*
X417500Y148586D01*
D02*
G37*
G36*
X55994Y151092D02*
X54713Y148000D01*
X55994Y144908D01*
X59086Y148000D01*
X55994Y151092D01*
D02*
G37*
G36*
X422847Y153932D02*
X418914Y150000D01*
X422847Y146068D01*
Y153932D01*
D02*
G37*
G36*
X295232Y150932D02*
Y143068D01*
X299165Y147000D01*
X295232Y150932D01*
D02*
G37*
G36*
X163927Y150092D02*
X160836Y147000D01*
X163927Y143908D01*
X165208Y147000D01*
X163927Y150092D01*
D02*
G37*
G36*
X42500Y148586D02*
X39408Y145494D01*
X42500Y144213D01*
X45592Y145494D01*
X42500Y148586D01*
D02*
G37*
G36*
X60500Y153787D02*
X57408Y152506D01*
X60500Y149414D01*
X63592Y152506D01*
X60500Y153787D01*
D02*
G37*
G36*
X80500Y152705D02*
X77173Y151327D01*
X76582Y149900D01*
X74418D01*
X73827Y151327D01*
X70500Y152705D01*
X67173Y151327D01*
X67041Y151007D01*
X65041D01*
X65006Y151092D01*
X61914Y148000D01*
X65006Y144908D01*
X65041Y144992D01*
X67041D01*
X67173Y144673D01*
X70500Y143295D01*
X73827Y144673D01*
X74418Y146100D01*
X76582D01*
X77173Y144673D01*
X80500Y143295D01*
X83827Y144673D01*
X84153Y145463D01*
X86154Y145065D01*
Y143654D01*
X94846D01*
Y152346D01*
X86154D01*
Y150935D01*
X84153Y150537D01*
X83827Y151327D01*
X80500Y152705D01*
D02*
G37*
G36*
X389500D02*
X386173Y151327D01*
X385582Y149900D01*
X383418D01*
X382827Y151327D01*
X379500Y152705D01*
X376173Y151327D01*
X375582Y149900D01*
X373418D01*
X372827Y151327D01*
X369500Y152705D01*
X366173Y151327D01*
X364795Y148000D01*
X366173Y144673D01*
X369500Y143295D01*
X372827Y144673D01*
X373418Y146100D01*
X375582D01*
X376173Y144673D01*
X379500Y143295D01*
X382827Y144673D01*
X383418Y146100D01*
X385582D01*
X386173Y144673D01*
X389500Y143295D01*
X392827Y144673D01*
X393154Y145463D01*
X395153Y145065D01*
Y143654D01*
X403847D01*
Y152347D01*
X395153D01*
Y150935D01*
X393154Y150537D01*
X392827Y151327D01*
X389500Y152705D01*
D02*
G37*
G36*
X412153Y153932D02*
Y146068D01*
X416086Y150000D01*
X412153Y153932D01*
D02*
G37*
G36*
X46846Y164347D02*
X38154D01*
Y155654D01*
X38153Y155654D01*
X38226Y153654D01*
X36713Y150000D01*
X37994Y146908D01*
X41793Y150707D01*
X42500Y150000D01*
X43207Y150707D01*
X47006Y146908D01*
X48287Y150000D01*
X46774Y153654D01*
X46847Y155654D01*
X46846D01*
Y164347D01*
D02*
G37*
G36*
X304511Y152347D02*
X296646D01*
X300579Y148414D01*
X304511Y152347D01*
D02*
G37*
G36*
X60500Y146586D02*
X57408Y143494D01*
X60500Y142213D01*
X63592Y143494D01*
X60500Y146586D01*
D02*
G37*
G36*
X323783Y127491D02*
X320607Y126176D01*
X320457Y125811D01*
X318457D01*
X318368Y126025D01*
X315342Y127278D01*
X312317Y126025D01*
X311064Y123000D01*
X312317Y119975D01*
X315342Y118722D01*
X318368Y119975D01*
X318457Y120189D01*
X320457D01*
X320607Y119824D01*
X323783Y118509D01*
X326959Y119824D01*
X328275Y123000D01*
X326959Y126176D01*
X323783Y127491D01*
D02*
G37*
G36*
X427500Y137908D02*
X424324Y136592D01*
X423008Y133416D01*
X424324Y130241D01*
X427500Y128925D01*
X430676Y130241D01*
X431991Y133416D01*
X430676Y136592D01*
X427500Y137908D01*
D02*
G37*
G36*
X32500Y137908D02*
X29324Y136592D01*
X28008Y133417D01*
X29324Y130241D01*
X32500Y128925D01*
X35676Y130241D01*
X36992Y133417D01*
X35676Y136592D01*
X32500Y137908D01*
D02*
G37*
G36*
X164342Y128361D02*
X161552Y127205D01*
X164342Y124414D01*
X167133Y127205D01*
X164342Y128361D01*
D02*
G37*
G36*
X176500Y128518D02*
X173709Y127362D01*
X176500Y124572D01*
X179291Y127362D01*
X176500Y128518D01*
D02*
G37*
G36*
X283500D02*
X280709Y127362D01*
X283500Y124572D01*
X286291Y127362D01*
X283500Y128518D01*
D02*
G37*
G36*
X344843Y146278D02*
X341817Y145025D01*
X340564Y142000D01*
X341817Y138975D01*
X344843Y137722D01*
X347868Y138975D01*
X349121Y142000D01*
X347868Y145025D01*
X344843Y146278D01*
D02*
G37*
G36*
X176500Y147121D02*
X173475Y145868D01*
X172222Y142842D01*
X173475Y139817D01*
X176500Y138564D01*
X179525Y139817D01*
X180778Y142842D01*
X179525Y145868D01*
X176500Y147121D01*
D02*
G37*
G36*
X300579Y145586D02*
X296646Y141654D01*
X304511D01*
X300579Y145586D01*
D02*
G37*
G36*
X115157Y146278D02*
X112132Y145025D01*
X110879Y142000D01*
X112132Y138975D01*
X115157Y137722D01*
X118183Y138975D01*
X119436Y142000D01*
X118183Y145025D01*
X115157Y146278D01*
D02*
G37*
G36*
X134843D02*
X131817Y145025D01*
X130564Y142000D01*
X131817Y138975D01*
X134843Y137722D01*
X137868Y138975D01*
X139121Y142000D01*
X137868Y145025D01*
X134843Y146278D01*
D02*
G37*
G36*
X325157D02*
X322132Y145025D01*
X320879Y142000D01*
X322132Y138975D01*
X325157Y137722D01*
X328183Y138975D01*
X329436Y142000D01*
X328183Y145025D01*
X325157Y146278D01*
D02*
G37*
G36*
X310421Y151705D02*
X307925Y150671D01*
X306466Y151473D01*
X301993Y147000D01*
X306466Y142527D01*
X307925Y143329D01*
X310421Y142295D01*
X313748Y143673D01*
X315126Y147000D01*
X313748Y150327D01*
X310421Y151705D01*
D02*
G37*
G36*
X219000Y216871D02*
X217000D01*
X213556Y215444D01*
X212129Y212000D01*
X213556Y208556D01*
X214699Y208082D01*
Y205918D01*
X213556Y205444D01*
X212129Y202000D01*
X213556Y198556D01*
X213591Y198541D01*
Y196823D01*
X217707Y192707D01*
X217000Y192000D01*
X217707Y191293D01*
X213790Y187376D01*
X217000Y186047D01*
X217760D01*
X218245Y186047D01*
X218643Y184047D01*
X218193Y183860D01*
X216541Y183176D01*
X215225Y180000D01*
X216541Y176824D01*
X219717Y175508D01*
X222892Y176824D01*
X224208Y180000D01*
X222892Y183176D01*
X220547Y184148D01*
X220094Y184335D01*
X219706Y186339D01*
X220149Y186523D01*
X222210Y187376D01*
X218293Y191293D01*
X219000Y192000D01*
X218293Y192707D01*
X222409Y196823D01*
Y198541D01*
X222444Y198556D01*
X223871Y202000D01*
X222444Y205444D01*
X221301Y205918D01*
Y208082D01*
X222444Y208556D01*
X223871Y212000D01*
X222444Y215444D01*
X219000Y216871D01*
D02*
G37*
G36*
X239000D02*
X237000D01*
X233556Y215444D01*
X232129Y212000D01*
X233556Y208556D01*
X234699Y208082D01*
Y205918D01*
X233556Y205444D01*
X232129Y202000D01*
X233556Y198556D01*
X233591Y198541D01*
Y196823D01*
X237707Y192707D01*
X237000Y192000D01*
X237707Y191293D01*
X233790Y187376D01*
X236806Y186127D01*
X237003Y185463D01*
X237010Y184047D01*
X234908Y183176D01*
X233592Y180000D01*
X234908Y176824D01*
X238083Y175508D01*
X241259Y176824D01*
X242575Y180000D01*
X241259Y183176D01*
X239078Y184079D01*
X239034Y185185D01*
X239277Y186162D01*
X242210Y187376D01*
X238293Y191293D01*
X239000Y192000D01*
X238293Y192707D01*
X242409Y196823D01*
Y198541D01*
X242444Y198556D01*
X243871Y202000D01*
X242444Y205444D01*
X241301Y205918D01*
Y208082D01*
X242444Y208556D01*
X243871Y212000D01*
X242444Y215444D01*
X239000Y216871D01*
D02*
G37*
G36*
X273517Y184492D02*
X270341Y183176D01*
X269025Y180000D01*
X270341Y176824D01*
X273517Y175508D01*
X276693Y176824D01*
X278008Y180000D01*
X276693Y183176D01*
X273517Y184492D01*
D02*
G37*
G36*
X104500Y170871D02*
X101056Y169444D01*
X100582Y168301D01*
X98418D01*
X97944Y169444D01*
X94500Y170871D01*
X91056Y169444D01*
X90582Y168301D01*
X88418D01*
X87944Y169444D01*
X84500Y170871D01*
X81056Y169444D01*
X80216Y167416D01*
X79046Y165900D01*
X79046Y165900D01*
Y165900D01*
X77629Y165658D01*
X77521Y165918D01*
X76676Y167959D01*
X73500Y169275D01*
X70324Y167959D01*
X69008Y164783D01*
X70324Y161608D01*
X73500Y160292D01*
X76676Y161608D01*
X77574Y163776D01*
X77648Y163954D01*
X78880Y163983D01*
X79199Y163898D01*
X79730Y163756D01*
X81056Y160556D01*
X84500Y159129D01*
X87944Y160556D01*
X88418Y161699D01*
X90582D01*
X91056Y160556D01*
X94500Y159129D01*
X97944Y160556D01*
X98418Y161699D01*
X100582D01*
X101056Y160556D01*
X104500Y159129D01*
X107944Y160556D01*
X109371Y164000D01*
Y166000D01*
X107944Y169444D01*
X104500Y170871D01*
D02*
G37*
G36*
X375500D02*
X372056Y169444D01*
X371582Y168301D01*
X369418D01*
X368944Y169444D01*
X365500Y170871D01*
X362056Y169444D01*
X361582Y168301D01*
X359418D01*
X358944Y169444D01*
X355500Y170871D01*
X352056Y169444D01*
X350629Y166000D01*
Y164000D01*
X352056Y160556D01*
X355500Y159129D01*
X358944Y160556D01*
X359418Y161699D01*
X361582D01*
X362056Y160556D01*
X365500Y159129D01*
X368944Y160556D01*
X369418Y161699D01*
X371582D01*
X372056Y160556D01*
X375500Y159129D01*
X378944Y160556D01*
X380270Y163756D01*
X381120Y163983D01*
X382352Y163954D01*
X382426Y163776D01*
X383324Y161608D01*
X386500Y160292D01*
X389676Y161608D01*
X390991Y164784D01*
X389676Y167959D01*
X386500Y169275D01*
X383324Y167959D01*
X382479Y165918D01*
X382371Y165658D01*
X380954Y165900D01*
X379784Y167416D01*
X378944Y169444D01*
X375500Y170871D01*
D02*
G37*
G36*
X184283Y184492D02*
X181107Y183176D01*
X179792Y180000D01*
X181107Y176824D01*
X184283Y175508D01*
X187459Y176824D01*
X188775Y180000D01*
X187459Y183176D01*
X184283Y184492D01*
D02*
G37*
G36*
X295847Y192937D02*
X285972D01*
Y183063D01*
X295847D01*
Y192937D01*
D02*
G37*
G36*
X104500Y190871D02*
X101056Y189444D01*
X100582Y188301D01*
X98418D01*
X97944Y189444D01*
X94500Y190871D01*
X91056Y189444D01*
X90582Y188301D01*
X88418D01*
X87944Y189444D01*
X84500Y190871D01*
X81056Y189444D01*
X79629Y186000D01*
Y184000D01*
X81056Y180556D01*
X84500Y179129D01*
X87944Y180556D01*
X88418Y181699D01*
X90582D01*
X91056Y180556D01*
X94500Y179129D01*
X97944Y180556D01*
X98418Y181699D01*
X100582D01*
X101056Y180556D01*
X104500Y179129D01*
X107944Y180556D01*
X109371Y184000D01*
Y186000D01*
X107944Y189444D01*
X104500Y190871D01*
D02*
G37*
G36*
X375500D02*
X372056Y189444D01*
X371582Y188301D01*
X369418D01*
X368944Y189444D01*
X365500Y190871D01*
X362056Y189444D01*
X361582Y188301D01*
X359418D01*
X358944Y189444D01*
X355500Y190871D01*
X352056Y189444D01*
X350629Y186000D01*
Y184000D01*
X352056Y180556D01*
X355500Y179129D01*
X358944Y180556D01*
X359418Y181699D01*
X361582D01*
X362056Y180556D01*
X365500Y179129D01*
X368944Y180556D01*
X369418Y181699D01*
X371582D01*
X372056Y180556D01*
X375500Y179129D01*
X378944Y180556D01*
X380371Y184000D01*
Y186000D01*
X378944Y189444D01*
X375500Y190871D01*
D02*
G37*
G36*
X169091Y193344D02*
X165312Y191779D01*
X163747Y188000D01*
X165312Y184221D01*
X169091Y182656D01*
X172869Y184221D01*
X174434Y188000D01*
X172869Y191779D01*
X169091Y193344D01*
D02*
G37*
G36*
X332090D02*
X328312Y191779D01*
X326747Y188000D01*
X328312Y184221D01*
X332090Y182656D01*
X335869Y184221D01*
X337434Y188000D01*
X335869Y191779D01*
X332090Y193344D01*
D02*
G37*
G36*
X132846Y192937D02*
X122972D01*
Y183063D01*
X132846D01*
Y192937D01*
D02*
G37*
G36*
X339921Y169705D02*
X336595Y168327D01*
X336425Y167918D01*
X334425Y168315D01*
Y169346D01*
X325732D01*
Y160653D01*
X334425D01*
Y161685D01*
X336425Y162083D01*
X336595Y161673D01*
X339921Y160295D01*
X343248Y161673D01*
X344626Y165000D01*
X343248Y168327D01*
X339921Y169705D01*
D02*
G37*
G36*
X189157Y170278D02*
X186132Y169025D01*
X184879Y166000D01*
X186132Y162975D01*
X189157Y161722D01*
X190876Y162434D01*
X192876Y161097D01*
Y157971D01*
X190876Y156634D01*
X189500Y157205D01*
X186173Y155827D01*
X184795Y152500D01*
X186173Y149173D01*
X189500Y147795D01*
X190876Y148366D01*
X192876Y147029D01*
Y133500D01*
X193352Y132352D01*
X197324Y128380D01*
X197062Y126447D01*
X196391Y125917D01*
X196173Y125827D01*
X196123Y125705D01*
X195846Y125486D01*
X193846Y126149D01*
Y126847D01*
X185153D01*
Y118154D01*
X193846D01*
Y119565D01*
X195846Y119963D01*
X196173Y119173D01*
X199500Y117795D01*
X202827Y119173D01*
X203418Y120600D01*
X205582D01*
X206173Y119173D01*
X209500Y117795D01*
X212827Y119173D01*
X212959Y119492D01*
X214959D01*
X214994Y119408D01*
X218086Y122500D01*
X214994Y125592D01*
X214959Y125507D01*
X212959D01*
X212827Y125827D01*
X209500Y127205D01*
X206173Y125827D01*
X205582Y124400D01*
X203418D01*
X202827Y125827D01*
X201124Y126532D01*
Y128500D01*
X200648Y129648D01*
X196124Y134172D01*
Y147029D01*
X198124Y148366D01*
X199500Y147795D01*
X202827Y149173D01*
X203418Y150600D01*
X205582D01*
X206173Y149173D01*
X209500Y147795D01*
X212827Y149173D01*
X213418Y150600D01*
X215582D01*
X216173Y149173D01*
X219500Y147795D01*
X222827Y149173D01*
X224205Y152500D01*
X222827Y155827D01*
X219500Y157205D01*
X216173Y155827D01*
X215582Y154400D01*
X213418D01*
X212827Y155827D01*
X209500Y157205D01*
X206173Y155827D01*
X205582Y154400D01*
X203418D01*
X202827Y155827D01*
X199500Y157205D01*
X198124Y156634D01*
X196124Y157971D01*
Y164500D01*
X195648Y165648D01*
X194148Y167148D01*
X193000Y167624D01*
X192763D01*
X192183Y169025D01*
X189157Y170278D01*
D02*
G37*
G36*
X238158D02*
X235132Y169025D01*
X233879Y166000D01*
X235132Y162975D01*
X238158Y161722D01*
X241183Y162975D01*
X241976Y163069D01*
X243876Y161360D01*
Y157971D01*
X241876Y156634D01*
X240500Y157205D01*
X237173Y155827D01*
X235795Y152500D01*
X237173Y149173D01*
X240500Y147795D01*
X241876Y148366D01*
X243876Y147029D01*
Y133500D01*
X244352Y132352D01*
X248324Y128380D01*
X248062Y126447D01*
X247391Y125917D01*
X247173Y125827D01*
X247123Y125705D01*
X246847Y125486D01*
X244847Y126149D01*
Y126847D01*
X236154D01*
Y118154D01*
X244847D01*
Y119565D01*
X246847Y119963D01*
X247173Y119173D01*
X250500Y117795D01*
X253827Y119173D01*
X254418Y120600D01*
X256582D01*
X257173Y119173D01*
X260500Y117795D01*
X263827Y119173D01*
X264418Y120600D01*
X266582D01*
X267173Y119173D01*
X270500Y117795D01*
X273827Y119173D01*
X275205Y122500D01*
X273827Y125827D01*
X273206Y126084D01*
Y136294D01*
X281500D01*
X283413Y137087D01*
X285413Y139087D01*
X285413Y139087D01*
X285548Y139413D01*
X286525Y139817D01*
X287778Y142842D01*
X286525Y145868D01*
X283500Y147121D01*
X280475Y145868D01*
X279222Y142842D01*
X278462Y141706D01*
X272000D01*
X270087Y140913D01*
X268587Y139413D01*
X267794Y137500D01*
Y126084D01*
X267173Y125827D01*
X266582Y124400D01*
X264418D01*
X263827Y125827D01*
X260500Y127205D01*
X257173Y125827D01*
X256582Y124400D01*
X254418D01*
X253827Y125827D01*
X252124Y126532D01*
Y128500D01*
X251648Y129648D01*
X247124Y134172D01*
Y146312D01*
X248786Y147423D01*
X250500Y146713D01*
X253592Y147994D01*
X249793Y151793D01*
X250500Y152500D01*
X249793Y153207D01*
X253592Y157006D01*
X250500Y158287D01*
X248786Y157577D01*
X247124Y158688D01*
Y163500D01*
X246648Y164648D01*
X244148Y167148D01*
X243000Y167624D01*
X241763D01*
X241183Y169025D01*
X238158Y170278D01*
D02*
G37*
G36*
X61500Y169275D02*
X58324Y167959D01*
X57008Y164783D01*
X58324Y161608D01*
X61500Y160292D01*
X64676Y161608D01*
X65991Y164783D01*
X64676Y167959D01*
X61500Y169275D01*
D02*
G37*
G36*
X159421Y152787D02*
X155925Y151339D01*
X153925Y151347D01*
Y151347D01*
X145232D01*
Y142654D01*
X153925D01*
X153925Y142654D01*
X155925Y142661D01*
X159421Y141213D01*
X162513Y142494D01*
X158714Y146293D01*
X159421Y147000D01*
X158714Y147707D01*
X162513Y151506D01*
X159421Y152787D01*
D02*
G37*
G36*
X417500Y164705D02*
X414173Y163327D01*
X412795Y160000D01*
X413895Y157346D01*
X413115Y155799D01*
X417500Y151414D01*
X421885Y155799D01*
X421105Y157346D01*
X422205Y160000D01*
X420827Y163327D01*
X417500Y164705D01*
D02*
G37*
G36*
X270500Y157205D02*
X267173Y155827D01*
X266582Y154400D01*
X264418D01*
X263827Y155827D01*
X260500Y157205D01*
X257173Y155827D01*
X257041Y155508D01*
X255041D01*
X255006Y155592D01*
X251914Y152500D01*
X255006Y149408D01*
X255041Y149493D01*
X257041D01*
X257173Y149173D01*
X260500Y147795D01*
X263827Y149173D01*
X264418Y150600D01*
X266582D01*
X267173Y149173D01*
X270500Y147795D01*
X273827Y149173D01*
X275205Y152500D01*
X273827Y155827D01*
X270500Y157205D01*
D02*
G37*
G36*
X48500Y197371D02*
X46500D01*
X43056Y195944D01*
X41629Y192500D01*
X43056Y189056D01*
X44199Y188582D01*
Y186418D01*
X43056Y185944D01*
X41629Y182500D01*
X43056Y179056D01*
X44199Y178582D01*
Y176418D01*
X43056Y175944D01*
X41629Y172500D01*
X43056Y169056D01*
X46500Y167629D01*
X48500D01*
X51944Y169056D01*
X53371Y172500D01*
X51944Y175944D01*
X50801Y176418D01*
Y178582D01*
X51944Y179056D01*
X53371Y182500D01*
X51944Y185944D01*
X50801Y186418D01*
Y188582D01*
X51944Y189056D01*
X53371Y192500D01*
X51944Y195944D01*
X48500Y197371D01*
D02*
G37*
G36*
X418500D02*
X416500D01*
X413056Y195944D01*
X411629Y192500D01*
X413056Y189056D01*
X414199Y188582D01*
Y186418D01*
X413056Y185944D01*
X411629Y182500D01*
X413056Y179056D01*
X414199Y178582D01*
Y176418D01*
X413056Y175944D01*
X411629Y172500D01*
X413056Y169056D01*
X416500Y167629D01*
X418500D01*
X421944Y169056D01*
X423371Y172500D01*
X421944Y175944D01*
X420801Y176418D01*
Y178582D01*
X421944Y179056D01*
X423371Y182500D01*
X421944Y185944D01*
X420801Y186418D01*
Y188582D01*
X421944Y189056D01*
X423371Y192500D01*
X421944Y195944D01*
X418500Y197371D01*
D02*
G37*
G36*
X129921Y169705D02*
X126595Y168327D01*
X126425Y167918D01*
X124425Y168315D01*
Y169346D01*
X115732D01*
Y160653D01*
X124425D01*
Y161685D01*
X126425Y162083D01*
X126595Y161673D01*
X129921Y160295D01*
X133248Y161673D01*
X134626Y165000D01*
X133248Y168327D01*
X129921Y169705D01*
D02*
G37*
G36*
X398500Y169275D02*
X395324Y167959D01*
X394008Y164784D01*
X395324Y161608D01*
X398500Y160292D01*
X401676Y161608D01*
X402991Y164784D01*
X401676Y167959D01*
X398500Y169275D01*
D02*
G37*
G36*
X208842Y170278D02*
X205817Y169025D01*
X204564Y166000D01*
X205817Y162975D01*
X208842Y161722D01*
X211868Y162975D01*
X213121Y166000D01*
X211868Y169025D01*
X208842Y170278D01*
D02*
G37*
G36*
X257842D02*
X254817Y169025D01*
X253564Y166000D01*
X254817Y162975D01*
X257842Y161722D01*
X260868Y162975D01*
X262121Y166000D01*
X260868Y169025D01*
X257842Y170278D01*
D02*
G37*
%LPD*%
D10*
X81000Y349000D02*
X144500D01*
X77000Y345000D02*
X81000Y349000D01*
X283500Y141000D02*
Y142842D01*
X281500Y139000D02*
X283500Y141000D01*
X272000Y139000D02*
X281500D01*
X270500Y137500D02*
X272000Y139000D01*
X270500Y122500D02*
Y137500D01*
X130000Y212000D02*
Y222000D01*
X127000Y225000D02*
X130000Y222000D01*
X77000Y231500D02*
X83500Y225000D01*
X77000Y231500D02*
Y345000D01*
X83500Y225000D02*
X127000D01*
D12*
X297783Y61374D02*
Y88000D01*
Y61374D02*
X300079Y59079D01*
X313000D01*
X147000Y59000D02*
X160000D01*
X162217Y61216D01*
Y88000D01*
D13*
X238158Y166000D02*
X243000D01*
X245500Y133500D02*
Y163500D01*
X250500Y122500D02*
Y128500D01*
X245500Y133500D02*
X250500Y128500D01*
X243000Y166000D02*
X245500Y163500D01*
X194500Y133500D02*
X199500Y128500D01*
X194500Y133500D02*
Y164500D01*
X199500Y122500D02*
Y128500D01*
X193000Y166000D02*
X194500Y164500D01*
X189157Y166000D02*
X193000D01*
D15*
X210000Y52000D02*
D03*
X230000D02*
D03*
X250000Y250000D02*
D03*
X230000D02*
D03*
X179500Y49158D02*
D03*
Y68843D02*
D03*
X280500Y68843D02*
D03*
Y49158D02*
D03*
D16*
X250000Y52000D02*
D03*
X210000Y250000D02*
D03*
D17*
X94500Y185000D02*
D03*
X84500D02*
D03*
X104500D02*
D03*
X365500D02*
D03*
X375500D02*
D03*
X355500D02*
D03*
X385000Y98000D02*
D03*
X375000D02*
D03*
X395000D02*
D03*
X94500Y165000D02*
D03*
X84500D02*
D03*
X104500D02*
D03*
X75000Y98000D02*
D03*
X85000D02*
D03*
X65000D02*
D03*
X365500Y165000D02*
D03*
X375500D02*
D03*
X355500D02*
D03*
D18*
X120079D02*
D03*
X330079D02*
D03*
X300579Y147000D02*
D03*
X149579D02*
D03*
X352000Y207000D02*
D03*
X98000D02*
D03*
D19*
X129921Y165000D02*
D03*
X339921D02*
D03*
X310421Y147000D02*
D03*
X159421D02*
D03*
X42500Y150000D02*
D03*
X417500Y160000D02*
D03*
X313000Y68921D02*
D03*
X147000Y59000D02*
D03*
X240500Y152500D02*
D03*
X250500D02*
D03*
X260500D02*
D03*
X270500D02*
D03*
Y122500D02*
D03*
X260500D02*
D03*
X250500D02*
D03*
X189500Y152500D02*
D03*
X199500D02*
D03*
X209500D02*
D03*
X219500D02*
D03*
Y122500D02*
D03*
X209500D02*
D03*
X199500D02*
D03*
X362000Y207000D02*
D03*
X108000D02*
D03*
X90500Y118000D02*
D03*
X80500D02*
D03*
X70500D02*
D03*
X60500D02*
D03*
Y148000D02*
D03*
X70500Y148000D02*
D03*
X80500D02*
D03*
X399500Y118000D02*
D03*
X389500D02*
D03*
X379500D02*
D03*
X369500D02*
D03*
Y148000D02*
D03*
X379500D02*
D03*
X389500D02*
D03*
X75000Y8500D02*
D03*
D20*
X189157Y166000D02*
D03*
X208842D02*
D03*
X238158D02*
D03*
X257842D02*
D03*
X344843Y142000D02*
D03*
X325157D02*
D03*
X134843D02*
D03*
X115157D02*
D03*
X164342Y123000D02*
D03*
X144658D02*
D03*
X295657D02*
D03*
X315342D02*
D03*
X181524Y110000D02*
D03*
X209476Y100000D02*
D03*
X250524Y110000D02*
D03*
X278476Y100000D02*
D03*
X176500Y123158D02*
D03*
Y142842D02*
D03*
X283500Y123158D02*
D03*
Y142842D02*
D03*
D21*
X332090Y188000D02*
D03*
X169091D02*
D03*
X187500Y329591D02*
D03*
X341910Y364000D02*
D03*
D22*
X290910Y188000D02*
D03*
X127909D02*
D03*
X383090Y364000D02*
D03*
D23*
X42500Y160000D02*
D03*
X417500Y150000D02*
D03*
X313000Y59079D02*
D03*
X147000Y68843D02*
D03*
X240500Y122500D02*
D03*
X189500D02*
D03*
X90500Y148000D02*
D03*
X399500Y148000D02*
D03*
X75000Y18500D02*
D03*
D24*
X238000Y202000D02*
D03*
Y212000D02*
D03*
Y192000D02*
D03*
X218000Y202000D02*
D03*
Y212000D02*
D03*
Y192000D02*
D03*
X47500Y182500D02*
D03*
Y172500D02*
D03*
Y192500D02*
D03*
X417500Y182500D02*
D03*
Y172500D02*
D03*
Y192500D02*
D03*
D25*
X209476Y110000D02*
D03*
X181524Y100000D02*
D03*
X278476Y110000D02*
D03*
X250524Y100000D02*
D03*
D26*
X330000Y212000D02*
D03*
X320000D02*
D03*
X310000D02*
D03*
X150000D02*
D03*
X140000D02*
D03*
X130000D02*
D03*
X184500Y238000D02*
D03*
X164500D02*
D03*
X295500D02*
D03*
X275500D02*
D03*
X184500Y262000D02*
D03*
X164500D02*
D03*
X295500D02*
D03*
X275500D02*
D03*
D27*
X97783Y103500D02*
D03*
X133217D02*
D03*
X362217D02*
D03*
X326783D02*
D03*
X323783Y123000D02*
D03*
X359216D02*
D03*
X136217D02*
D03*
X100784D02*
D03*
X238083Y180000D02*
D03*
X273517D02*
D03*
X219717D02*
D03*
X184283D02*
D03*
X333217Y88000D02*
D03*
X297783D02*
D03*
X162217D02*
D03*
X126783D02*
D03*
X225217D02*
D03*
X189783D02*
D03*
X270217D02*
D03*
X234783D02*
D03*
X168783Y212000D02*
D03*
X204217D02*
D03*
X255783D02*
D03*
X291217D02*
D03*
X323000Y25500D02*
D03*
X343000D02*
D03*
X333000D02*
D03*
X117000D02*
D03*
X137000D02*
D03*
X127000D02*
D03*
X93717Y37000D02*
D03*
X58284D02*
D03*
X192717Y32000D02*
D03*
X157283D02*
D03*
Y18500D02*
D03*
X192717D02*
D03*
X32500Y133417D02*
D03*
Y97983D02*
D03*
X73500Y200217D02*
D03*
Y164783D02*
D03*
X61500Y200217D02*
D03*
Y164783D02*
D03*
X386500Y164784D02*
D03*
Y200217D02*
D03*
X398500Y164784D02*
D03*
Y200217D02*
D03*
X427500Y97983D02*
D03*
Y133416D02*
D03*
X399717Y31500D02*
D03*
X364283D02*
D03*
X302717Y32000D02*
D03*
X267283D02*
D03*
X302717Y18500D02*
D03*
X267283D02*
D03*
D28*
X346000Y68890D02*
D03*
X114000Y55110D02*
D03*
D29*
X346000D02*
D03*
X114000Y68890D02*
D03*
D30*
X363315Y278000D02*
D03*
X57315D02*
D03*
D31*
X402685D02*
D03*
X96685D02*
D03*
D32*
X187500Y288409D02*
D03*
D33*
X294000Y349000D02*
D03*
X272500D02*
D03*
X315500D02*
D03*
X166000D02*
D03*
X144500D02*
D03*
X187500D02*
D03*
D34*
X25000Y358000D02*
D03*
Y22000D02*
D03*
X435000D02*
D03*
Y358000D02*
D03*
M02*
