G04 Layer_Color=8388736*
%FSLAX25Y25*%
%MOIN*%
G70*
G01*
G75*
%ADD47C,0.10642*%
%ADD48R,0.10642X0.10642*%
%ADD49O,0.07800X0.09800*%
%ADD50R,0.07493X0.07493*%
%ADD51C,0.07493*%
%ADD52C,0.06706*%
%ADD53C,0.08674*%
%ADD54R,0.08674X0.08674*%
%ADD55R,0.07493X0.07493*%
%ADD56O,0.09800X0.07800*%
%ADD57R,0.06706X0.06706*%
%ADD58C,0.09461*%
%ADD59C,0.07099*%
%ADD60C,0.07887*%
%ADD61R,0.07887X0.07887*%
%ADD62C,0.18516*%
%ADD63R,0.18516X0.18516*%
%ADD64R,0.08674X0.08674*%
%ADD65C,0.12611*%
%ADD66C,0.23800*%
D47*
X210000Y52000D02*
D03*
X230000D02*
D03*
X250000Y250000D02*
D03*
X230000D02*
D03*
X179500Y49158D02*
D03*
Y68843D02*
D03*
X280500Y68843D02*
D03*
Y49158D02*
D03*
D48*
X250000Y52000D02*
D03*
X210000Y250000D02*
D03*
D49*
X94500Y185000D02*
D03*
X84500D02*
D03*
X104500D02*
D03*
X365500D02*
D03*
X375500D02*
D03*
X355500D02*
D03*
X385000Y98000D02*
D03*
X375000D02*
D03*
X395000D02*
D03*
X94500Y165000D02*
D03*
X84500D02*
D03*
X104500D02*
D03*
X75000Y98000D02*
D03*
X85000D02*
D03*
X65000D02*
D03*
X365500Y165000D02*
D03*
X375500D02*
D03*
X355500D02*
D03*
D50*
X120079D02*
D03*
X330079D02*
D03*
X300579Y147000D02*
D03*
X149579D02*
D03*
X352000Y207000D02*
D03*
X98000D02*
D03*
D51*
X129921Y165000D02*
D03*
X339921D02*
D03*
X310421Y147000D02*
D03*
X159421D02*
D03*
X42500Y150000D02*
D03*
X417500Y160000D02*
D03*
X313000Y68921D02*
D03*
X147000Y59000D02*
D03*
X240500Y152500D02*
D03*
X250500D02*
D03*
X260500D02*
D03*
X270500D02*
D03*
Y122500D02*
D03*
X260500D02*
D03*
X250500D02*
D03*
X189500Y152500D02*
D03*
X199500D02*
D03*
X209500D02*
D03*
X219500D02*
D03*
Y122500D02*
D03*
X209500D02*
D03*
X199500D02*
D03*
X362000Y207000D02*
D03*
X108000D02*
D03*
X90500Y118000D02*
D03*
X80500D02*
D03*
X70500D02*
D03*
X60500D02*
D03*
Y148000D02*
D03*
X70500Y148000D02*
D03*
X80500D02*
D03*
X399500Y118000D02*
D03*
X389500D02*
D03*
X379500D02*
D03*
X369500D02*
D03*
Y148000D02*
D03*
X379500D02*
D03*
X389500D02*
D03*
X75000Y8500D02*
D03*
D52*
X189157Y166000D02*
D03*
X208842D02*
D03*
X238158D02*
D03*
X257842D02*
D03*
X344843Y142000D02*
D03*
X325157D02*
D03*
X134843D02*
D03*
X115157D02*
D03*
X164342Y123000D02*
D03*
X144658D02*
D03*
X295657D02*
D03*
X315342D02*
D03*
X181524Y110000D02*
D03*
X209476Y100000D02*
D03*
X250524Y110000D02*
D03*
X278476Y100000D02*
D03*
X176500Y123158D02*
D03*
Y142842D02*
D03*
X283500Y123158D02*
D03*
Y142842D02*
D03*
D53*
X332090Y188000D02*
D03*
X169091D02*
D03*
X187500Y329591D02*
D03*
X341910Y364000D02*
D03*
D54*
X290910Y188000D02*
D03*
X127909D02*
D03*
X383090Y364000D02*
D03*
D55*
X42500Y160000D02*
D03*
X417500Y150000D02*
D03*
X313000Y59079D02*
D03*
X147000Y68843D02*
D03*
X240500Y122500D02*
D03*
X189500D02*
D03*
X90500Y148000D02*
D03*
X399500Y148000D02*
D03*
X75000Y18500D02*
D03*
D56*
X238000Y202000D02*
D03*
Y212000D02*
D03*
Y192000D02*
D03*
X218000Y202000D02*
D03*
Y212000D02*
D03*
Y192000D02*
D03*
X47500Y182500D02*
D03*
Y172500D02*
D03*
Y192500D02*
D03*
X417500Y182500D02*
D03*
Y172500D02*
D03*
Y192500D02*
D03*
D57*
X209476Y110000D02*
D03*
X181524Y100000D02*
D03*
X278476Y110000D02*
D03*
X250524Y100000D02*
D03*
D58*
X330000Y212000D02*
D03*
X320000D02*
D03*
X310000D02*
D03*
X150000D02*
D03*
X140000D02*
D03*
X130000D02*
D03*
X184500Y238000D02*
D03*
X164500D02*
D03*
X295500D02*
D03*
X275500D02*
D03*
X184500Y262000D02*
D03*
X164500D02*
D03*
X295500D02*
D03*
X275500D02*
D03*
D59*
X97783Y103500D02*
D03*
X133217D02*
D03*
X362217D02*
D03*
X326783D02*
D03*
X323783Y123000D02*
D03*
X359216D02*
D03*
X136217D02*
D03*
X100784D02*
D03*
X238083Y180000D02*
D03*
X273517D02*
D03*
X219717D02*
D03*
X184283D02*
D03*
X333217Y88000D02*
D03*
X297783D02*
D03*
X162217D02*
D03*
X126783D02*
D03*
X225217D02*
D03*
X189783D02*
D03*
X270217D02*
D03*
X234783D02*
D03*
X168783Y212000D02*
D03*
X204217D02*
D03*
X255783D02*
D03*
X291217D02*
D03*
X323000Y25500D02*
D03*
X343000D02*
D03*
X333000D02*
D03*
X117000D02*
D03*
X137000D02*
D03*
X127000D02*
D03*
X93717Y37000D02*
D03*
X58284D02*
D03*
X192717Y32000D02*
D03*
X157283D02*
D03*
Y18500D02*
D03*
X192717D02*
D03*
X32500Y133417D02*
D03*
Y97983D02*
D03*
X73500Y200217D02*
D03*
Y164783D02*
D03*
X61500Y200217D02*
D03*
Y164783D02*
D03*
X386500Y164784D02*
D03*
Y200217D02*
D03*
X398500Y164784D02*
D03*
Y200217D02*
D03*
X427500Y97983D02*
D03*
Y133416D02*
D03*
X399717Y31500D02*
D03*
X364283D02*
D03*
X302717Y32000D02*
D03*
X267283D02*
D03*
X302717Y18500D02*
D03*
X267283D02*
D03*
D60*
X346000Y68890D02*
D03*
X114000Y55110D02*
D03*
D61*
X346000D02*
D03*
X114000Y68890D02*
D03*
D62*
X363315Y278000D02*
D03*
X57315D02*
D03*
D63*
X402685D02*
D03*
X96685D02*
D03*
D64*
X187500Y288409D02*
D03*
D65*
X294000Y349000D02*
D03*
X272500D02*
D03*
X315500D02*
D03*
X166000D02*
D03*
X144500D02*
D03*
X187500D02*
D03*
D66*
X25000Y358000D02*
D03*
Y22000D02*
D03*
X435000D02*
D03*
Y358000D02*
D03*
M02*
