G04 Layer_Color=2752767*
%FSLAX25Y25*%
%MOIN*%
G70*
G01*
G75*
%ADD10C,0.01000*%
%ADD11C,0.00200*%
%ADD12C,0.00267*%
%ADD13C,0.00133*%
D10*
X0Y378000D02*
X460000D01*
X0Y0D02*
X460000D01*
X0D02*
Y378000D01*
X460000Y0D02*
Y378000D01*
X0D02*
X460000D01*
X0Y0D02*
Y378000D01*
X460000Y0D02*
Y378000D01*
X0Y0D02*
X460000D01*
D11*
X209200Y51200D02*
Y52800D01*
X210800D01*
Y51200D01*
X209200D01*
X229200D02*
Y52800D01*
X230800D01*
Y51200D01*
X229200D01*
X249200D02*
Y52800D01*
X250800D01*
Y51200D01*
X249200D01*
X249200Y249200D02*
Y250800D01*
X250800D01*
Y249200D01*
X249200D01*
X229200D02*
Y250800D01*
X230800D01*
Y249200D01*
X229200D01*
X209200D02*
Y250800D01*
X210800D01*
Y249200D01*
X209200D01*
X332090Y187200D02*
X331291Y188800D01*
X332891D01*
X332090Y187200D01*
X290910D02*
X290109Y188800D01*
X291709D01*
X290910Y187200D01*
X179500Y48357D02*
X179900Y48757D01*
X180300D01*
X179900Y49158D01*
X180300Y49558D01*
X179900D01*
X179500Y49957D01*
X179100Y49558D01*
X178700D01*
X179100Y49158D01*
X178700Y48757D01*
X179100D01*
X179500Y48357D01*
Y68042D02*
X179900Y68442D01*
X180300D01*
X179900Y68843D01*
X180300Y69243D01*
X179900D01*
X179500Y69643D01*
X179100Y69243D01*
X178700D01*
X179100Y68843D01*
X178700Y68442D01*
X179100D01*
X179500Y68042D01*
X280500Y68042D02*
X280900Y68442D01*
X281300D01*
X280900Y68843D01*
X281300Y69243D01*
X280900D01*
X280500Y69643D01*
X280100Y69243D01*
X279700D01*
X280100Y68843D01*
X279700Y68442D01*
X280100D01*
X280500Y68042D01*
Y48357D02*
X280900Y48757D01*
X281300D01*
X280900Y49158D01*
X281300Y49558D01*
X280900D01*
X280500Y49957D01*
X280100Y49558D01*
X279700D01*
X280100Y49158D01*
X279700Y48757D01*
X280100D01*
X280500Y48357D01*
X41700Y149200D02*
X42100Y150000D01*
X41700Y150800D01*
X42500Y150400D01*
X43300Y150800D01*
X42900Y150000D01*
X43300Y149200D01*
X42500Y149600D01*
X41700Y149200D01*
Y159200D02*
X42100Y160000D01*
X41700Y160800D01*
X42500Y160400D01*
X43300Y160800D01*
X42900Y160000D01*
X43300Y159200D01*
X42500Y159600D01*
X41700Y159200D01*
X416700Y159200D02*
X417100Y160000D01*
X416700Y160800D01*
X417500Y160400D01*
X418300Y160800D01*
X417900Y160000D01*
X418300Y159200D01*
X417500Y159600D01*
X416700Y159200D01*
Y149200D02*
X417100Y150000D01*
X416700Y150800D01*
X417500Y150400D01*
X418300Y150800D01*
X417900Y150000D01*
X418300Y149200D01*
X417500Y149600D01*
X416700Y149200D01*
X208676Y109200D02*
X209076Y110000D01*
X208676Y110800D01*
X209476Y110400D01*
X210276Y110800D01*
X209876Y110000D01*
X210276Y109200D01*
X209476Y109600D01*
X208676Y109200D01*
X180724D02*
X181124Y110000D01*
X180724Y110800D01*
X181524Y110400D01*
X182324Y110800D01*
X181924Y110000D01*
X182324Y109200D01*
X181524Y109600D01*
X180724Y109200D01*
X361200Y206200D02*
X361600Y207000D01*
X361200Y207800D01*
X362000Y207400D01*
X362800Y207800D01*
X362400Y207000D01*
X362800Y206200D01*
X362000Y206600D01*
X361200Y206200D01*
X351200D02*
X351600Y207000D01*
X351200Y207800D01*
X352000Y207400D01*
X352800Y207800D01*
X352400Y207000D01*
X352800Y206200D01*
X352000Y206600D01*
X351200Y206200D01*
X329600Y211600D02*
Y211200D01*
X330400D01*
Y211600D01*
X330800D01*
Y212400D01*
X330400D01*
Y212800D01*
X329600D01*
Y212400D01*
X329200D01*
Y211600D01*
X329600D01*
X319600D02*
Y211200D01*
X320400D01*
Y211600D01*
X320800D01*
Y212400D01*
X320400D01*
Y212800D01*
X319600D01*
Y212400D01*
X319200D01*
Y211600D01*
X319600D01*
X309600D02*
Y211200D01*
X310400D01*
Y211600D01*
X310800D01*
Y212400D01*
X310400D01*
Y212800D01*
X309600D01*
Y212400D01*
X309200D01*
Y211600D01*
X309600D01*
X107200Y206200D02*
X107600Y207000D01*
X107200Y207800D01*
X108000Y207400D01*
X108800Y207800D01*
X108400Y207000D01*
X108800Y206200D01*
X108000Y206600D01*
X107200Y206200D01*
X97200D02*
X97600Y207000D01*
X97200Y207800D01*
X98000Y207400D01*
X98800Y207800D01*
X98400Y207000D01*
X98800Y206200D01*
X98000Y206600D01*
X97200Y206200D01*
X149600Y211600D02*
Y211200D01*
X150400D01*
Y211600D01*
X150800D01*
Y212400D01*
X150400D01*
Y212800D01*
X149600D01*
Y212400D01*
X149200D01*
Y211600D01*
X149600D01*
X139600D02*
Y211200D01*
X140400D01*
Y211600D01*
X140800D01*
Y212400D01*
X140400D01*
Y212800D01*
X139600D01*
Y212400D01*
X139200D01*
Y211600D01*
X139600D01*
X129600D02*
Y211200D01*
X130400D01*
Y211600D01*
X130800D01*
Y212400D01*
X130400D01*
Y212800D01*
X129600D01*
Y212400D01*
X129200D01*
Y211600D01*
X129600D01*
X184100Y237600D02*
Y237200D01*
X184900D01*
Y237600D01*
X185300D01*
Y238400D01*
X184900D01*
Y238800D01*
X184100D01*
Y238400D01*
X183700D01*
Y237600D01*
X184100D01*
X164100D02*
Y237200D01*
X164900D01*
Y237600D01*
X165300D01*
Y238400D01*
X164900D01*
Y238800D01*
X164100D01*
Y238400D01*
X163700D01*
Y237600D01*
X164100D01*
X295100D02*
Y237200D01*
X295900D01*
Y237600D01*
X296300D01*
Y238400D01*
X295900D01*
Y238800D01*
X295100D01*
Y238400D01*
X294700D01*
Y237600D01*
X295100D01*
X275100D02*
Y237200D01*
X275900D01*
Y237600D01*
X276300D01*
Y238400D01*
X275900D01*
Y238800D01*
X275100D01*
Y238400D01*
X274700D01*
Y237600D01*
X275100D01*
X184100Y261600D02*
Y261200D01*
X184900D01*
Y261600D01*
X185300D01*
Y262400D01*
X184900D01*
Y262800D01*
X184100D01*
Y262400D01*
X183700D01*
Y261600D01*
X184100D01*
X164100D02*
Y261200D01*
X164900D01*
Y261600D01*
X165300D01*
Y262400D01*
X164900D01*
Y262800D01*
X164100D01*
Y262400D01*
X163700D01*
Y261600D01*
X164100D01*
X295100D02*
Y261200D01*
X295900D01*
Y261600D01*
X296300D01*
Y262400D01*
X295900D01*
Y262800D01*
X295100D01*
Y262400D01*
X294700D01*
Y261600D01*
X295100D01*
X275100D02*
Y261200D01*
X275900D01*
Y261600D01*
X276300D01*
Y262400D01*
X275900D01*
Y262800D01*
X275100D01*
Y262400D01*
X274700D01*
Y261600D01*
X275100D01*
X169091Y187200D02*
X168291Y188800D01*
X169891D01*
X169091Y187200D01*
X127909D02*
X127109Y188800D01*
X128709D01*
X127909Y187200D01*
X96983Y102700D02*
X97383D01*
X97783Y103100D01*
X98184Y102700D01*
X98584D01*
Y103100D01*
X98184Y103500D01*
X98584Y103900D01*
Y104300D01*
X98184D01*
X97783Y103900D01*
X97383Y104300D01*
X96983D01*
Y103900D01*
X97383Y103500D01*
X96983Y103100D01*
Y102700D01*
X132417D02*
X132817D01*
X133217Y103100D01*
X133617Y102700D01*
X134017D01*
Y103100D01*
X133617Y103500D01*
X134017Y103900D01*
Y104300D01*
X133617D01*
X133217Y103900D01*
X132817Y104300D01*
X132417D01*
Y103900D01*
X132817Y103500D01*
X132417Y103100D01*
Y102700D01*
X361417D02*
X361817D01*
X362217Y103100D01*
X362617Y102700D01*
X363017D01*
Y103100D01*
X362617Y103500D01*
X363017Y103900D01*
Y104300D01*
X362617D01*
X362217Y103900D01*
X361817Y104300D01*
X361417D01*
Y103900D01*
X361817Y103500D01*
X361417Y103100D01*
Y102700D01*
X325983D02*
X326383D01*
X326783Y103100D01*
X327183Y102700D01*
X327583D01*
Y103100D01*
X327183Y103500D01*
X327583Y103900D01*
Y104300D01*
X327183D01*
X326783Y103900D01*
X326383Y104300D01*
X325983D01*
Y103900D01*
X326383Y103500D01*
X325983Y103100D01*
Y102700D01*
X322984Y122200D02*
X323383D01*
X323783Y122600D01*
X324184Y122200D01*
X324584D01*
Y122600D01*
X324184Y123000D01*
X324584Y123400D01*
Y123800D01*
X324184D01*
X323783Y123400D01*
X323383Y123800D01*
X322984D01*
Y123400D01*
X323383Y123000D01*
X322984Y122600D01*
Y122200D01*
X358417D02*
X358817D01*
X359216Y122600D01*
X359616Y122200D01*
X360016D01*
Y122600D01*
X359616Y123000D01*
X360016Y123400D01*
Y123800D01*
X359616D01*
X359216Y123400D01*
X358817Y123800D01*
X358417D01*
Y123400D01*
X358817Y123000D01*
X358417Y122600D01*
Y122200D01*
X135417D02*
X135817D01*
X136217Y122600D01*
X136617Y122200D01*
X137017D01*
Y122600D01*
X136617Y123000D01*
X137017Y123400D01*
Y123800D01*
X136617D01*
X136217Y123400D01*
X135817Y123800D01*
X135417D01*
Y123400D01*
X135817Y123000D01*
X135417Y122600D01*
Y122200D01*
X99984D02*
X100383D01*
X100784Y122600D01*
X101183Y122200D01*
X101584D01*
Y122600D01*
X101183Y123000D01*
X101584Y123400D01*
Y123800D01*
X101183D01*
X100784Y123400D01*
X100383Y123800D01*
X99984D01*
Y123400D01*
X100383Y123000D01*
X99984Y122600D01*
Y122200D01*
X237283Y179200D02*
X237683D01*
X238083Y179600D01*
X238483Y179200D01*
X238883D01*
Y179600D01*
X238483Y180000D01*
X238883Y180400D01*
Y180800D01*
X238483D01*
X238083Y180400D01*
X237683Y180800D01*
X237283D01*
Y180400D01*
X237683Y180000D01*
X237283Y179600D01*
Y179200D01*
X272717D02*
X273117D01*
X273517Y179600D01*
X273917Y179200D01*
X274317D01*
Y179600D01*
X273917Y180000D01*
X274317Y180400D01*
Y180800D01*
X273917D01*
X273517Y180400D01*
X273117Y180800D01*
X272717D01*
Y180400D01*
X273117Y180000D01*
X272717Y179600D01*
Y179200D01*
X218917D02*
X219317D01*
X219717Y179600D01*
X220117Y179200D01*
X220517D01*
Y179600D01*
X220117Y180000D01*
X220517Y180400D01*
Y180800D01*
X220117D01*
X219717Y180400D01*
X219317Y180800D01*
X218917D01*
Y180400D01*
X219317Y180000D01*
X218917Y179600D01*
Y179200D01*
X183483D02*
X183883D01*
X184283Y179600D01*
X184683Y179200D01*
X185083D01*
Y179600D01*
X184683Y180000D01*
X185083Y180400D01*
Y180800D01*
X184683D01*
X184283Y180400D01*
X183883Y180800D01*
X183483D01*
Y180400D01*
X183883Y180000D01*
X183483Y179600D01*
Y179200D01*
X332417Y87200D02*
X332817D01*
X333217Y87600D01*
X333617Y87200D01*
X334017D01*
Y87600D01*
X333617Y88000D01*
X334017Y88400D01*
Y88800D01*
X333617D01*
X333217Y88400D01*
X332817Y88800D01*
X332417D01*
Y88400D01*
X332817Y88000D01*
X332417Y87600D01*
Y87200D01*
X296983D02*
X297383D01*
X297783Y87600D01*
X298183Y87200D01*
X298583D01*
Y87600D01*
X298183Y88000D01*
X298583Y88400D01*
Y88800D01*
X298183D01*
X297783Y88400D01*
X297383Y88800D01*
X296983D01*
Y88400D01*
X297383Y88000D01*
X296983Y87600D01*
Y87200D01*
X161417D02*
X161817D01*
X162217Y87600D01*
X162617Y87200D01*
X163017D01*
Y87600D01*
X162617Y88000D01*
X163017Y88400D01*
Y88800D01*
X162617D01*
X162217Y88400D01*
X161817Y88800D01*
X161417D01*
Y88400D01*
X161817Y88000D01*
X161417Y87600D01*
Y87200D01*
X125983D02*
X126383D01*
X126783Y87600D01*
X127183Y87200D01*
X127583D01*
Y87600D01*
X127183Y88000D01*
X127583Y88400D01*
Y88800D01*
X127183D01*
X126783Y88400D01*
X126383Y88800D01*
X125983D01*
Y88400D01*
X126383Y88000D01*
X125983Y87600D01*
Y87200D01*
X224417D02*
X224817D01*
X225217Y87600D01*
X225617Y87200D01*
X226017D01*
Y87600D01*
X225617Y88000D01*
X226017Y88400D01*
Y88800D01*
X225617D01*
X225217Y88400D01*
X224817Y88800D01*
X224417D01*
Y88400D01*
X224817Y88000D01*
X224417Y87600D01*
Y87200D01*
X188983D02*
X189383D01*
X189783Y87600D01*
X190183Y87200D01*
X190583D01*
Y87600D01*
X190183Y88000D01*
X190583Y88400D01*
Y88800D01*
X190183D01*
X189783Y88400D01*
X189383Y88800D01*
X188983D01*
Y88400D01*
X189383Y88000D01*
X188983Y87600D01*
Y87200D01*
X269417D02*
X269817D01*
X270217Y87600D01*
X270617Y87200D01*
X271017D01*
Y87600D01*
X270617Y88000D01*
X271017Y88400D01*
Y88800D01*
X270617D01*
X270217Y88400D01*
X269817Y88800D01*
X269417D01*
Y88400D01*
X269817Y88000D01*
X269417Y87600D01*
Y87200D01*
X233983D02*
X234383D01*
X234783Y87600D01*
X235183Y87200D01*
X235583D01*
Y87600D01*
X235183Y88000D01*
X235583Y88400D01*
Y88800D01*
X235183D01*
X234783Y88400D01*
X234383Y88800D01*
X233983D01*
Y88400D01*
X234383Y88000D01*
X233983Y87600D01*
Y87200D01*
X167983Y211200D02*
X168383D01*
X168783Y211600D01*
X169183Y211200D01*
X169583D01*
Y211600D01*
X169183Y212000D01*
X169583Y212400D01*
Y212800D01*
X169183D01*
X168783Y212400D01*
X168383Y212800D01*
X167983D01*
Y212400D01*
X168383Y212000D01*
X167983Y211600D01*
Y211200D01*
X203417D02*
X203817D01*
X204217Y211600D01*
X204617Y211200D01*
X205017D01*
Y211600D01*
X204617Y212000D01*
X205017Y212400D01*
Y212800D01*
X204617D01*
X204217Y212400D01*
X203817Y212800D01*
X203417D01*
Y212400D01*
X203817Y212000D01*
X203417Y211600D01*
Y211200D01*
X254983D02*
X255383D01*
X255783Y211600D01*
X256183Y211200D01*
X256583D01*
Y211600D01*
X256183Y212000D01*
X256583Y212400D01*
Y212800D01*
X256183D01*
X255783Y212400D01*
X255383Y212800D01*
X254983D01*
Y212400D01*
X255383Y212000D01*
X254983Y211600D01*
Y211200D01*
X290417D02*
X290817D01*
X291217Y211600D01*
X291617Y211200D01*
X292017D01*
Y211600D01*
X291617Y212000D01*
X292017Y212400D01*
Y212800D01*
X291617D01*
X291217Y212400D01*
X290817Y212800D01*
X290417D01*
Y212400D01*
X290817Y212000D01*
X290417Y211600D01*
Y211200D01*
X322200Y24700D02*
X322600D01*
X323000Y25100D01*
X323400Y24700D01*
X323800D01*
Y25100D01*
X323400Y25500D01*
X323800Y25900D01*
Y26300D01*
X323400D01*
X323000Y25900D01*
X322600Y26300D01*
X322200D01*
Y25900D01*
X322600Y25500D01*
X322200Y25100D01*
Y24700D01*
X342200D02*
X342600D01*
X343000Y25100D01*
X343400Y24700D01*
X343800D01*
Y25100D01*
X343400Y25500D01*
X343800Y25900D01*
Y26300D01*
X343400D01*
X343000Y25900D01*
X342600Y26300D01*
X342200D01*
Y25900D01*
X342600Y25500D01*
X342200Y25100D01*
Y24700D01*
X332200D02*
X332600D01*
X333000Y25100D01*
X333400Y24700D01*
X333800D01*
Y25100D01*
X333400Y25500D01*
X333800Y25900D01*
Y26300D01*
X333400D01*
X333000Y25900D01*
X332600Y26300D01*
X332200D01*
Y25900D01*
X332600Y25500D01*
X332200Y25100D01*
Y24700D01*
X116200D02*
X116600D01*
X117000Y25100D01*
X117400Y24700D01*
X117800D01*
Y25100D01*
X117400Y25500D01*
X117800Y25900D01*
Y26300D01*
X117400D01*
X117000Y25900D01*
X116600Y26300D01*
X116200D01*
Y25900D01*
X116600Y25500D01*
X116200Y25100D01*
Y24700D01*
X136200D02*
X136600D01*
X137000Y25100D01*
X137400Y24700D01*
X137800D01*
Y25100D01*
X137400Y25500D01*
X137800Y25900D01*
Y26300D01*
X137400D01*
X137000Y25900D01*
X136600Y26300D01*
X136200D01*
Y25900D01*
X136600Y25500D01*
X136200Y25100D01*
Y24700D01*
X126200D02*
X126600D01*
X127000Y25100D01*
X127400Y24700D01*
X127800D01*
Y25100D01*
X127400Y25500D01*
X127800Y25900D01*
Y26300D01*
X127400D01*
X127000Y25900D01*
X126600Y26300D01*
X126200D01*
Y25900D01*
X126600Y25500D01*
X126200Y25100D01*
Y24700D01*
X345200Y68090D02*
X345600Y68890D01*
X345200Y69690D01*
X346000Y69290D01*
X346800Y69690D01*
X346400Y68890D01*
X346800Y68090D01*
X346000Y68490D01*
X345200Y68090D01*
Y54310D02*
X345600Y55110D01*
X345200Y55910D01*
X346000Y55510D01*
X346800Y55910D01*
X346400Y55110D01*
X346800Y54310D01*
X346000Y54710D01*
X345200Y54310D01*
X113200D02*
X113600Y55110D01*
X113200Y55910D01*
X114000Y55510D01*
X114800Y55910D01*
X114400Y55110D01*
X114800Y54310D01*
X114000Y54710D01*
X113200Y54310D01*
Y68090D02*
X113600Y68890D01*
X113200Y69690D01*
X114000Y69290D01*
X114800Y69690D01*
X114400Y68890D01*
X114800Y68090D01*
X114000Y68490D01*
X113200Y68090D01*
X92917Y36200D02*
X93317D01*
X93717Y36600D01*
X94116Y36200D01*
X94516D01*
Y36600D01*
X94116Y37000D01*
X94516Y37400D01*
Y37800D01*
X94116D01*
X93717Y37400D01*
X93317Y37800D01*
X92917D01*
Y37400D01*
X93317Y37000D01*
X92917Y36600D01*
Y36200D01*
X57484D02*
X57884D01*
X58284Y36600D01*
X58684Y36200D01*
X59083D01*
Y36600D01*
X58684Y37000D01*
X59083Y37400D01*
Y37800D01*
X58684D01*
X58284Y37400D01*
X57884Y37800D01*
X57484D01*
Y37400D01*
X57884Y37000D01*
X57484Y36600D01*
Y36200D01*
X191917Y31200D02*
X192317D01*
X192717Y31600D01*
X193117Y31200D01*
X193517D01*
Y31600D01*
X193117Y32000D01*
X193517Y32400D01*
Y32800D01*
X193117D01*
X192717Y32400D01*
X192317Y32800D01*
X191917D01*
Y32400D01*
X192317Y32000D01*
X191917Y31600D01*
Y31200D01*
X156483D02*
X156883D01*
X157283Y31600D01*
X157683Y31200D01*
X158083D01*
Y31600D01*
X157683Y32000D01*
X158083Y32400D01*
Y32800D01*
X157683D01*
X157283Y32400D01*
X156883Y32800D01*
X156483D01*
Y32400D01*
X156883Y32000D01*
X156483Y31600D01*
Y31200D01*
Y17700D02*
X156883D01*
X157283Y18100D01*
X157683Y17700D01*
X158083D01*
Y18100D01*
X157683Y18500D01*
X158083Y18900D01*
Y19300D01*
X157683D01*
X157283Y18900D01*
X156883Y19300D01*
X156483D01*
Y18900D01*
X156883Y18500D01*
X156483Y18100D01*
Y17700D01*
X191917D02*
X192317D01*
X192717Y18100D01*
X193117Y17700D01*
X193517D01*
Y18100D01*
X193117Y18500D01*
X193517Y18900D01*
Y19300D01*
X193117D01*
X192717Y18900D01*
X192317Y19300D01*
X191917D01*
Y18900D01*
X192317Y18500D01*
X191917Y18100D01*
Y17700D01*
X31700Y132617D02*
X32100D01*
X32500Y133017D01*
X32900Y132617D01*
X33300D01*
Y133017D01*
X32900Y133417D01*
X33300Y133817D01*
Y134217D01*
X32900D01*
X32500Y133817D01*
X32100Y134217D01*
X31700D01*
Y133817D01*
X32100Y133417D01*
X31700Y133017D01*
Y132617D01*
Y97184D02*
X32100D01*
X32500Y97584D01*
X32900Y97184D01*
X33300D01*
Y97584D01*
X32900Y97983D01*
X33300Y98383D01*
Y98783D01*
X32900D01*
X32500Y98383D01*
X32100Y98783D01*
X31700D01*
Y98383D01*
X32100Y97983D01*
X31700Y97584D01*
Y97184D01*
X72700Y199417D02*
X73100D01*
X73500Y199817D01*
X73900Y199417D01*
X74300D01*
Y199817D01*
X73900Y200217D01*
X74300Y200617D01*
Y201017D01*
X73900D01*
X73500Y200617D01*
X73100Y201017D01*
X72700D01*
Y200617D01*
X73100Y200217D01*
X72700Y199817D01*
Y199417D01*
Y163983D02*
X73100D01*
X73500Y164383D01*
X73900Y163983D01*
X74300D01*
Y164383D01*
X73900Y164783D01*
X74300Y165183D01*
Y165583D01*
X73900D01*
X73500Y165183D01*
X73100Y165583D01*
X72700D01*
Y165183D01*
X73100Y164783D01*
X72700Y164383D01*
Y163983D01*
X60700Y199417D02*
X61100D01*
X61500Y199817D01*
X61900Y199417D01*
X62300D01*
Y199817D01*
X61900Y200217D01*
X62300Y200617D01*
Y201017D01*
X61900D01*
X61500Y200617D01*
X61100Y201017D01*
X60700D01*
Y200617D01*
X61100Y200217D01*
X60700Y199817D01*
Y199417D01*
Y163983D02*
X61100D01*
X61500Y164383D01*
X61900Y163983D01*
X62300D01*
Y164383D01*
X61900Y164783D01*
X62300Y165183D01*
Y165583D01*
X61900D01*
X61500Y165183D01*
X61100Y165583D01*
X60700D01*
Y165183D01*
X61100Y164783D01*
X60700Y164383D01*
Y163983D01*
X385700Y163984D02*
X386100D01*
X386500Y164383D01*
X386900Y163984D01*
X387300D01*
Y164383D01*
X386900Y164784D01*
X387300Y165183D01*
Y165584D01*
X386900D01*
X386500Y165183D01*
X386100Y165584D01*
X385700D01*
Y165183D01*
X386100Y164784D01*
X385700Y164383D01*
Y163984D01*
Y199416D02*
X386100D01*
X386500Y199817D01*
X386900Y199416D01*
X387300D01*
Y199817D01*
X386900Y200217D01*
X387300Y200617D01*
Y201016D01*
X386900D01*
X386500Y200617D01*
X386100Y201016D01*
X385700D01*
Y200617D01*
X386100Y200217D01*
X385700Y199817D01*
Y199416D01*
X397700Y163984D02*
X398100D01*
X398500Y164383D01*
X398900Y163984D01*
X399300D01*
Y164383D01*
X398900Y164784D01*
X399300Y165183D01*
Y165584D01*
X398900D01*
X398500Y165183D01*
X398100Y165584D01*
X397700D01*
Y165183D01*
X398100Y164784D01*
X397700Y164383D01*
Y163984D01*
Y199416D02*
X398100D01*
X398500Y199817D01*
X398900Y199416D01*
X399300D01*
Y199817D01*
X398900Y200217D01*
X399300Y200617D01*
Y201016D01*
X398900D01*
X398500Y200617D01*
X398100Y201016D01*
X397700D01*
Y200617D01*
X398100Y200217D01*
X397700Y199817D01*
Y199416D01*
X426700Y97184D02*
X427100D01*
X427500Y97584D01*
X427900Y97184D01*
X428300D01*
Y97584D01*
X427900Y97983D01*
X428300Y98383D01*
Y98783D01*
X427900D01*
X427500Y98383D01*
X427100Y98783D01*
X426700D01*
Y98383D01*
X427100Y97983D01*
X426700Y97584D01*
Y97184D01*
Y132616D02*
X427100D01*
X427500Y133017D01*
X427900Y132616D01*
X428300D01*
Y133017D01*
X427900Y133416D01*
X428300Y133817D01*
Y134216D01*
X427900D01*
X427500Y133817D01*
X427100Y134216D01*
X426700D01*
Y133817D01*
X427100Y133416D01*
X426700Y133017D01*
Y132616D01*
X398917Y30700D02*
X399317D01*
X399717Y31100D01*
X400117Y30700D01*
X400517D01*
Y31100D01*
X400117Y31500D01*
X400517Y31900D01*
Y32300D01*
X400117D01*
X399717Y31900D01*
X399317Y32300D01*
X398917D01*
Y31900D01*
X399317Y31500D01*
X398917Y31100D01*
Y30700D01*
X363483D02*
X363883D01*
X364283Y31100D01*
X364683Y30700D01*
X365083D01*
Y31100D01*
X364683Y31500D01*
X365083Y31900D01*
Y32300D01*
X364683D01*
X364283Y31900D01*
X363883Y32300D01*
X363483D01*
Y31900D01*
X363883Y31500D01*
X363483Y31100D01*
Y30700D01*
X301917Y31200D02*
X302317D01*
X302717Y31600D01*
X303117Y31200D01*
X303517D01*
Y31600D01*
X303117Y32000D01*
X303517Y32400D01*
Y32800D01*
X303117D01*
X302717Y32400D01*
X302317Y32800D01*
X301917D01*
Y32400D01*
X302317Y32000D01*
X301917Y31600D01*
Y31200D01*
X266483D02*
X266883D01*
X267283Y31600D01*
X267683Y31200D01*
X268083D01*
Y31600D01*
X267683Y32000D01*
X268083Y32400D01*
Y32800D01*
X267683D01*
X267283Y32400D01*
X266883Y32800D01*
X266483D01*
Y32400D01*
X266883Y32000D01*
X266483Y31600D01*
Y31200D01*
X301917Y17700D02*
X302317D01*
X302717Y18100D01*
X303117Y17700D01*
X303517D01*
Y18100D01*
X303117Y18500D01*
X303517Y18900D01*
Y19300D01*
X303117D01*
X302717Y18900D01*
X302317Y19300D01*
X301917D01*
Y18900D01*
X302317Y18500D01*
X301917Y18100D01*
Y17700D01*
X266483D02*
X266883D01*
X267283Y18100D01*
X267683Y17700D01*
X268083D01*
Y18100D01*
X267683Y18500D01*
X268083Y18900D01*
Y19300D01*
X267683D01*
X267283Y18900D01*
X266883Y19300D01*
X266483D01*
Y18900D01*
X266883Y18500D01*
X266483Y18100D01*
Y17700D01*
X362515Y278000D02*
X363315Y278800D01*
X364115Y278000D01*
X363315Y277200D01*
X362515Y278000D01*
X401885D02*
X402685Y278800D01*
X403485Y278000D01*
X402685Y277200D01*
X401885Y278000D01*
X187500Y328790D02*
X186700Y330391D01*
X188300D01*
X187500Y328790D01*
Y287610D02*
X186700Y289210D01*
X188300D01*
X187500Y287610D01*
X341910Y363200D02*
X341109Y364800D01*
X342709D01*
X341910Y363200D01*
X383090D02*
X382291Y364800D01*
X383891D01*
X383090Y363200D01*
X293200Y348200D02*
Y349800D01*
X294800D01*
Y348200D01*
X293200D01*
X293600Y348600D02*
Y349400D01*
X294400D01*
Y348600D01*
X293600D01*
X271700Y348200D02*
Y349800D01*
X273300D01*
Y348200D01*
X271700D01*
X272100Y348600D02*
Y349400D01*
X272900D01*
Y348600D01*
X272100D01*
X314700Y348200D02*
Y349800D01*
X316300D01*
Y348200D01*
X314700D01*
X315100Y348600D02*
Y349400D01*
X315900D01*
Y348600D01*
X315100D01*
X165200Y348200D02*
Y349800D01*
X166800D01*
Y348200D01*
X165200D01*
X165600Y348600D02*
Y349400D01*
X166400D01*
Y348600D01*
X165600D01*
X143700Y348200D02*
Y349800D01*
X145300D01*
Y348200D01*
X143700D01*
X144100Y348600D02*
Y349400D01*
X144900D01*
Y348600D01*
X144100D01*
X186700Y348200D02*
Y349800D01*
X188300D01*
Y348200D01*
X186700D01*
X187100Y348600D02*
Y349400D01*
X187900D01*
Y348600D01*
X187100D01*
X56515Y278000D02*
X57315Y278800D01*
X58115Y278000D01*
X57315Y277200D01*
X56515Y278000D01*
X95885D02*
X96685Y278800D01*
X97485Y278000D01*
X96685Y277200D01*
X95885Y278000D01*
X74200Y7700D02*
X74600Y8500D01*
X74200Y9300D01*
X75000Y8900D01*
X75800Y9300D01*
X75400Y8500D01*
X75800Y7700D01*
X75000Y8100D01*
X74200Y7700D01*
Y17700D02*
X74600Y18500D01*
X74200Y19300D01*
X75000Y18900D01*
X75800Y19300D01*
X75400Y18500D01*
X75800Y17700D01*
X75000Y18100D01*
X74200Y17700D01*
X180724Y99200D02*
X181124Y100000D01*
X180724Y100800D01*
X181524Y100400D01*
X182324Y100800D01*
X181924Y100000D01*
X182324Y99200D01*
X181524Y99600D01*
X180724Y99200D01*
X208676D02*
X209076Y100000D01*
X208676Y100800D01*
X209476Y100400D01*
X210276Y100800D01*
X209876Y100000D01*
X210276Y99200D01*
X209476Y99600D01*
X208676Y99200D01*
X277676Y109200D02*
X278076Y110000D01*
X277676Y110800D01*
X278476Y110400D01*
X279276Y110800D01*
X278876Y110000D01*
X279276Y109200D01*
X278476Y109600D01*
X277676Y109200D01*
X249724D02*
X250124Y110000D01*
X249724Y110800D01*
X250524Y110400D01*
X251324Y110800D01*
X250924Y110000D01*
X251324Y109200D01*
X250524Y109600D01*
X249724Y109200D01*
Y99200D02*
X250124Y100000D01*
X249724Y100800D01*
X250524Y100400D01*
X251324Y100800D01*
X250924Y100000D01*
X251324Y99200D01*
X250524Y99600D01*
X249724Y99200D01*
X277676D02*
X278076Y100000D01*
X277676Y100800D01*
X278476Y100400D01*
X279276Y100800D01*
X278876Y100000D01*
X279276Y99200D01*
X278476Y99600D01*
X277676Y99200D01*
D12*
X95300Y185000D02*
G03*
X95300Y185000I-800J0D01*
G01*
X85300D02*
G03*
X85300Y185000I-800J0D01*
G01*
X105300D02*
G03*
X105300Y185000I-800J0D01*
G01*
X366300D02*
G03*
X366300Y185000I-800J0D01*
G01*
X376300D02*
G03*
X376300Y185000I-800J0D01*
G01*
X356300D02*
G03*
X356300Y185000I-800J0D01*
G01*
X120879Y165000D02*
G03*
X120879Y165000I-800J0D01*
G01*
X130721D02*
G03*
X130721Y165000I-800J0D01*
G01*
X330879D02*
G03*
X330879Y165000I-800J0D01*
G01*
X340721D02*
G03*
X340721Y165000I-800J0D01*
G01*
X301379Y147000D02*
G03*
X301379Y147000I-800J0D01*
G01*
X311221D02*
G03*
X311221Y147000I-800J0D01*
G01*
X150379D02*
G03*
X150379Y147000I-800J0D01*
G01*
X160221D02*
G03*
X160221Y147000I-800J0D01*
G01*
X189957Y166000D02*
G03*
X189957Y166000I-800J0D01*
G01*
X209643D02*
G03*
X209643Y166000I-800J0D01*
G01*
X238958D02*
G03*
X238958Y166000I-800J0D01*
G01*
X258643D02*
G03*
X258643Y166000I-800J0D01*
G01*
X345642Y142000D02*
G03*
X345642Y142000I-800J0D01*
G01*
X325957D02*
G03*
X325957Y142000I-800J0D01*
G01*
X135643D02*
G03*
X135643Y142000I-800J0D01*
G01*
X115957D02*
G03*
X115957Y142000I-800J0D01*
G01*
X165143Y123000D02*
G03*
X165143Y123000I-800J0D01*
G01*
X145457D02*
G03*
X145457Y123000I-800J0D01*
G01*
X296458D02*
G03*
X296458Y123000I-800J0D01*
G01*
X316143D02*
G03*
X316143Y123000I-800J0D01*
G01*
X313800Y68921D02*
G03*
X313800Y68921I-800J0D01*
G01*
Y59079D02*
G03*
X313800Y59079I-800J0D01*
G01*
X147800Y59000D02*
G03*
X147800Y59000I-800J0D01*
G01*
Y68843D02*
G03*
X147800Y68843I-800J0D01*
G01*
X238800Y202000D02*
G03*
X238800Y202000I-800J0D01*
G01*
Y212000D02*
G03*
X238800Y212000I-800J0D01*
G01*
Y192000D02*
G03*
X238800Y192000I-800J0D01*
G01*
X218800Y202000D02*
G03*
X218800Y202000I-800J0D01*
G01*
Y212000D02*
G03*
X218800Y212000I-800J0D01*
G01*
Y192000D02*
G03*
X218800Y192000I-800J0D01*
G01*
X241300Y152500D02*
G03*
X241300Y152500I-800J0D01*
G01*
X251300D02*
G03*
X251300Y152500I-800J0D01*
G01*
X261300D02*
G03*
X261300Y152500I-800J0D01*
G01*
X271300D02*
G03*
X271300Y152500I-800J0D01*
G01*
Y122500D02*
G03*
X271300Y122500I-800J0D01*
G01*
X261300D02*
G03*
X261300Y122500I-800J0D01*
G01*
X251300D02*
G03*
X251300Y122500I-800J0D01*
G01*
X241300D02*
G03*
X241300Y122500I-800J0D01*
G01*
X190300Y152500D02*
G03*
X190300Y152500I-800J0D01*
G01*
X200300D02*
G03*
X200300Y152500I-800J0D01*
G01*
X210300D02*
G03*
X210300Y152500I-800J0D01*
G01*
X220300D02*
G03*
X220300Y152500I-800J0D01*
G01*
Y122500D02*
G03*
X220300Y122500I-800J0D01*
G01*
X210300D02*
G03*
X210300Y122500I-800J0D01*
G01*
X200300D02*
G03*
X200300Y122500I-800J0D01*
G01*
X190300D02*
G03*
X190300Y122500I-800J0D01*
G01*
X48300Y182500D02*
G03*
X48300Y182500I-800J0D01*
G01*
Y172500D02*
G03*
X48300Y172500I-800J0D01*
G01*
Y192500D02*
G03*
X48300Y192500I-800J0D01*
G01*
X418300Y182500D02*
G03*
X418300Y182500I-800J0D01*
G01*
Y172500D02*
G03*
X418300Y172500I-800J0D01*
G01*
Y192500D02*
G03*
X418300Y192500I-800J0D01*
G01*
X91300Y118000D02*
G03*
X91300Y118000I-800J0D01*
G01*
X81300D02*
G03*
X81300Y118000I-800J0D01*
G01*
X71300D02*
G03*
X71300Y118000I-800J0D01*
G01*
X61300D02*
G03*
X61300Y118000I-800J0D01*
G01*
Y148000D02*
G03*
X61300Y148000I-800J0D01*
G01*
X71300Y148000D02*
G03*
X71300Y148000I-800J0D01*
G01*
X81300D02*
G03*
X81300Y148000I-800J0D01*
G01*
X91300Y148000D02*
G03*
X91300Y148000I-800J0D01*
G01*
X400300Y118000D02*
G03*
X400300Y118000I-800J0D01*
G01*
X390300D02*
G03*
X390300Y118000I-800J0D01*
G01*
X380300D02*
G03*
X380300Y118000I-800J0D01*
G01*
X370300D02*
G03*
X370300Y118000I-800J0D01*
G01*
Y148000D02*
G03*
X370300Y148000I-800J0D01*
G01*
X380300D02*
G03*
X380300Y148000I-800J0D01*
G01*
X390300D02*
G03*
X390300Y148000I-800J0D01*
G01*
X400300D02*
G03*
X400300Y148000I-800J0D01*
G01*
X385800Y98000D02*
G03*
X385800Y98000I-800J0D01*
G01*
X375800D02*
G03*
X375800Y98000I-800J0D01*
G01*
X395800D02*
G03*
X395800Y98000I-800J0D01*
G01*
X95300Y165000D02*
G03*
X95300Y165000I-800J0D01*
G01*
X85300D02*
G03*
X85300Y165000I-800J0D01*
G01*
X105300D02*
G03*
X105300Y165000I-800J0D01*
G01*
X75800Y98000D02*
G03*
X75800Y98000I-800J0D01*
G01*
X85800D02*
G03*
X85800Y98000I-800J0D01*
G01*
X65800D02*
G03*
X65800Y98000I-800J0D01*
G01*
X366300Y165000D02*
G03*
X366300Y165000I-800J0D01*
G01*
X376300D02*
G03*
X376300Y165000I-800J0D01*
G01*
X356300D02*
G03*
X356300Y165000I-800J0D01*
G01*
X25800Y358000D02*
G03*
X25800Y358000I-800J0D01*
G01*
Y22000D02*
G03*
X25800Y22000I-800J0D01*
G01*
X435800D02*
G03*
X435800Y22000I-800J0D01*
G01*
Y358000D02*
G03*
X435800Y358000I-800J0D01*
G01*
X177300Y123158D02*
G03*
X177300Y123158I-800J0D01*
G01*
Y142842D02*
G03*
X177300Y142842I-800J0D01*
G01*
X284300Y123158D02*
G03*
X284300Y123158I-800J0D01*
G01*
Y142842D02*
G03*
X284300Y142842I-800J0D01*
G01*
D13*
X25400Y358000D02*
G03*
X25400Y358000I-400J0D01*
G01*
Y22000D02*
G03*
X25400Y22000I-400J0D01*
G01*
X435400D02*
G03*
X435400Y22000I-400J0D01*
G01*
Y358000D02*
G03*
X435400Y358000I-400J0D01*
G01*
M02*
