G04 Layer_Color=16777215*
%FSLAX25Y25*%
%MOIN*%
G70*
G01*
G75*
%ADD13C,0.01000*%
%ADD35C,0.00800*%
%ADD36C,0.00787*%
%ADD37C,0.01984*%
%ADD38C,0.02000*%
%ADD39C,0.01500*%
%ADD40C,0.06000*%
%ADD41C,0.02968*%
%ADD42C,0.00500*%
%ADD43R,0.16000X0.23500*%
%ADD44R,0.03150X0.11024*%
%ADD45R,0.03150X0.07480*%
%ADD46R,0.11024X0.03150*%
D13*
X137992Y165000D02*
G03*
X137992Y165000I-12992J0D01*
G01*
X347992D02*
G03*
X347992Y165000I-12992J0D01*
G01*
X318492Y147000D02*
G03*
X318492Y147000I-12992J0D01*
G01*
X167492D02*
G03*
X167492Y147000I-12992J0D01*
G01*
X46535Y148368D02*
G03*
X38612Y148226I-4082J6695D01*
G01*
X413465Y161632D02*
G03*
X421388Y161774I4082J-6695D01*
G01*
X325992Y64000D02*
G03*
X325992Y64000I-12992J0D01*
G01*
X159992Y63921D02*
G03*
X159992Y63921I-12992J0D01*
G01*
X240500Y137500D02*
G03*
X237500Y140500I-3000J0D01*
G01*
Y134500D02*
G03*
X240500Y137500I0J3000D01*
G01*
X189500D02*
G03*
X186500Y140500I-3000J0D01*
G01*
Y134500D02*
G03*
X189500Y137500I0J3000D01*
G01*
X363632Y211035D02*
G03*
X363773Y203112I-6695J-4082D01*
G01*
X109632Y211035D02*
G03*
X109774Y203112I-6695J-4082D01*
G01*
X90500Y133000D02*
G03*
X93500Y130000I3000J0D01*
G01*
Y136000D02*
G03*
X90500Y133000I0J-3000D01*
G01*
X399500Y133000D02*
G03*
X402500Y130000I3000J0D01*
G01*
Y136000D02*
G03*
X399500Y133000I0J-3000D01*
G01*
X362535Y62000D02*
G03*
X362535Y62000I-16535J0D01*
G01*
X130535D02*
G03*
X130535Y62000I-16535J0D01*
G01*
X79035Y6868D02*
G03*
X71112Y6726I-4082J6695D01*
G01*
X125000Y152598D02*
Y177402D01*
Y157000D02*
X128750Y153250D01*
X125000Y161000D02*
X131450Y154550D01*
X125000Y165000D02*
X133700Y156300D01*
X125000Y169000D02*
X135350Y158650D01*
X125000Y173000D02*
X136750Y161250D01*
X125000Y177000D02*
X125402D01*
X137402Y165000D01*
X129450Y176550D02*
X136550Y169450D01*
X335000Y152598D02*
Y177402D01*
Y157000D02*
X338750Y153250D01*
X335000Y161000D02*
X341450Y154550D01*
X335000Y165000D02*
X343700Y156300D01*
X335000Y169000D02*
X345350Y158650D01*
X335000Y173000D02*
X346750Y161250D01*
X335000Y177000D02*
X335402D01*
X347402Y165000D01*
X339450Y176550D02*
X346550Y169450D01*
X305500Y134598D02*
Y159402D01*
Y139000D02*
X309250Y135250D01*
X305500Y143000D02*
X311950Y136550D01*
X305500Y147000D02*
X314200Y138300D01*
X305500Y151000D02*
X315850Y140650D01*
X305500Y155000D02*
X317250Y143250D01*
X305500Y159000D02*
X305902D01*
X317902Y147000D01*
X309950Y158550D02*
X317050Y151450D01*
X154500Y134598D02*
Y159402D01*
Y139000D02*
X158250Y135250D01*
X154500Y143000D02*
X160950Y136550D01*
X154500Y147000D02*
X163200Y138300D01*
X154500Y151000D02*
X164850Y140650D01*
X154500Y155000D02*
X166250Y143250D01*
X154500Y159000D02*
X154902D01*
X166902Y147000D01*
X158950Y158550D02*
X166050Y151450D01*
X194000Y166000D02*
X197185D01*
X197248Y162063D02*
Y169937D01*
X200835Y162063D02*
Y169937D01*
X201185Y166000D02*
X204000D01*
X186000Y159500D02*
X212000D01*
X186000D02*
Y172500D01*
X212000D01*
Y159500D02*
Y172500D01*
X243000Y166000D02*
X246185D01*
X246248Y162063D02*
Y169937D01*
X249835Y162063D02*
Y169937D01*
X250185Y166000D02*
X253000D01*
X235000Y159500D02*
X261000D01*
X235000D02*
Y172500D01*
X261000D01*
Y159500D02*
Y172500D01*
X179500Y55221D02*
Y57370D01*
X175563Y57528D02*
X183437D01*
X175563Y60677D02*
X183437D01*
X179500Y61027D02*
Y62779D01*
X195248Y43252D02*
X195248Y74748D01*
X163752Y43252D02*
X195248D01*
X163752Y74748D02*
X163752Y43252D01*
X163752Y74748D02*
X195248D01*
X280500Y60630D02*
Y62779D01*
X276563Y60472D02*
X284437D01*
X276563Y57323D02*
X284437D01*
X280500Y55221D02*
Y56972D01*
X264752Y43252D02*
Y74748D01*
X296248D01*
Y43252D02*
Y74748D01*
X264752Y43252D02*
X296248D01*
X336815Y142000D02*
X340000D01*
X336752Y138063D02*
Y145937D01*
X333165Y138063D02*
Y145937D01*
X330000Y142000D02*
X332815D01*
X322000Y148500D02*
X348000Y148500D01*
Y135500D02*
Y148500D01*
X322000Y135500D02*
X348000Y135500D01*
X322000Y135500D02*
Y148500D01*
X126815Y142000D02*
X130000D01*
X126752Y138063D02*
Y145937D01*
X123165Y138063D02*
Y145937D01*
X120000Y142000D02*
X122815D01*
X112000Y148500D02*
X138000D01*
Y135500D02*
Y148500D01*
X112000Y135500D02*
X138000D01*
X112000D02*
Y148500D01*
X156315Y123000D02*
X159500D01*
X156252Y119063D02*
Y126937D01*
X152665Y119063D02*
Y126937D01*
X149500Y123000D02*
X152315D01*
X141500Y129500D02*
X167500D01*
Y116500D02*
Y129500D01*
X141500Y116500D02*
X167500D01*
X141500D02*
Y129500D01*
X300500Y123000D02*
X303685D01*
X303748Y119063D02*
Y126937D01*
X307335Y119063D02*
Y126937D01*
X307685Y123000D02*
X310500D01*
X292500Y116500D02*
X318500D01*
X292500D02*
Y129500D01*
X318500D01*
Y116500D02*
Y129500D01*
X35500Y151500D02*
X49000D01*
X35500Y152500D02*
X49500D01*
X35000Y153500D02*
X50000D01*
X48000Y150000D02*
X48500Y150500D01*
X48500Y151000D02*
X48500Y150500D01*
X36500Y150000D02*
X37500Y149000D01*
X47500D01*
X36500Y150000D02*
X48000D01*
X36000Y151000D02*
X48500Y151000D01*
X49000Y151500D01*
X35500D02*
X49000D01*
X38700Y148300D02*
X46500D01*
X411000Y158500D02*
X424500D01*
X410500Y157500D02*
X424500D01*
X410000Y156500D02*
X425000D01*
X411500Y159500D02*
X412000Y160000D01*
X411500Y159000D02*
Y159500D01*
X422500Y161000D02*
X423500Y160000D01*
X412500Y161000D02*
X422500D01*
X412000Y160000D02*
X423500Y160000D01*
X411500Y159000D02*
X424000D01*
X411000Y158500D02*
X411500Y159000D01*
X411000Y158500D02*
X424500D01*
X413500Y161700D02*
X421300D01*
X301450Y68450D02*
X308550Y75550D01*
X301000Y64402D02*
X313000Y76402D01*
X301000Y64402D02*
X301000Y64000D01*
X305000D02*
X316750Y75750D01*
X309000Y64000D02*
X319350Y74350D01*
X313000Y64000D02*
X321700Y72700D01*
X317000Y64000D02*
X323450Y70450D01*
X321000Y64000D02*
X324750Y67750D01*
X300598Y64000D02*
X325402D01*
X151450Y52371D02*
X158550Y59471D01*
X147000Y51520D02*
X159000Y63520D01*
Y63921D01*
X143250Y52171D02*
X155000Y63921D01*
X140650Y53571D02*
X151000Y63921D01*
X138300Y55221D02*
X147000Y63921D01*
X136550Y57471D02*
X143000Y63921D01*
X135250Y60171D02*
X139000Y63921D01*
X134598D02*
X159402D01*
X237500Y126500D02*
Y134500D01*
Y140500D02*
Y148500D01*
X272500D01*
Y126500D02*
Y148500D01*
X237500Y126500D02*
X272500D01*
X186500D02*
Y134500D01*
Y140500D02*
Y148500D01*
X221500D01*
Y126500D02*
Y148500D01*
X186500Y126500D02*
X221500D01*
X360500Y200000D02*
Y213500D01*
X359500Y200000D02*
Y214000D01*
X358500Y199500D02*
Y214500D01*
X361500Y213000D02*
X362000Y212500D01*
X361000Y213000D02*
X361500D01*
X362000Y201000D02*
X363000Y202000D01*
Y212000D01*
X362000Y201000D02*
Y212500D01*
X361000Y200500D02*
Y213000D01*
X360500Y213500D02*
X361000Y213000D01*
X360500Y200000D02*
Y213500D01*
X363700Y203200D02*
Y211000D01*
X106500Y200000D02*
Y213500D01*
X105500Y200000D02*
Y214000D01*
X104500Y199500D02*
Y214500D01*
X107500Y213000D02*
X108000Y212500D01*
X107000Y213000D02*
X107500D01*
X108000Y201000D02*
X109000Y202000D01*
Y212000D01*
X108000Y201000D02*
Y212500D01*
X107000Y200500D02*
Y213000D01*
X106500Y213500D02*
X107000Y213000D01*
X106500Y200000D02*
Y213500D01*
X109700Y203200D02*
Y211000D01*
X93500Y136000D02*
Y144000D01*
Y122000D02*
Y130000D01*
X58500Y122000D02*
X93500Y122000D01*
X58500Y122000D02*
Y144000D01*
X93500D01*
X402500Y136000D02*
Y144000D01*
Y122000D02*
Y130000D01*
X367500Y122000D02*
X402500D01*
X367500D02*
Y144000D01*
X402500D01*
X101000Y103500D02*
X103500D01*
X104000Y99000D02*
Y108000D01*
Y99000D02*
X127000D01*
Y108000D01*
X104000D02*
X127000D01*
X127500Y103500D02*
X130000D01*
X356500D02*
X359000D01*
X356000Y99000D02*
Y108000D01*
X333000D02*
X356000D01*
X333000Y99000D02*
Y108000D01*
Y99000D02*
X356000D01*
X330000Y103500D02*
X332500D01*
X327000Y123000D02*
X329500D01*
X330000Y118500D02*
Y127500D01*
Y118500D02*
X353000D01*
Y127500D01*
X330000D02*
X353000D01*
X353500Y123000D02*
X356000D01*
X130500D02*
X133000D01*
X130000Y118500D02*
Y127500D01*
X107000D02*
X130000D01*
X107000Y118500D02*
Y127500D01*
Y118500D02*
X130000D01*
X104000Y123000D02*
X106500D01*
X241300Y180000D02*
X243800D01*
X244300Y175500D02*
Y184500D01*
Y175500D02*
X267300D01*
Y184500D01*
X244300D02*
X267300D01*
X267800Y180000D02*
X270300D01*
X214000D02*
X216500D01*
X213500Y175500D02*
Y184500D01*
X190500D02*
X213500D01*
X190500Y175500D02*
Y184500D01*
Y175500D02*
X213500D01*
X187500Y180000D02*
X190000D01*
X327500Y88000D02*
X330000D01*
X327000Y83500D02*
Y92500D01*
X304000D02*
X327000D01*
X304000Y83500D02*
Y92500D01*
Y83500D02*
X327000D01*
X301000Y88000D02*
X303500D01*
X156500D02*
X159000D01*
X156000Y83500D02*
Y92500D01*
X133000D02*
X156000D01*
X133000Y83500D02*
Y92500D01*
Y83500D02*
X156000D01*
X130000Y88000D02*
X132500D01*
X219500D02*
X222000D01*
X219000Y83500D02*
Y92500D01*
X196000D02*
X219000D01*
X196000Y83500D02*
Y92500D01*
Y83500D02*
X219000D01*
X193000Y88000D02*
X195500D01*
X264500D02*
X267000D01*
X264000Y83500D02*
Y92500D01*
X241000D02*
X264000D01*
X241000Y83500D02*
Y92500D01*
Y83500D02*
X264000D01*
X238000Y88000D02*
X240500D01*
X172000Y212000D02*
X174500D01*
X175000Y207500D02*
Y216500D01*
Y207500D02*
X198000D01*
Y216500D01*
X175000D02*
X198000D01*
X198500Y212000D02*
X201000D01*
X259000D02*
X261500D01*
X262000Y207500D02*
Y216500D01*
Y207500D02*
X285000D01*
Y216500D01*
X262000D02*
X285000D01*
X285500Y212000D02*
X288000D01*
X313315Y15657D02*
X352685D01*
X313315Y35342D02*
X352685D01*
Y23685D02*
Y35342D01*
Y15657D02*
Y23685D01*
X313315Y15657D02*
Y35342D01*
X107315Y15657D02*
X146685D01*
X107315Y35342D02*
X146685D01*
Y23685D02*
Y35342D01*
Y15657D02*
Y23685D01*
X107315Y15657D02*
Y35342D01*
X331100Y67100D02*
X340800Y76800D01*
X330252Y62000D02*
X346000Y77748D01*
X334000Y62000D02*
X349300Y77300D01*
X338000Y62000D02*
X352000Y76000D01*
X342000Y62000D02*
X354900Y74900D01*
X346000Y62000D02*
X357050Y73050D01*
X350000Y62000D02*
X358900Y70900D01*
X354000Y62000D02*
X360000Y68000D01*
X358000Y62000D02*
X361350Y65350D01*
X330252Y62000D02*
X361748D01*
X119200Y47200D02*
X128900Y56900D01*
X114000Y46252D02*
X129748Y62000D01*
X110700Y46700D02*
X126000Y62000D01*
X108000Y48000D02*
X122000Y62000D01*
X105100Y49100D02*
X118000Y62000D01*
X102950Y50950D02*
X114000Y62000D01*
X101100Y53100D02*
X110000Y62000D01*
X100000Y56000D02*
X106000Y62000D01*
X98650Y58650D02*
X102000Y62000D01*
X98252D02*
X129748D01*
X88000Y37000D02*
X90500D01*
X87500Y32500D02*
Y41500D01*
X64500D02*
X87500D01*
X64500Y32500D02*
Y41500D01*
Y32500D02*
X87500D01*
X61500Y37000D02*
X64000D01*
X187000Y32000D02*
X189500D01*
X186500Y27500D02*
Y36500D01*
X163500D02*
X186500D01*
X163500Y27500D02*
Y36500D01*
Y27500D02*
X186500D01*
X160500Y32000D02*
X163000D01*
X160500Y18500D02*
X163000D01*
X163500Y14000D02*
Y23000D01*
Y14000D02*
X186500D01*
Y23000D01*
X163500D02*
X186500D01*
X187000Y18500D02*
X189500D01*
X32500Y127700D02*
Y130200D01*
X28000Y127200D02*
X37000D01*
X28000Y104200D02*
Y127200D01*
Y104200D02*
X37000D01*
Y127200D01*
X32500Y101200D02*
Y103700D01*
X73500Y194500D02*
Y197000D01*
X69000Y194000D02*
X78000D01*
X69000Y171000D02*
Y194000D01*
Y171000D02*
X78000D01*
Y194000D01*
X73500Y168000D02*
Y170500D01*
X61500Y194500D02*
Y197000D01*
X57000Y194000D02*
X66000D01*
X57000Y171000D02*
Y194000D01*
Y171000D02*
X66000D01*
Y194000D01*
X61500Y168000D02*
Y170500D01*
X386500Y168000D02*
Y170500D01*
X382000Y171000D02*
X391000D01*
Y194000D01*
X382000D02*
X391000D01*
X382000Y171000D02*
Y194000D01*
X386500Y194500D02*
Y197000D01*
X398500Y168000D02*
Y170500D01*
X394000Y171000D02*
X403000D01*
Y194000D01*
X394000D02*
X403000D01*
X394000Y171000D02*
Y194000D01*
X398500Y194500D02*
Y197000D01*
X427500Y101200D02*
Y103700D01*
X423000Y104200D02*
X432000D01*
Y127200D01*
X423000D02*
X432000D01*
X423000Y104200D02*
Y127200D01*
X427500Y127700D02*
Y130200D01*
X394000Y31500D02*
X396500D01*
X393500Y27000D02*
Y36000D01*
X370500D02*
X393500D01*
X370500Y27000D02*
Y36000D01*
Y27000D02*
X393500D01*
X367500Y31500D02*
X370000D01*
X297000Y32000D02*
X299500D01*
X296500Y27500D02*
Y36500D01*
X273500D02*
X296500D01*
X273500Y27500D02*
Y36500D01*
Y27500D02*
X296500D01*
X270500Y32000D02*
X273000D01*
X297000Y18500D02*
X299500D01*
X296500Y14000D02*
Y23000D01*
X273500D02*
X296500D01*
X273500Y14000D02*
Y23000D01*
Y14000D02*
X296500D01*
X270500Y18500D02*
X273000D01*
X68000Y10000D02*
X81500D01*
X68000Y11000D02*
X82000D01*
X67500Y12000D02*
X82500D01*
X80500Y8500D02*
X81000Y9000D01*
Y9500D01*
X69000Y8500D02*
X70000Y7500D01*
X80000D01*
X69000Y8500D02*
X80500Y8500D01*
X68500Y9500D02*
X81000D01*
X81500Y10000D01*
X68000D02*
X81500D01*
X71200Y6800D02*
X79000D01*
X170000Y120000D02*
X183000D01*
Y146000D01*
X170000D02*
X183000D01*
X170000Y120000D02*
Y146000D01*
X176500Y128000D02*
Y130815D01*
X172563Y131165D02*
X180437D01*
X172563Y134752D02*
X180437D01*
X176500Y134815D02*
Y138000D01*
X277000Y120000D02*
X290000D01*
Y146000D01*
X277000D02*
X290000D01*
X277000Y120000D02*
Y146000D01*
X283500Y128000D02*
Y130815D01*
X279563Y131165D02*
X287437D01*
X279563Y134752D02*
X287437D01*
X283500Y134815D02*
Y138000D01*
X13502Y101499D02*
X12502Y100499D01*
Y98500D01*
X13502Y97500D01*
X17500D01*
X18500Y98500D01*
Y100499D01*
X17500Y101499D01*
X15501D01*
Y99499D01*
X18500Y104498D02*
Y106497D01*
X17500Y107497D01*
X15501D01*
X14501Y106497D01*
Y104498D01*
X15501Y103498D01*
X17500D01*
X18500Y104498D01*
Y109496D02*
Y111495D01*
Y110496D01*
X12502D01*
Y109496D01*
Y118493D02*
X18500D01*
Y115494D01*
X17500Y114495D01*
X15501D01*
X14501Y115494D01*
Y118493D01*
X18500Y123492D02*
Y121492D01*
X17500Y120493D01*
X15501D01*
X14501Y121492D01*
Y123492D01*
X15501Y124491D01*
X16501D01*
Y120493D01*
X18500Y126491D02*
X14501D01*
Y129490D01*
X15501Y130489D01*
X18500D01*
Y138487D02*
X12502D01*
Y141486D01*
X13502Y142485D01*
X15501D01*
X16501Y141486D01*
Y138487D01*
Y140486D02*
X18500Y142485D01*
Y147484D02*
Y145484D01*
X17500Y144485D01*
X15501D01*
X14501Y145484D01*
Y147484D01*
X15501Y148484D01*
X16501D01*
Y144485D01*
X18500Y151482D02*
X13502D01*
X15501D01*
Y150483D01*
Y152482D01*
Y151482D01*
X13502D01*
X12502Y152482D01*
X18500Y158480D02*
Y156481D01*
X17500Y155481D01*
X15501D01*
X14501Y156481D01*
Y158480D01*
X15501Y159480D01*
X16501D01*
Y155481D01*
X14501Y161479D02*
X18500D01*
X16501D01*
X15501Y162479D01*
X14501Y163479D01*
Y164478D01*
X18500Y170476D02*
Y168477D01*
X17500Y167477D01*
X15501D01*
X14501Y168477D01*
Y170476D01*
X15501Y171476D01*
X16501D01*
Y167477D01*
X18500Y173475D02*
X14501D01*
Y176474D01*
X15501Y177474D01*
X18500D01*
X14501Y183472D02*
Y180473D01*
X15501Y179473D01*
X17500D01*
X18500Y180473D01*
Y183472D01*
Y188471D02*
Y186471D01*
X17500Y185471D01*
X15501D01*
X14501Y186471D01*
Y188471D01*
X15501Y189470D01*
X16501D01*
Y185471D01*
X12502Y197468D02*
X18500D01*
Y200467D01*
X17500Y201466D01*
X13502D01*
X12502Y200467D01*
Y197468D01*
X18500Y204465D02*
Y206465D01*
X17500Y207464D01*
X15501D01*
X14501Y206465D01*
Y204465D01*
X15501Y203466D01*
X17500D01*
X18500Y204465D01*
X14501Y209464D02*
X17500D01*
X18500Y210464D01*
Y213462D01*
X14501D01*
X12502Y215462D02*
X18500D01*
Y218461D01*
X17500Y219461D01*
X16501D01*
X15501D01*
X14501Y218461D01*
Y215462D01*
X18500Y221460D02*
Y223459D01*
Y222460D01*
X12502D01*
Y221460D01*
X18500Y229457D02*
Y227458D01*
X17500Y226458D01*
X15501D01*
X14501Y227458D01*
Y229457D01*
X15501Y230457D01*
X16501D01*
Y226458D01*
X18500Y242453D02*
Y238454D01*
X14501Y242453D01*
X13502D01*
X12502Y241453D01*
Y239454D01*
X13502Y238454D01*
Y244453D02*
X12502Y245452D01*
Y247451D01*
X13502Y248451D01*
X17500D01*
X18500Y247451D01*
Y245452D01*
X17500Y244453D01*
X13502D01*
X12502Y250450D02*
X16501D01*
X18500Y252450D01*
X16501Y254449D01*
X12502D01*
Y262447D02*
X16501D01*
X18500Y264446D01*
X16501Y266445D01*
X12502D01*
X18500Y271444D02*
Y269444D01*
X17500Y268445D01*
X15501D01*
X14501Y269444D01*
Y271444D01*
X15501Y272443D01*
X16501D01*
Y268445D01*
X14501Y274443D02*
X18500D01*
X16501D01*
X15501Y275442D01*
X14501Y276442D01*
Y277442D01*
X18500Y280441D02*
Y283440D01*
X17500Y284439D01*
X16501Y283440D01*
Y281440D01*
X15501Y280441D01*
X14501Y281440D01*
Y284439D01*
X18500Y286439D02*
Y288438D01*
Y287439D01*
X14501D01*
Y286439D01*
X18500Y292437D02*
Y294436D01*
X17500Y295436D01*
X15501D01*
X14501Y294436D01*
Y292437D01*
X15501Y291437D01*
X17500D01*
X18500Y292437D01*
Y297435D02*
X14501D01*
Y300434D01*
X15501Y301434D01*
X18500D01*
X13502Y309431D02*
X12502Y310431D01*
Y312431D01*
X13502Y313430D01*
X17500D01*
X18500Y312431D01*
Y310431D01*
X17500Y309431D01*
X13502D01*
X18500Y315429D02*
X17500D01*
Y316429D01*
X18500D01*
Y315429D01*
Y320428D02*
Y322427D01*
Y321428D01*
X12502D01*
X13502Y320428D01*
X14501Y326426D02*
Y328425D01*
X15501Y329425D01*
X18500D01*
Y326426D01*
X17500Y325426D01*
X16501Y326426D01*
Y329425D01*
X197000Y26499D02*
X200999D01*
X198999Y28498D02*
Y24500D01*
X206997Y23500D02*
X202998D01*
X206997Y27499D01*
Y28498D01*
X205997Y29498D01*
X203998D01*
X202998Y28498D01*
X208996D02*
X209996Y29498D01*
X211995D01*
X212995Y28498D01*
Y24500D01*
X211995Y23500D01*
X209996D01*
X208996Y24500D01*
Y28498D01*
X214994Y29498D02*
Y25499D01*
X216993Y23500D01*
X218993Y25499D01*
Y29498D01*
X238000Y26499D02*
X241999D01*
X247997Y23500D02*
X243998D01*
X247997Y27499D01*
Y28498D01*
X246997Y29498D01*
X244998D01*
X243998Y28498D01*
X249996D02*
X250996Y29498D01*
X252995D01*
X253995Y28498D01*
Y24500D01*
X252995Y23500D01*
X250996D01*
X249996Y24500D01*
Y28498D01*
X255994Y29498D02*
Y25499D01*
X257994Y23500D01*
X259993Y25499D01*
Y29498D01*
X217000Y272000D02*
Y275999D01*
X218999Y277998D01*
X220999Y275999D01*
Y272000D01*
Y274999D01*
X217000D01*
X226997Y276998D02*
X225997Y277998D01*
X223998D01*
X222998Y276998D01*
Y273000D01*
X223998Y272000D01*
X225997D01*
X226997Y273000D01*
X232995Y272000D02*
X228996D01*
X232995Y275999D01*
Y276998D01*
X231995Y277998D01*
X229996D01*
X228996Y276998D01*
X238993Y272000D02*
X234994D01*
X238993Y275999D01*
Y276998D01*
X237993Y277998D01*
X235994D01*
X234994Y276998D01*
X240992D02*
X241992Y277998D01*
X243991D01*
X244991Y276998D01*
Y273000D01*
X243991Y272000D01*
X241992D01*
X240992Y273000D01*
Y276998D01*
X111001Y179500D02*
X115000D01*
X113667D01*
X111001Y182166D01*
X113001Y180166D01*
X115000Y182166D01*
X111668Y186164D02*
X111001Y185498D01*
Y184165D01*
X111668Y183499D01*
X112334D01*
X113001Y184165D01*
Y185498D01*
X113667Y186164D01*
X114333D01*
X115000Y185498D01*
Y184165D01*
X114333Y183499D01*
X115000Y187497D02*
X111001D01*
Y189497D01*
X111668Y190163D01*
X113001D01*
X113667Y189497D01*
Y187497D01*
X114333Y191496D02*
X115000Y192163D01*
Y193496D01*
X114333Y194162D01*
X111668D01*
X111001Y193496D01*
Y192163D01*
X111668Y191496D01*
X112334D01*
X113001Y192163D01*
Y194162D01*
X115000Y198161D02*
Y195495D01*
X112334Y198161D01*
X111668D01*
X111001Y197494D01*
Y196161D01*
X111668Y195495D01*
X344501Y179500D02*
X348500D01*
X347167D01*
X344501Y182166D01*
X346501Y180166D01*
X348500Y182166D01*
X345168Y186164D02*
X344501Y185498D01*
Y184165D01*
X345168Y183499D01*
X345834D01*
X346501Y184165D01*
Y185498D01*
X347167Y186164D01*
X347834D01*
X348500Y185498D01*
Y184165D01*
X347834Y183499D01*
X348500Y187497D02*
X344501D01*
Y189497D01*
X345168Y190163D01*
X346501D01*
X347167Y189497D01*
Y187497D01*
X348500Y193496D02*
X344501D01*
X346501Y191496D01*
Y194162D01*
X348500Y198161D02*
Y195495D01*
X345834Y198161D01*
X345168D01*
X344501Y197494D01*
Y196161D01*
X345168Y195495D01*
X142499Y171500D02*
Y175499D01*
X140500Y173499D01*
X143166D01*
X144499Y175499D02*
X147164D01*
Y174832D01*
X144499Y172167D01*
Y171500D01*
X148497Y175499D02*
Y172167D01*
X149164Y171500D01*
X150497D01*
X151163Y172167D01*
Y175499D01*
X155162D02*
X152496D01*
Y173499D01*
X153829D01*
X152496D01*
Y171500D01*
X291499Y161000D02*
Y164999D01*
X289500Y162999D01*
X292166D01*
X293499Y164999D02*
X296164D01*
Y164332D01*
X293499Y161667D01*
Y161000D01*
X297497Y164999D02*
Y161667D01*
X298164Y161000D01*
X299497D01*
X300163Y161667D01*
Y164999D01*
X304162D02*
X301496D01*
Y162999D01*
X302829D01*
X301496D01*
Y161000D01*
X217500Y102000D02*
X219499D01*
X218500D01*
Y107998D01*
X217500Y106998D01*
X222498Y102000D02*
Y107998D01*
X226497Y102000D01*
Y107998D01*
X228496Y103000D02*
X229496Y102000D01*
X231495D01*
X232495Y103000D01*
Y106998D01*
X231495Y107998D01*
X229496D01*
X228496Y106998D01*
Y105999D01*
X229496Y104999D01*
X232495D01*
X234494Y102000D02*
X236494D01*
X235494D01*
Y107998D01*
X234494Y106998D01*
X242492Y102000D02*
Y107998D01*
X239493Y104999D01*
X243492D01*
X293500Y49499D02*
X287502D01*
X290501Y46500D01*
Y50499D01*
X293500Y52498D02*
X292500D01*
Y53498D01*
X293500D01*
Y52498D01*
X287502Y57496D02*
Y61495D01*
X288502D01*
X292500Y57496D01*
X293500D01*
X289501Y63494D02*
X292500D01*
X293500Y64494D01*
Y67493D01*
X289501D01*
X293500Y70492D02*
X288502D01*
X290501D01*
Y69493D01*
Y71492D01*
Y70492D01*
X288502D01*
X287502Y71492D01*
X172000Y49499D02*
X166002D01*
X169001Y46500D01*
Y50499D01*
X172000Y52498D02*
X171000D01*
Y53498D01*
X172000D01*
Y52498D01*
X166002Y57496D02*
Y61495D01*
X167002D01*
X171000Y57496D01*
X172000D01*
X168001Y63494D02*
X171000D01*
X172000Y64494D01*
Y67493D01*
X168001D01*
X172000Y70492D02*
X167002D01*
X169001D01*
Y69493D01*
Y71492D01*
Y70492D01*
X167002D01*
X166002Y71492D01*
X247499Y139499D02*
X246166D01*
X245500Y138832D01*
Y136167D01*
X246166Y135500D01*
X247499D01*
X248166Y136167D01*
Y138832D01*
X247499Y139499D01*
X249499Y135500D02*
Y139499D01*
X251498D01*
X252165Y138832D01*
Y137499D01*
X251498Y136833D01*
X249499D01*
X253497Y135500D02*
Y138166D01*
X254830Y139499D01*
X256163Y138166D01*
Y135500D01*
Y137499D01*
X253497D01*
X257496Y135500D02*
X258829D01*
X258163D01*
Y139499D01*
X257496Y138832D01*
X260828D02*
X261495Y139499D01*
X262828D01*
X263494Y138832D01*
Y138166D01*
X262828Y137499D01*
X262161D01*
X262828D01*
X263494Y136833D01*
Y136167D01*
X262828Y135500D01*
X261495D01*
X260828Y136167D01*
X266827Y135500D02*
Y139499D01*
X264827Y137499D01*
X267493D01*
X195499Y139499D02*
X194167D01*
X193500Y138832D01*
Y136167D01*
X194167Y135500D01*
X195499D01*
X196166Y136167D01*
Y138832D01*
X195499Y139499D01*
X197499Y135500D02*
Y139499D01*
X199498D01*
X200165Y138832D01*
Y137499D01*
X199498Y136833D01*
X197499D01*
X201497Y135500D02*
Y138166D01*
X202830Y139499D01*
X204163Y138166D01*
Y135500D01*
Y137499D01*
X201497D01*
X205496Y135500D02*
X206829D01*
X206163D01*
Y139499D01*
X205496Y138832D01*
X208828D02*
X209495Y139499D01*
X210828D01*
X211494Y138832D01*
Y138166D01*
X210828Y137499D01*
X210161D01*
X210828D01*
X211494Y136833D01*
Y136167D01*
X210828Y135500D01*
X209495D01*
X208828Y136167D01*
X214826Y135500D02*
Y139499D01*
X212827Y137499D01*
X215493D01*
X170500Y29000D02*
X172499D01*
X171500D01*
Y34998D01*
X170500Y33998D01*
X175498Y29000D02*
Y34998D01*
X177498Y32999D01*
X179497Y34998D01*
Y29000D01*
X71500Y34000D02*
X73499D01*
X72500D01*
Y39998D01*
X71500Y38998D01*
X76498Y34000D02*
Y39998D01*
X78498Y37999D01*
X80497Y39998D01*
Y34000D01*
X252500Y177000D02*
X254499D01*
X253500D01*
Y182998D01*
X252500Y181998D01*
X257498D02*
X258498Y182998D01*
X260497D01*
X261497Y181998D01*
Y178000D01*
X260497Y177000D01*
X258498D01*
X257498Y178000D01*
Y181998D01*
X337499Y125998D02*
X333500D01*
Y122999D01*
X335499Y123999D01*
X336499D01*
X337499Y122999D01*
Y121000D01*
X336499Y120000D01*
X334500D01*
X333500Y121000D01*
X339498Y124998D02*
X340498Y125998D01*
X342497D01*
X343497Y124998D01*
Y121000D01*
X342497Y120000D01*
X340498D01*
X339498Y121000D01*
Y124998D01*
X345496D02*
X346496Y125998D01*
X348495D01*
X349495Y124998D01*
Y121000D01*
X348495Y120000D01*
X346496D01*
X345496Y121000D01*
Y124998D01*
X114499Y125998D02*
X110500D01*
Y122999D01*
X112499Y123999D01*
X113499D01*
X114499Y122999D01*
Y121000D01*
X113499Y120000D01*
X111500D01*
X110500Y121000D01*
X116498Y124998D02*
X117498Y125998D01*
X119497D01*
X120497Y124998D01*
Y121000D01*
X119497Y120000D01*
X117498D01*
X116498Y121000D01*
Y124998D01*
X122496D02*
X123496Y125998D01*
X125495D01*
X126495Y124998D01*
Y121000D01*
X125495Y120000D01*
X123496D01*
X122496Y121000D01*
Y124998D01*
X197879Y177294D02*
X199879D01*
X198879D01*
Y183292D01*
X197879Y182292D01*
X202877D02*
X203877Y183292D01*
X205876D01*
X206876Y182292D01*
Y178294D01*
X205876Y177294D01*
X203877D01*
X202877Y178294D01*
Y182292D01*
X377000Y28500D02*
X378999D01*
X378000D01*
Y34498D01*
X377000Y33498D01*
X381998Y28500D02*
Y34498D01*
X383998Y32499D01*
X385997Y34498D01*
Y28500D01*
X280500Y29000D02*
X282499D01*
X281500D01*
Y34998D01*
X280500Y33998D01*
X285498Y29000D02*
Y34998D01*
X287498Y32999D01*
X289497Y34998D01*
Y29000D01*
X64500Y175500D02*
Y177499D01*
Y176500D01*
X58502D01*
X59502Y175500D01*
Y180498D02*
X58502Y181498D01*
Y183497D01*
X59502Y184497D01*
X63500D01*
X64500Y183497D01*
Y181498D01*
X63500Y180498D01*
X59502D01*
X58502Y186496D02*
X64500D01*
X62501D01*
X58502Y190495D01*
X61501Y187496D01*
X64500Y190495D01*
X401500Y174500D02*
Y176499D01*
Y175500D01*
X395502D01*
X396502Y174500D01*
Y179498D02*
X395502Y180498D01*
Y182497D01*
X396502Y183497D01*
X400500D01*
X401500Y182497D01*
Y180498D01*
X400500Y179498D01*
X396502D01*
X395502Y185496D02*
X401500D01*
X399501D01*
X395502Y189495D01*
X398501Y186496D01*
X401500Y189495D01*
X283999Y15500D02*
X280000D01*
X283999Y19499D01*
Y20498D01*
X282999Y21498D01*
X281000D01*
X280000Y20498D01*
X285998Y21498D02*
Y15500D01*
Y17499D01*
X289997Y21498D01*
X286998Y18499D01*
X289997Y15500D01*
X173999D02*
X170000D01*
X173999Y19499D01*
Y20498D01*
X172999Y21498D01*
X171000D01*
X170000Y20498D01*
X175998Y21498D02*
Y15500D01*
Y17499D01*
X179997Y21498D01*
X176998Y18499D01*
X179997Y15500D01*
X340500Y100500D02*
X342499D01*
X341500D01*
Y106498D01*
X340500Y105498D01*
X345498Y106498D02*
Y100500D01*
Y102499D01*
X349497Y106498D01*
X346498Y103499D01*
X349497Y100500D01*
X111000D02*
X112999D01*
X112000D01*
Y106498D01*
X111000Y105498D01*
X115998Y106498D02*
Y100500D01*
Y102499D01*
X119997Y106498D01*
X116998Y103499D01*
X119997Y100500D01*
X305500Y85000D02*
X307499D01*
X306500D01*
Y90998D01*
X305500Y89998D01*
X310498Y85000D02*
Y86000D01*
X311498D01*
Y85000D01*
X310498D01*
X319496Y90998D02*
X315497D01*
Y87999D01*
X317496Y88999D01*
X318496D01*
X319496Y87999D01*
Y86000D01*
X318496Y85000D01*
X316496D01*
X315497Y86000D01*
X321495Y90998D02*
Y85000D01*
Y86999D01*
X325494Y90998D01*
X322495Y87999D01*
X325494Y85000D01*
X242500D02*
X244499D01*
X243500D01*
Y90998D01*
X242500Y89998D01*
X247498Y85000D02*
Y86000D01*
X248498D01*
Y85000D01*
X247498D01*
X256495Y90998D02*
X252497D01*
Y87999D01*
X254496Y88999D01*
X255496D01*
X256495Y87999D01*
Y86000D01*
X255496Y85000D01*
X253496D01*
X252497Y86000D01*
X258495Y90998D02*
Y85000D01*
Y86999D01*
X262493Y90998D01*
X259494Y87999D01*
X262493Y85000D01*
X197500D02*
X199499D01*
X198500D01*
Y90998D01*
X197500Y89998D01*
X202498Y85000D02*
Y86000D01*
X203498D01*
Y85000D01*
X202498D01*
X211495Y90998D02*
X207497D01*
Y87999D01*
X209496Y88999D01*
X210496D01*
X211495Y87999D01*
Y86000D01*
X210496Y85000D01*
X208496D01*
X207497Y86000D01*
X213495Y90998D02*
Y85000D01*
Y86999D01*
X217494Y90998D01*
X214494Y87999D01*
X217494Y85000D01*
X134500D02*
X136499D01*
X135500D01*
Y90998D01*
X134500Y89998D01*
X139498Y85000D02*
Y86000D01*
X140498D01*
Y85000D01*
X139498D01*
X148495Y90998D02*
X144497D01*
Y87999D01*
X146496Y88999D01*
X147496D01*
X148495Y87999D01*
Y86000D01*
X147496Y85000D01*
X145496D01*
X144497Y86000D01*
X150495Y90998D02*
Y85000D01*
Y86999D01*
X154493Y90998D01*
X151495Y87999D01*
X154493Y85000D01*
X269500Y209000D02*
X271499D01*
X270500D01*
Y214998D01*
X269500Y213998D01*
X274498D02*
X275498Y214998D01*
X277497D01*
X278497Y213998D01*
Y210000D01*
X277497Y209000D01*
X275498D01*
X274498Y210000D01*
Y213998D01*
X430500Y111500D02*
Y113499D01*
Y112500D01*
X424502D01*
X425502Y111500D01*
X424502Y116498D02*
X430500D01*
X428501D01*
X424502Y120497D01*
X427501Y117498D01*
X430500Y120497D01*
X389500Y174500D02*
Y176499D01*
Y175500D01*
X383502D01*
X384502Y174500D01*
X383502Y183497D02*
Y179498D01*
X386501D01*
X385501Y181498D01*
Y182497D01*
X386501Y183497D01*
X388500D01*
X389500Y182497D01*
Y180498D01*
X388500Y179498D01*
X384502Y185496D02*
X383502Y186496D01*
Y188496D01*
X384502Y189495D01*
X388500D01*
X389500Y188496D01*
Y186496D01*
X388500Y185496D01*
X384502D01*
X182500Y209000D02*
X184499D01*
X183500D01*
Y214998D01*
X182500Y213998D01*
X187498D02*
X188498Y214998D01*
X190497D01*
X191497Y213998D01*
Y210000D01*
X190497Y209000D01*
X188498D01*
X187498Y210000D01*
Y213998D01*
X35000Y111000D02*
Y112999D01*
Y112000D01*
X29002D01*
X30002Y111000D01*
X29002Y115998D02*
X35000D01*
X33001D01*
X29002Y119997D01*
X32001Y116998D01*
X35000Y119997D01*
X76500Y175500D02*
Y177499D01*
Y176500D01*
X70502D01*
X71502Y175500D01*
X70502Y184497D02*
Y180498D01*
X73501D01*
X72501Y182498D01*
Y183497D01*
X73501Y184497D01*
X75500D01*
X76500Y183497D01*
Y181498D01*
X75500Y180498D01*
X71502Y186496D02*
X70502Y187496D01*
Y189496D01*
X71502Y190495D01*
X75500D01*
X76500Y189496D01*
Y187496D01*
X75500Y186496D01*
X71502D01*
X27002Y168500D02*
X33000D01*
X31001D01*
X27002Y172499D01*
X30001Y169500D01*
X33000Y172499D01*
X28002Y178497D02*
X27002Y177497D01*
Y175498D01*
X28002Y174498D01*
X29001D01*
X30001Y175498D01*
Y177497D01*
X31001Y178497D01*
X32000D01*
X33000Y177497D01*
Y175498D01*
X32000Y174498D01*
X33000Y180496D02*
X27002D01*
Y183495D01*
X28002Y184495D01*
X30001D01*
X31001Y183495D01*
Y180496D01*
X33000Y189493D02*
X27002D01*
X30001Y186494D01*
Y190493D01*
X33000Y196491D02*
Y192492D01*
X29001Y196491D01*
X28002D01*
X27002Y195491D01*
Y193492D01*
X28002Y192492D01*
X426002Y168500D02*
X432000D01*
X430001D01*
X426002Y172499D01*
X429001Y169500D01*
X432000Y172499D01*
X427002Y178497D02*
X426002Y177497D01*
Y175498D01*
X427002Y174498D01*
X428001D01*
X429001Y175498D01*
Y177497D01*
X430001Y178497D01*
X431000D01*
X432000Y177497D01*
Y175498D01*
X431000Y174498D01*
X432000Y180496D02*
X426002D01*
Y183495D01*
X427002Y184495D01*
X429001D01*
X430001Y183495D01*
Y180496D01*
X431000Y186494D02*
X432000Y187494D01*
Y189493D01*
X431000Y190493D01*
X427002D01*
X426002Y189493D01*
Y187494D01*
X427002Y186494D01*
X428001D01*
X429001Y187494D01*
Y190493D01*
X432000Y196491D02*
Y192492D01*
X428001Y196491D01*
X427002D01*
X426002Y195491D01*
Y193492D01*
X427002Y192492D01*
X372100Y88615D02*
Y82617D01*
X375099D01*
X376099Y83616D01*
Y87615D01*
X375099Y88615D01*
X372100D01*
X378098Y82617D02*
Y88615D01*
X382097Y82617D01*
Y88615D01*
X388095Y82617D02*
X384096D01*
X388095Y86615D01*
Y87615D01*
X387095Y88615D01*
X385096D01*
X384096Y87615D01*
X394093Y88615D02*
X390094D01*
Y85616D01*
X392093Y86615D01*
X393093D01*
X394093Y85616D01*
Y83616D01*
X393093Y82617D01*
X391094D01*
X390094Y83616D01*
X399091Y82617D02*
Y88615D01*
X396092Y85616D01*
X400091D01*
X402090Y87615D02*
X403090Y88615D01*
X405089D01*
X406089Y87615D01*
Y83616D01*
X405089Y82617D01*
X403090D01*
X402090Y83616D01*
Y87615D01*
X232000Y223498D02*
Y217500D01*
Y219499D01*
X235999Y223498D01*
X233000Y220499D01*
X235999Y217500D01*
X241997Y222498D02*
X240997Y223498D01*
X238998D01*
X237998Y222498D01*
Y221499D01*
X238998Y220499D01*
X240997D01*
X241997Y219499D01*
Y218500D01*
X240997Y217500D01*
X238998D01*
X237998Y218500D01*
X243996Y217500D02*
Y223498D01*
X246995D01*
X247995Y222498D01*
Y220499D01*
X246995Y219499D01*
X243996D01*
X252993Y217500D02*
Y223498D01*
X249994Y220499D01*
X253993D01*
X259991Y217500D02*
X255992D01*
X259991Y221499D01*
Y222498D01*
X258991Y223498D01*
X256992D01*
X255992Y222498D01*
X117500Y220500D02*
Y226498D01*
X119499Y224499D01*
X121499Y226498D01*
Y220500D01*
X127497Y226498D02*
X125497D01*
X126497D01*
Y221500D01*
X125497Y220500D01*
X124498D01*
X123498Y221500D01*
X133495Y226498D02*
X129496D01*
Y223499D01*
X131495D01*
X129496D01*
Y220500D01*
X135494D02*
X137494D01*
X136494D01*
Y226498D01*
X135494Y225498D01*
X144491Y226498D02*
X140493D01*
Y223499D01*
X142492Y224499D01*
X143492D01*
X144491Y223499D01*
Y221500D01*
X143492Y220500D01*
X141492D01*
X140493Y221500D01*
X146491Y225498D02*
X147490Y226498D01*
X149490D01*
X150489Y225498D01*
Y221500D01*
X149490Y220500D01*
X147490D01*
X146491Y221500D01*
Y225498D01*
X152489D02*
X153488Y226498D01*
X155488D01*
X156487Y225498D01*
Y224499D01*
X155488Y223499D01*
X154488D01*
X155488D01*
X156487Y222499D01*
Y221500D01*
X155488Y220500D01*
X153488D01*
X152489Y221500D01*
X158487Y225498D02*
X159486Y226498D01*
X161486D01*
X162485Y225498D01*
Y221500D01*
X161486Y220500D01*
X159486D01*
X158487Y221500D01*
Y225498D01*
X62100Y83215D02*
Y77217D01*
X65099D01*
X66099Y78216D01*
Y82215D01*
X65099Y83215D01*
X62100D01*
X68098Y77217D02*
Y83215D01*
X72097Y77217D01*
Y83215D01*
X78095Y77217D02*
X74096D01*
X78095Y81215D01*
Y82215D01*
X77095Y83215D01*
X75096D01*
X74096Y82215D01*
X84093Y83215D02*
X80094D01*
Y80216D01*
X82094Y81215D01*
X83093D01*
X84093Y80216D01*
Y78216D01*
X83093Y77217D01*
X81094D01*
X80094Y78216D01*
X89091Y77217D02*
Y83215D01*
X86092Y80216D01*
X90091D01*
X92090Y82215D02*
X93090Y83215D01*
X95089D01*
X96089Y82215D01*
Y78216D01*
X95089Y77217D01*
X93090D01*
X92090Y78216D01*
Y82215D01*
X261500Y363000D02*
Y368998D01*
X263499Y366999D01*
X265499Y368998D01*
Y363000D01*
X271497Y368998D02*
X269497D01*
X270497D01*
Y364000D01*
X269497Y363000D01*
X268498D01*
X267498Y364000D01*
X273496Y368998D02*
Y363000D01*
X275496Y364999D01*
X277495Y363000D01*
Y368998D01*
X283493Y363000D02*
X279494D01*
X283493Y366999D01*
Y367998D01*
X282493Y368998D01*
X280494D01*
X279494Y367998D01*
X285492Y363000D02*
X287492D01*
X286492D01*
Y368998D01*
X285492Y367998D01*
X290491Y363000D02*
X292490D01*
X291490D01*
Y368998D01*
X290491Y367998D01*
X295489Y364000D02*
X296489Y363000D01*
X298488D01*
X299488Y364000D01*
Y367998D01*
X298488Y368998D01*
X296489D01*
X295489Y367998D01*
Y366999D01*
X296489Y365999D01*
X299488D01*
X301487Y367998D02*
X302487Y368998D01*
X304486D01*
X305486Y367998D01*
Y366999D01*
X304486Y365999D01*
X303486D01*
X304486D01*
X305486Y364999D01*
Y364000D01*
X304486Y363000D01*
X302487D01*
X301487Y364000D01*
X200000Y223498D02*
Y217500D01*
Y219499D01*
X203999Y223498D01*
X201000Y220499D01*
X203999Y217500D01*
X209997Y222498D02*
X208997Y223498D01*
X206998D01*
X205998Y222498D01*
Y221499D01*
X206998Y220499D01*
X208997D01*
X209997Y219499D01*
Y218500D01*
X208997Y217500D01*
X206998D01*
X205998Y218500D01*
X211996Y217500D02*
Y223498D01*
X214995D01*
X215995Y222498D01*
Y220499D01*
X214995Y219499D01*
X211996D01*
X217994Y218500D02*
X218994Y217500D01*
X220993D01*
X221993Y218500D01*
Y222498D01*
X220993Y223498D01*
X218994D01*
X217994Y222498D01*
Y221499D01*
X218994Y220499D01*
X221993D01*
X227991Y217500D02*
X223992D01*
X227991Y221499D01*
Y222498D01*
X226991Y223498D01*
X224992D01*
X223992Y222498D01*
X299000Y220500D02*
Y226498D01*
X300999Y224499D01*
X302999Y226498D01*
Y220500D01*
X308997Y226498D02*
X306997D01*
X307997D01*
Y221500D01*
X306997Y220500D01*
X305998D01*
X304998Y221500D01*
X314995Y226498D02*
X310996D01*
Y223499D01*
X312996D01*
X310996D01*
Y220500D01*
X316994D02*
X318993D01*
X317994D01*
Y226498D01*
X316994Y225498D01*
X325991Y226498D02*
X321993D01*
Y223499D01*
X323992Y224499D01*
X324992D01*
X325991Y223499D01*
Y221500D01*
X324992Y220500D01*
X322992D01*
X321993Y221500D01*
X327991Y225498D02*
X328990Y226498D01*
X330990D01*
X331989Y225498D01*
Y221500D01*
X330990Y220500D01*
X328990D01*
X327991Y221500D01*
Y225498D01*
X333989D02*
X334988Y226498D01*
X336988D01*
X337987Y225498D01*
Y224499D01*
X336988Y223499D01*
X335988D01*
X336988D01*
X337987Y222499D01*
Y221500D01*
X336988Y220500D01*
X334988D01*
X333989Y221500D01*
X339987Y220500D02*
X341986D01*
X340986D01*
Y226498D01*
X339987Y225498D01*
X155500Y362000D02*
Y367998D01*
X157499Y365999D01*
X159499Y367998D01*
Y362000D01*
X165497Y367998D02*
X163497D01*
X164497D01*
Y363000D01*
X163497Y362000D01*
X162498D01*
X161498Y363000D01*
X167496Y367998D02*
Y362000D01*
X169495Y363999D01*
X171495Y362000D01*
Y367998D01*
X177493Y362000D02*
X173494D01*
X177493Y365999D01*
Y366998D01*
X176493Y367998D01*
X174494D01*
X173494Y366998D01*
X179492Y362000D02*
X181492D01*
X180492D01*
Y367998D01*
X179492Y366998D01*
X184491Y362000D02*
X186490D01*
X185490D01*
Y367998D01*
X184491Y366998D01*
X189489Y363000D02*
X190489Y362000D01*
X192488D01*
X193488Y363000D01*
Y366998D01*
X192488Y367998D01*
X190489D01*
X189489Y366998D01*
Y365999D01*
X190489Y364999D01*
X193488D01*
X198486Y362000D02*
Y367998D01*
X195487Y364999D01*
X199486D01*
X81600Y155615D02*
Y151617D01*
Y152949D01*
X84266Y155615D01*
X82266Y153616D01*
X84266Y151617D01*
X88265Y154949D02*
X87598Y155615D01*
X86265D01*
X85599Y154949D01*
Y154282D01*
X86265Y153616D01*
X87598D01*
X88265Y152949D01*
Y152283D01*
X87598Y151617D01*
X86265D01*
X85599Y152283D01*
X89597Y151617D02*
Y155615D01*
X91597D01*
X92263Y154949D01*
Y153616D01*
X91597Y152949D01*
X89597D01*
X93596Y152283D02*
X94263Y151617D01*
X95596D01*
X96262Y152283D01*
Y154949D01*
X95596Y155615D01*
X94263D01*
X93596Y154949D01*
Y154282D01*
X94263Y153616D01*
X96262D01*
X100261Y151617D02*
X97595D01*
X100261Y154282D01*
Y154949D01*
X99594Y155615D01*
X98261D01*
X97595Y154949D01*
X308000Y243498D02*
Y237500D01*
Y240499D01*
X311999D01*
Y243498D01*
Y237500D01*
X317997Y243498D02*
X313998D01*
Y240499D01*
X315997D01*
X313998D01*
Y237500D01*
X319996D02*
Y241499D01*
X321995Y243498D01*
X323995Y241499D01*
Y237500D01*
Y240499D01*
X319996D01*
X325994Y242498D02*
X326994Y243498D01*
X328993D01*
X329993Y242498D01*
Y238500D01*
X328993Y237500D01*
X326994D01*
X325994Y238500D01*
Y242498D01*
X331992D02*
X332992Y243498D01*
X334991D01*
X335991Y242498D01*
Y241499D01*
X334991Y240499D01*
X335991Y239499D01*
Y238500D01*
X334991Y237500D01*
X332992D01*
X331992Y238500D01*
Y239499D01*
X332992Y240499D01*
X331992Y241499D01*
Y242498D01*
X332992Y240499D02*
X334991D01*
X123500Y244498D02*
Y238500D01*
Y241499D01*
X127499D01*
Y244498D01*
Y238500D01*
X133497Y244498D02*
X129498D01*
Y241499D01*
X131497D01*
X129498D01*
Y238500D01*
X135496D02*
Y242499D01*
X137496Y244498D01*
X139495Y242499D01*
Y238500D01*
Y241499D01*
X135496D01*
X141494Y243498D02*
X142494Y244498D01*
X144493D01*
X145493Y243498D01*
Y239500D01*
X144493Y238500D01*
X142494D01*
X141494Y239500D01*
Y243498D01*
X147492D02*
X148492Y244498D01*
X150491D01*
X151491Y243498D01*
Y242499D01*
X150491Y241499D01*
X151491Y240499D01*
Y239500D01*
X150491Y238500D01*
X148492D01*
X147492Y239500D01*
Y240499D01*
X148492Y241499D01*
X147492Y242499D01*
Y243498D01*
X148492Y241499D02*
X150491D01*
X160500Y281998D02*
Y276000D01*
Y278999D01*
X164499D01*
Y281998D01*
Y276000D01*
X170497Y281998D02*
X166498D01*
Y278999D01*
X168497D01*
X166498D01*
Y276000D01*
X172496D02*
Y279999D01*
X174495Y281998D01*
X176495Y279999D01*
Y276000D01*
Y278999D01*
X172496D01*
X178494Y280998D02*
X179494Y281998D01*
X181493D01*
X182493Y280998D01*
Y277000D01*
X181493Y276000D01*
X179494D01*
X178494Y277000D01*
Y280998D01*
X184492D02*
X185492Y281998D01*
X187491D01*
X188491Y280998D01*
Y279999D01*
X187491Y278999D01*
X188491Y277999D01*
Y277000D01*
X187491Y276000D01*
X185492D01*
X184492Y277000D01*
Y277999D01*
X185492Y278999D01*
X184492Y279999D01*
Y280998D01*
X185492Y278999D02*
X187491D01*
X272500Y282498D02*
Y276500D01*
Y279499D01*
X276499D01*
Y282498D01*
Y276500D01*
X282497Y282498D02*
X278498D01*
Y279499D01*
X280497D01*
X278498D01*
Y276500D01*
X284496D02*
Y280499D01*
X286495Y282498D01*
X288495Y280499D01*
Y276500D01*
Y279499D01*
X284496D01*
X290494Y281498D02*
X291494Y282498D01*
X293493D01*
X294493Y281498D01*
Y277500D01*
X293493Y276500D01*
X291494D01*
X290494Y277500D01*
Y281498D01*
X296492D02*
X297492Y282498D01*
X299491D01*
X300491Y281498D01*
Y280499D01*
X299491Y279499D01*
X300491Y278499D01*
Y277500D01*
X299491Y276500D01*
X297492D01*
X296492Y277500D01*
Y278499D01*
X297492Y279499D01*
X296492Y280499D01*
Y281498D01*
X297492Y279499D02*
X299491D01*
X194500Y305500D02*
X196499D01*
X195500D01*
Y311498D01*
X194500Y310498D01*
X199498Y305500D02*
Y311498D01*
X203497Y305500D01*
Y311498D01*
X208495Y305500D02*
Y311498D01*
X205496Y308499D01*
X209495D01*
X211494Y310498D02*
X212494Y311498D01*
X214493D01*
X215493Y310498D01*
Y306500D01*
X214493Y305500D01*
X212494D01*
X211494Y306500D01*
Y310498D01*
X217493D02*
X218492Y311498D01*
X220492D01*
X221491Y310498D01*
Y306500D01*
X220492Y305500D01*
X218492D01*
X217493Y306500D01*
Y310498D01*
X223491Y311498D02*
X227489D01*
Y310498D01*
X223491Y306500D01*
Y305500D01*
X346000Y347500D02*
X347999D01*
X347000D01*
Y353498D01*
X346000Y352498D01*
X350998Y347500D02*
Y353498D01*
X354997Y347500D01*
Y353498D01*
X359996Y347500D02*
Y353498D01*
X356996Y350499D01*
X360995D01*
X362995Y352498D02*
X363994Y353498D01*
X365993D01*
X366993Y352498D01*
Y348500D01*
X365993Y347500D01*
X363994D01*
X362995Y348500D01*
Y352498D01*
X368993D02*
X369992Y353498D01*
X371992D01*
X372991Y352498D01*
Y348500D01*
X371992Y347500D01*
X369992D01*
X368993Y348500D01*
Y352498D01*
X374991Y353498D02*
X378989D01*
Y352498D01*
X374991Y348500D01*
Y347500D01*
X38000Y143998D02*
Y138000D01*
X41999D01*
X47997Y143998D02*
X43998D01*
Y138000D01*
X47997D01*
X43998Y140999D02*
X45997D01*
X49996Y143998D02*
Y138000D01*
X52995D01*
X53995Y139000D01*
Y142998D01*
X52995Y143998D01*
X49996D01*
X406500Y142998D02*
Y137000D01*
X410499D01*
X416497Y142998D02*
X412498D01*
Y137000D01*
X416497D01*
X412498Y139999D02*
X414497D01*
X418496Y142998D02*
Y137000D01*
X421495D01*
X422495Y138000D01*
Y141998D01*
X421495Y142998D01*
X418496D01*
X374000Y134999D02*
Y131000D01*
X376666D01*
X377999Y134999D02*
X380664D01*
X379332D01*
Y131000D01*
X381997D02*
X383330D01*
X382664D01*
Y134999D01*
X381997Y134332D01*
X385330D02*
X385996Y134999D01*
X387329D01*
X387996Y134332D01*
Y131667D01*
X387329Y131000D01*
X385996D01*
X385330Y131667D01*
Y134332D01*
X391994Y131000D02*
X389328D01*
X391994Y133666D01*
Y134332D01*
X391328Y134999D01*
X389995D01*
X389328Y134332D01*
X393327Y131000D02*
X394660D01*
X393994D01*
Y134999D01*
X393327Y134332D01*
X262000Y195500D02*
X263999D01*
X263000D01*
Y201498D01*
X262000Y200498D01*
X266998Y195500D02*
Y201498D01*
X270997Y195500D01*
Y201498D01*
X275995Y195500D02*
Y201498D01*
X272996Y198499D01*
X276995D01*
X278994Y201498D02*
X282993D01*
Y200498D01*
X278994Y196500D01*
Y195500D01*
X284993Y200498D02*
X285992Y201498D01*
X287992D01*
X288991Y200498D01*
Y199499D01*
X287992Y198499D01*
X286992D01*
X287992D01*
X288991Y197499D01*
Y196500D01*
X287992Y195500D01*
X285992D01*
X284993Y196500D01*
X290991D02*
X291990Y195500D01*
X293990D01*
X294989Y196500D01*
Y200498D01*
X293990Y201498D01*
X291990D01*
X290991Y200498D01*
Y199499D01*
X291990Y198499D01*
X294989D01*
X65500Y134999D02*
Y131000D01*
X68166D01*
X69499Y134999D02*
X72164D01*
X70832D01*
Y131000D01*
X73497D02*
X74830D01*
X74164D01*
Y134999D01*
X73497Y134332D01*
X76830D02*
X77496Y134999D01*
X78829D01*
X79496Y134332D01*
Y131667D01*
X78829Y131000D01*
X77496D01*
X76830Y131667D01*
Y134332D01*
X83494Y131000D02*
X80828D01*
X83494Y133666D01*
Y134332D01*
X82828Y134999D01*
X81495D01*
X80828Y134332D01*
X84827Y131000D02*
X86160D01*
X85494D01*
Y134999D01*
X84827Y134332D01*
X166385Y195087D02*
X168384D01*
X167384D01*
Y201085D01*
X166385Y200085D01*
X171383Y195087D02*
Y201085D01*
X175382Y195087D01*
Y201085D01*
X180380Y195087D02*
Y201085D01*
X177381Y198086D01*
X181380D01*
X183379Y201085D02*
X187378D01*
Y200085D01*
X183379Y196086D01*
Y195087D01*
X189377Y200085D02*
X190377Y201085D01*
X192376D01*
X193376Y200085D01*
Y199085D01*
X192376Y198086D01*
X191376D01*
X192376D01*
X193376Y197086D01*
Y196086D01*
X192376Y195087D01*
X190377D01*
X189377Y196086D01*
X195375D02*
X196375Y195087D01*
X198374D01*
X199374Y196086D01*
Y200085D01*
X198374Y201085D01*
X196375D01*
X195375Y200085D01*
Y199085D01*
X196375Y198086D01*
X199374D01*
X53000Y17498D02*
Y11500D01*
X55999D01*
X56999Y12500D01*
Y16498D01*
X55999Y17498D01*
X53000D01*
X58998Y16498D02*
X59998Y17498D01*
X61997D01*
X62997Y16498D01*
Y15499D01*
X61997Y14499D01*
X60997D01*
X61997D01*
X62997Y13499D01*
Y12500D01*
X61997Y11500D01*
X59998D01*
X58998Y12500D01*
X364500Y219998D02*
Y214000D01*
X368499D01*
X374497Y219998D02*
X370498D01*
Y214000D01*
X374497D01*
X370498Y216999D02*
X372497D01*
X376496Y219998D02*
Y214000D01*
X379495D01*
X380495Y215000D01*
Y218998D01*
X379495Y219998D01*
X376496D01*
X77000Y218498D02*
Y212500D01*
X80999D01*
X86997Y218498D02*
X82998D01*
Y212500D01*
X86997D01*
X82998Y215499D02*
X84997D01*
X88996Y218498D02*
Y212500D01*
X91995D01*
X92995Y213500D01*
Y217498D01*
X91995Y218498D01*
X88996D01*
X138500Y41000D02*
X140499D01*
X139500D01*
Y46998D01*
X138500Y45998D01*
X143498D02*
X144498Y46998D01*
X146497D01*
X147497Y45998D01*
Y42000D01*
X146497Y41000D01*
X144498D01*
X143498Y42000D01*
Y45998D01*
X149496Y46998D02*
Y42000D01*
X150496Y41000D01*
X152496D01*
X153495Y42000D01*
Y46998D01*
X159493D02*
X155494D01*
Y43999D01*
X157494D01*
X155494D01*
Y41000D01*
X293500Y112998D02*
X294500Y113998D01*
X296499D01*
X297499Y112998D01*
Y109000D01*
X296499Y108000D01*
X294500D01*
X293500Y109000D01*
Y112998D01*
X299498Y108000D02*
Y109000D01*
X300498D01*
Y108000D01*
X299498D01*
X304496D02*
X306496D01*
X305496D01*
Y113998D01*
X304496Y112998D01*
X309495Y111999D02*
Y109000D01*
X310494Y108000D01*
X313493D01*
Y111999D01*
X319492Y113998D02*
X315493D01*
Y110999D01*
X317492D01*
X315493D01*
Y108000D01*
X327000Y133332D02*
X327666Y133999D01*
X328999D01*
X329666Y133332D01*
Y130666D01*
X328999Y130000D01*
X327666D01*
X327000Y130666D01*
Y133332D01*
X330999Y130000D02*
Y130666D01*
X331665D01*
Y130000D01*
X330999D01*
X334331D02*
X335664D01*
X334997D01*
Y133999D01*
X334331Y133332D01*
X337663Y132666D02*
Y130666D01*
X338330Y130000D01*
X340329D01*
Y132666D01*
X344328Y133999D02*
X341662D01*
Y131999D01*
X342995D01*
X341662D01*
Y130000D01*
X142000Y112998D02*
X143000Y113998D01*
X144999D01*
X145999Y112998D01*
Y109000D01*
X144999Y108000D01*
X143000D01*
X142000Y109000D01*
Y112998D01*
X147998Y108000D02*
Y109000D01*
X148998D01*
Y108000D01*
X147998D01*
X152996D02*
X154996D01*
X153996D01*
Y113998D01*
X152996Y112998D01*
X157995Y111999D02*
Y109000D01*
X158994Y108000D01*
X161994D01*
Y111999D01*
X167992Y113998D02*
X163993D01*
Y110999D01*
X165992D01*
X163993D01*
Y108000D01*
X116500Y132832D02*
X117166Y133499D01*
X118499D01*
X119166Y132832D01*
Y130166D01*
X118499Y129500D01*
X117166D01*
X116500Y130166D01*
Y132832D01*
X120499Y129500D02*
Y130166D01*
X121165D01*
Y129500D01*
X120499D01*
X123831D02*
X125164D01*
X124497D01*
Y133499D01*
X123831Y132832D01*
X127163Y132166D02*
Y130166D01*
X127830Y129500D01*
X129829D01*
Y132166D01*
X133828Y133499D02*
X131162D01*
Y131499D01*
X132495D01*
X131162D01*
Y129500D01*
X368999Y54000D02*
X365000D01*
X368999Y57999D01*
Y58998D01*
X367999Y59998D01*
X366000D01*
X365000Y58998D01*
X374997Y54000D02*
X370998D01*
X374997Y57999D01*
Y58998D01*
X373997Y59998D01*
X371998D01*
X370998Y58998D01*
X376996D02*
X377996Y59998D01*
X379995D01*
X380995Y58998D01*
Y55000D01*
X379995Y54000D01*
X377996D01*
X376996Y55000D01*
Y58998D01*
X382994Y59998D02*
Y55000D01*
X383994Y54000D01*
X385993D01*
X386993Y55000D01*
Y59998D01*
X392991D02*
X388992D01*
Y56999D01*
X390992D01*
X388992D01*
Y54000D01*
X394990D02*
X398989Y57999D01*
X400988Y58998D02*
X401988Y59998D01*
X403987D01*
X404987Y58998D01*
Y57999D01*
X403987Y56999D01*
X402988D01*
X403987D01*
X404987Y55999D01*
Y55000D01*
X403987Y54000D01*
X401988D01*
X400988Y55000D01*
X410985Y59998D02*
X406986D01*
Y56999D01*
X408986Y57999D01*
X409985D01*
X410985Y56999D01*
Y55000D01*
X409985Y54000D01*
X407986D01*
X406986Y55000D01*
X412985Y59998D02*
Y55999D01*
X414984Y54000D01*
X416983Y55999D01*
Y59998D01*
X156999Y162000D02*
Y165999D01*
X155000Y163999D01*
X157666D01*
X158999Y165999D02*
X161664D01*
Y165332D01*
X158999Y162666D01*
Y162000D01*
X162997Y165999D02*
Y162666D01*
X163664Y162000D01*
X164997D01*
X165663Y162666D01*
Y165999D01*
X169662D02*
X166996D01*
Y163999D01*
X168329D01*
X166996D01*
Y162000D01*
X309499Y169500D02*
Y173499D01*
X307500Y171499D01*
X310166D01*
X311499Y173499D02*
X314164D01*
Y172832D01*
X311499Y170167D01*
Y169500D01*
X315497Y173499D02*
Y170167D01*
X316164Y169500D01*
X317497D01*
X318163Y170167D01*
Y173499D01*
X322162D02*
X319496D01*
Y171499D01*
X320829D01*
X319496D01*
Y169500D01*
X47499Y53500D02*
X43500D01*
X47499Y57499D01*
Y58498D01*
X46499Y59498D01*
X44500D01*
X43500Y58498D01*
X53497Y53500D02*
X49498D01*
X53497Y57499D01*
Y58498D01*
X52497Y59498D01*
X50498D01*
X49498Y58498D01*
X55496D02*
X56496Y59498D01*
X58495D01*
X59495Y58498D01*
Y54500D01*
X58495Y53500D01*
X56496D01*
X55496Y54500D01*
Y58498D01*
X61494Y59498D02*
Y54500D01*
X62494Y53500D01*
X64493D01*
X65493Y54500D01*
Y59498D01*
X71491D02*
X67492D01*
Y56499D01*
X69492D01*
X67492D01*
Y53500D01*
X73490D02*
X77489Y57499D01*
X79488Y58498D02*
X80488Y59498D01*
X82487D01*
X83487Y58498D01*
Y57499D01*
X82487Y56499D01*
X81488D01*
X82487D01*
X83487Y55499D01*
Y54500D01*
X82487Y53500D01*
X80488D01*
X79488Y54500D01*
X89485Y59498D02*
X85486D01*
Y56499D01*
X87486Y57499D01*
X88485D01*
X89485Y56499D01*
Y54500D01*
X88485Y53500D01*
X86486D01*
X85486Y54500D01*
X91484Y59498D02*
Y55499D01*
X93484Y53500D01*
X95483Y55499D01*
Y59498D01*
X216499Y163500D02*
Y167499D01*
X214500Y165499D01*
X217166D01*
X218499Y167499D02*
X221164D01*
Y166832D01*
X218499Y164166D01*
Y163500D01*
X222497Y162167D02*
Y166166D01*
X224497D01*
X225163Y165499D01*
Y164166D01*
X224497Y163500D01*
X222497D01*
X229162Y167499D02*
X226496D01*
Y165499D01*
X227829D01*
X226496D01*
Y163500D01*
X265999Y164000D02*
Y167999D01*
X264000Y165999D01*
X266666D01*
X267999Y167999D02*
X270665D01*
Y167332D01*
X267999Y164666D01*
Y164000D01*
X271997Y162667D02*
Y166666D01*
X273997D01*
X274663Y165999D01*
Y164666D01*
X273997Y164000D01*
X271997D01*
X278662Y167999D02*
X275996D01*
Y165999D01*
X277329D01*
X275996D01*
Y164000D01*
X303000Y42500D02*
X304999D01*
X304000D01*
Y48498D01*
X303000Y47498D01*
X307998D02*
X308998Y48498D01*
X310997D01*
X311997Y47498D01*
Y43500D01*
X310997Y42500D01*
X308998D01*
X307998Y43500D01*
Y47498D01*
X313996Y48498D02*
Y43500D01*
X314996Y42500D01*
X316996D01*
X317995Y43500D01*
Y48498D01*
X323993D02*
X319994D01*
Y45499D01*
X321994D01*
X319994D01*
Y42500D01*
X355999Y328000D02*
Y333998D01*
X353000Y330999D01*
X356999D01*
X358998Y333998D02*
X362997D01*
Y332998D01*
X358998Y329000D01*
Y328000D01*
X364996Y332998D02*
X365996Y333998D01*
X367995D01*
X368995Y332998D01*
Y329000D01*
X367995Y328000D01*
X365996D01*
X364996Y329000D01*
Y332998D01*
X370994D02*
X371994Y333998D01*
X373993D01*
X374993Y332998D01*
Y329000D01*
X373993Y328000D01*
X371994D01*
X370994Y329000D01*
Y332998D01*
X376992Y333998D02*
Y329000D01*
X377992Y328000D01*
X379991D01*
X380991Y329000D01*
Y333998D01*
X386989D02*
X382990D01*
Y330999D01*
X384990D01*
X382990D01*
Y328000D01*
X388988D02*
X392987Y331999D01*
X394986Y332998D02*
X395986Y333998D01*
X397985D01*
X398985Y332998D01*
Y331999D01*
X397985Y330999D01*
X396986D01*
X397985D01*
X398985Y329999D01*
Y329000D01*
X397985Y328000D01*
X395986D01*
X394986Y329000D01*
X404983Y333998D02*
X400984D01*
Y330999D01*
X402984Y331999D01*
X403983D01*
X404983Y330999D01*
Y329000D01*
X403983Y328000D01*
X401984D01*
X400984Y329000D01*
X406983Y333998D02*
Y329999D01*
X408982Y328000D01*
X410981Y329999D01*
Y333998D01*
X53999Y327000D02*
Y332998D01*
X51000Y329999D01*
X54999D01*
X56998Y332998D02*
X60997D01*
Y331998D01*
X56998Y328000D01*
Y327000D01*
X62996Y331998D02*
X63996Y332998D01*
X65995D01*
X66995Y331998D01*
Y328000D01*
X65995Y327000D01*
X63996D01*
X62996Y328000D01*
Y331998D01*
X68994D02*
X69994Y332998D01*
X71993D01*
X72993Y331998D01*
Y328000D01*
X71993Y327000D01*
X69994D01*
X68994Y328000D01*
Y331998D01*
X74992Y332998D02*
Y328000D01*
X75992Y327000D01*
X77991D01*
X78991Y328000D01*
Y332998D01*
X84989D02*
X80990D01*
Y329999D01*
X82990D01*
X80990D01*
Y327000D01*
X86988D02*
X90987Y330999D01*
X92986Y331998D02*
X93986Y332998D01*
X95986D01*
X96985Y331998D01*
Y330999D01*
X95986Y329999D01*
X94986D01*
X95986D01*
X96985Y328999D01*
Y328000D01*
X95986Y327000D01*
X93986D01*
X92986Y328000D01*
X102983Y332998D02*
X98984D01*
Y329999D01*
X100984Y330999D01*
X101983D01*
X102983Y329999D01*
Y328000D01*
X101983Y327000D01*
X99984D01*
X98984Y328000D01*
X104982Y332998D02*
Y328999D01*
X106982Y327000D01*
X108981Y328999D01*
Y332998D01*
X323500Y7500D02*
X325499D01*
X324500D01*
Y13498D01*
X323500Y12498D01*
X328498D02*
X329498Y13498D01*
X331497D01*
X332497Y12498D01*
Y8500D01*
X331497Y7500D01*
X329498D01*
X328498Y8500D01*
Y12498D01*
X334496D02*
X335496Y13498D01*
X337495D01*
X338495Y12498D01*
Y8500D01*
X337495Y7500D01*
X335496D01*
X334496Y8500D01*
Y12498D01*
X340494Y13498D02*
Y7500D01*
Y9499D01*
X344493Y13498D01*
X341494Y10499D01*
X344493Y7500D01*
X117500Y8000D02*
X119499D01*
X118500D01*
Y13998D01*
X117500Y12998D01*
X122498D02*
X123498Y13998D01*
X125497D01*
X126497Y12998D01*
Y9000D01*
X125497Y8000D01*
X123498D01*
X122498Y9000D01*
Y12998D01*
X128496D02*
X129496Y13998D01*
X131495D01*
X132495Y12998D01*
Y9000D01*
X131495Y8000D01*
X129496D01*
X128496Y9000D01*
Y12998D01*
X134494Y13998D02*
Y8000D01*
Y9999D01*
X138493Y13998D01*
X135494Y10999D01*
X138493Y8000D01*
X172000Y148000D02*
Y148667D01*
X172667D01*
Y148000D01*
X172000D01*
X175332Y151332D02*
X175999Y151999D01*
X177332D01*
X177998Y151332D01*
Y148667D01*
X177332Y148000D01*
X175999D01*
X175332Y148667D01*
Y151332D01*
X179331Y148000D02*
X180664D01*
X179997D01*
Y151999D01*
X179331Y151332D01*
X279500Y148500D02*
Y149167D01*
X280166D01*
Y148500D01*
X279500D01*
X282832Y151832D02*
X283499Y152499D01*
X284832D01*
X285498Y151832D01*
Y149167D01*
X284832Y148500D01*
X283499D01*
X282832Y149167D01*
Y151832D01*
X286831Y148500D02*
X288164D01*
X287497D01*
Y152499D01*
X286831Y151832D01*
D35*
X239983Y46983D02*
G03*
X260017Y46983I10017J10017D01*
G01*
X219983Y46983D02*
G03*
X240017Y46983I10017J10017D01*
G01*
X199983D02*
G03*
X220017Y46983I10017J10017D01*
G01*
Y255017D02*
G03*
X199983Y255017I-10017J-10017D01*
G01*
X240017Y255017D02*
G03*
X219983Y255017I-10017J-10017D01*
G01*
X260017D02*
G03*
X239983Y255017I-10017J-10017D01*
G01*
X200000Y62000D02*
X260000D01*
X200000Y75622D02*
X200000Y32315D01*
X260000Y75622D02*
X260000Y32315D01*
X200000Y38500D02*
X260000D01*
X200000Y32315D02*
X260000D01*
X200000Y66000D02*
X260000D01*
X200000Y75622D02*
X260000D01*
X200000Y240000D02*
X260000D01*
X260000Y269685D02*
X260000Y226378D01*
X200000Y269685D02*
X200000Y226378D01*
Y263500D02*
X260000D01*
X200000Y269685D02*
X260000D01*
X200000Y236000D02*
X260000D01*
X200000Y226378D02*
X260000D01*
D36*
X103079Y179000D02*
G03*
X86500Y179000I-8290J6713D01*
G01*
X356921Y191000D02*
G03*
X373500Y191000I8290J-6713D01*
G01*
X232000Y193421D02*
G03*
X232000Y210000I6713J8290D01*
G01*
X212000Y193421D02*
G03*
X212000Y210000I6713J8290D01*
G01*
X53500Y191079D02*
G03*
X53500Y174500I-6713J-8290D01*
G01*
X423500Y191079D02*
G03*
X423500Y174500I-6713J-8290D01*
G01*
X393579Y92000D02*
G03*
X377000Y92000I-8290J6713D01*
G01*
X103079Y159000D02*
G03*
X86500Y159000I-8290J6713D01*
G01*
X66421Y104000D02*
G03*
X83000Y104000I8290J-6713D01*
G01*
X356921Y171000D02*
G03*
X373500Y171000I8290J-6713D01*
G01*
X86500Y179000D02*
X103167D01*
X356833Y191000D02*
X373500D01*
X321933Y182488D02*
Y193512D01*
X301067Y182488D02*
X321933D01*
X301067Y193512D02*
X321933D01*
X232000Y193333D02*
Y210000D01*
X212000Y193333D02*
Y210000D01*
X187823Y106260D02*
Y113740D01*
X203177D01*
X187823Y106260D02*
X203177D01*
X53500Y174500D02*
Y191167D01*
X423500Y174500D02*
Y191167D01*
X299167Y199500D02*
X340833Y199500D01*
X299167Y199500D02*
Y203667D01*
X340833D01*
X338333Y217833D02*
X340833Y203667D01*
X301667Y217833D02*
X338333Y217833D01*
X299167Y203667D02*
X301667Y217833D01*
X340833Y199500D02*
Y203667D01*
X326667Y200333D02*
X326667Y199500D01*
X326667Y201167D02*
Y202000D01*
Y203667D02*
X326667Y202833D01*
X313333Y203667D02*
X313333Y202833D01*
X313333Y201167D02*
X313333Y202000D01*
X313333Y199500D02*
Y200333D01*
X119167Y199500D02*
X160833D01*
X119167D02*
Y203667D01*
X160833D01*
X158333Y217833D02*
X160833Y203667D01*
X121667Y217833D02*
X158333D01*
X119167Y203667D02*
X121667Y217833D01*
X160833Y199500D02*
Y203667D01*
X146667Y199500D02*
Y200333D01*
Y201167D02*
Y202000D01*
Y202833D02*
Y203667D01*
X133333D02*
X133333Y202833D01*
X133333Y202000D02*
X133333Y201167D01*
Y199500D02*
Y200333D01*
X181167Y249667D02*
Y250500D01*
Y248000D02*
X181167Y248833D01*
X181167Y246333D02*
Y247167D01*
X167833D02*
X167833Y246333D01*
Y248000D02*
Y248833D01*
X167833Y250500D02*
X167833Y249667D01*
X153667Y246333D02*
Y250500D01*
X192833Y232167D02*
X195333Y246333D01*
X156167Y232167D02*
X192833D01*
X153667Y246333D02*
X156167Y232167D01*
X153667Y246333D02*
X195333D01*
Y250500D01*
X153667Y250500D02*
X195333Y250500D01*
X292167Y249667D02*
Y250500D01*
Y248000D02*
X292167Y248833D01*
X292167Y246333D02*
Y247167D01*
X278833D02*
X278833Y246333D01*
Y248000D02*
Y248833D01*
X278833Y250500D02*
X278833Y249667D01*
X264667Y246333D02*
Y250500D01*
X303833Y232167D02*
X306333Y246333D01*
X267167Y232167D02*
X303833D01*
X264667Y246333D02*
X267167Y232167D01*
X264667Y246333D02*
X306333D01*
Y250500D01*
X264667Y250500D02*
X306333Y250500D01*
X181167Y273667D02*
Y274500D01*
Y272000D02*
X181167Y272833D01*
X181167Y270333D02*
Y271167D01*
X167833D02*
X167833Y270333D01*
Y272000D02*
Y272833D01*
X167833Y274500D02*
X167833Y273667D01*
X153667Y270333D02*
Y274500D01*
X192833Y256167D02*
X195333Y270333D01*
X156167Y256167D02*
X192833D01*
X153667Y270333D02*
X156167Y256167D01*
X153667Y270333D02*
X195333D01*
Y274500D01*
X153667Y274500D02*
X195333Y274500D01*
X292167Y273667D02*
X292167Y274500D01*
X292167Y272833D02*
X292167Y272000D01*
Y270333D02*
Y271167D01*
X278833Y270333D02*
Y271167D01*
X278833Y272833D02*
X278833Y272000D01*
Y273667D02*
Y274500D01*
X264667Y270333D02*
Y274500D01*
X303833Y256167D02*
X306333Y270333D01*
X267167Y256167D02*
X303833D01*
X264667Y270333D02*
X267167Y256167D01*
X264667Y270333D02*
X306333D01*
X306333Y274500D02*
X306333Y270333D01*
X264667Y274500D02*
X306333Y274500D01*
X158933Y182488D02*
Y193512D01*
X138067Y182488D02*
X158933D01*
X138067Y193512D02*
X158933D01*
X181988Y319433D02*
X193012D01*
Y298567D02*
Y319433D01*
X181988Y298567D02*
Y319433D01*
X352067Y358488D02*
Y369512D01*
X372933D01*
X352067Y358488D02*
X372933D01*
X261500Y339000D02*
Y359000D01*
Y339000D02*
X326500D01*
Y359000D01*
X261500D02*
X326500D01*
X261500Y358500D02*
X326500D01*
X261500Y358167D02*
X326500D01*
X261500Y357667D02*
X326500D01*
X261500Y357333D02*
X326500D01*
X133500Y339000D02*
Y359000D01*
Y339000D02*
X198500D01*
Y359000D01*
X133500D02*
X198500D01*
X133500Y358500D02*
X198500D01*
X133500Y358167D02*
X198500D01*
X133500Y357667D02*
X198500D01*
X133500Y357333D02*
X198500D01*
X377000Y92000D02*
X393667D01*
X86500Y159000D02*
X103167D01*
X66333Y104000D02*
X83000D01*
X203177Y96260D02*
Y103740D01*
X187823Y96260D02*
X203177D01*
X187823Y103740D02*
X203177D01*
X356833Y171000D02*
X373500D01*
X256823Y106260D02*
Y113740D01*
X272177D01*
X256823Y106260D02*
X272177D01*
Y96260D02*
Y103740D01*
X256823Y96260D02*
X272177D01*
X256823Y103740D02*
X272177D01*
D37*
X136351Y156745D02*
G03*
X135863Y173888I-11351J8255D01*
G01*
X346351Y156745D02*
G03*
X345863Y173888I-11351J8255D01*
G01*
X316851Y138745D02*
G03*
X316363Y155888I-11351J8255D01*
G01*
X165851Y138745D02*
G03*
X165363Y155888I-11351J8255D01*
G01*
X321255Y75351D02*
G03*
X304112Y74863I-8255J-11351D01*
G01*
X138745Y52570D02*
G03*
X155888Y53058I8255J11351D01*
G01*
X356300Y76419D02*
G03*
X335700Y76419I-10300J-14419D01*
G01*
X103700Y47581D02*
G03*
X124300Y47581I10300J14419D01*
G01*
X338000Y277000D02*
X382000Y321000D01*
X341500Y264500D02*
X383000Y306000D01*
X343500Y258500D02*
X383000Y298000D01*
X346500Y253500D02*
X383000Y290000D01*
X350000Y249000D02*
X383000Y282000D01*
X353500Y244500D02*
X383000Y274000D01*
X358500Y241500D02*
X383000Y266000D01*
X363500Y238500D02*
X383000Y258000D01*
X369000Y236000D02*
X383000Y250000D01*
X375000Y234000D02*
X382000Y241000D01*
X338000Y269000D02*
X382000Y313000D01*
X339500Y286500D02*
X376000Y323000D01*
X32000Y277000D02*
X76000Y321000D01*
X35500Y264500D02*
X77000Y306000D01*
X37500Y258500D02*
X77000Y298000D01*
X40500Y253500D02*
X77000Y290000D01*
X44000Y249000D02*
X77000Y282000D01*
X47500Y244500D02*
X77000Y274000D01*
X52500Y241500D02*
X77000Y266000D01*
X57500Y238500D02*
X77000Y258000D01*
X63000Y236000D02*
X77000Y250000D01*
X69000Y234000D02*
X76000Y241000D01*
X32000Y269000D02*
X76000Y313000D01*
X33500Y286500D02*
X70000Y323000D01*
D38*
X232500Y121500D02*
G03*
X232500Y121500I-1000J0D01*
G01*
X181500D02*
G03*
X181500Y121500I-1000J0D01*
G01*
X100500Y149000D02*
G03*
X100500Y149000I-1000J0D01*
G01*
X409500D02*
G03*
X409500Y149000I-1000J0D01*
G01*
D39*
X241000Y130000D02*
G03*
X241000Y130000I-500J0D01*
G01*
X190000D02*
G03*
X190000Y130000I-500J0D01*
G01*
X91000Y140500D02*
G03*
X91000Y140500I-500J0D01*
G01*
X400000Y140500D02*
G03*
X400000Y140500I-500J0D01*
G01*
D40*
X353754Y314293D02*
G03*
X353754Y241706I30245J-36294D01*
G01*
X47754Y314293D02*
G03*
X47754Y241706I30245J-36294D01*
G01*
D41*
X429252Y278050D02*
G03*
X429252Y278050I-45276J0D01*
G01*
X123252D02*
G03*
X123252Y278050I-45276J0D01*
G01*
X383000Y233709D02*
Y322291D01*
X77000Y233709D02*
Y322291D01*
D42*
X241700Y57063D02*
X241319Y56872D01*
X240748Y56301D01*
Y60300D01*
X240938Y56491D02*
Y60300D01*
X241700D02*
X239986D01*
X205209Y56763D02*
X205019Y56953D01*
X205209Y57143D01*
X205400Y56953D01*
Y56763D01*
X205209Y56382D01*
X205019Y56191D01*
X204448Y56001D01*
X203686D01*
X203115Y56191D01*
X202924Y56572D01*
Y57143D01*
X203115Y57524D01*
X203686Y57715D01*
X204257D01*
X203686Y56001D02*
X203305Y56191D01*
X203115Y56572D01*
Y57143D01*
X203305Y57524D01*
X203686Y57715D01*
X203305Y57905D01*
X202924Y58286D01*
X202734Y58667D01*
Y59238D01*
X202924Y59619D01*
X203115Y59810D01*
X203686Y60000D01*
X204448D01*
X205019Y59810D01*
X205209Y59619D01*
X205400Y59238D01*
Y59048D01*
X205209Y58857D01*
X205019Y59048D01*
X205209Y59238D01*
X203115Y58096D02*
X202924Y58667D01*
Y59238D01*
X203115Y59619D01*
X203305Y59810D01*
X203686Y60000D01*
X218300Y244937D02*
X218681Y245128D01*
X219252Y245699D01*
Y241700D01*
X219062Y245509D02*
Y241700D01*
X218300D02*
X220014D01*
X254790Y245237D02*
X254981Y245047D01*
X254790Y244857D01*
X254600Y245047D01*
Y245237D01*
X254790Y245618D01*
X254981Y245809D01*
X255552Y245999D01*
X256314D01*
X256885Y245809D01*
X257076Y245428D01*
Y244857D01*
X256885Y244476D01*
X256314Y244285D01*
X255743D01*
X256314Y245999D02*
X256695Y245809D01*
X256885Y245428D01*
Y244857D01*
X256695Y244476D01*
X256314Y244285D01*
X256695Y244095D01*
X257076Y243714D01*
X257266Y243333D01*
Y242762D01*
X257076Y242381D01*
X256885Y242191D01*
X256314Y242000D01*
X255552D01*
X254981Y242191D01*
X254790Y242381D01*
X254600Y242762D01*
Y242952D01*
X254790Y243143D01*
X254981Y242952D01*
X254790Y242762D01*
X256885Y243904D02*
X257076Y243333D01*
Y242762D01*
X256885Y242381D01*
X256695Y242191D01*
X256314Y242000D01*
D43*
X252000Y50250D02*
D03*
X208000Y251750D02*
D03*
D44*
X302248Y188003D02*
D03*
X139248Y188001D02*
D03*
X371753Y363998D02*
D03*
D45*
X201996Y110000D02*
D03*
X189004Y100000D02*
D03*
X270996Y110000D02*
D03*
X258004Y100000D02*
D03*
D46*
X187490Y299748D02*
D03*
M02*
