G04 Layer_Color=128*
%FSLAX25Y25*%
%MOIN*%
G70*
G01*
G75*
%ADD10C,0.01000*%
%ADD11C,0.00200*%
D10*
X0Y378000D02*
X460000D01*
X0Y0D02*
X460000D01*
X0D02*
Y378000D01*
X460000Y0D02*
Y378000D01*
D11*
X207441Y52000D02*
X212559D01*
X210000Y49441D02*
Y54559D01*
X227441Y52000D02*
X232559D01*
X230000Y49441D02*
Y54559D01*
X247441Y52000D02*
X252559D01*
X250000Y49441D02*
Y54559D01*
X247441Y250000D02*
X252559D01*
X250000Y247441D02*
Y252559D01*
X227441Y250000D02*
X232559D01*
X230000Y247441D02*
Y252559D01*
X207441Y250000D02*
X212559D01*
X210000Y247441D02*
Y252559D01*
X92925Y185000D02*
X96075D01*
X94500Y183425D02*
Y186575D01*
X82925Y185000D02*
X86075D01*
X84500Y183425D02*
Y186575D01*
X102925Y185000D02*
X106075D01*
X104500Y183425D02*
Y186575D01*
X363925Y185000D02*
X367075D01*
X365500Y183425D02*
Y186575D01*
X373925Y185000D02*
X377075D01*
X375500Y183425D02*
Y186575D01*
X353925Y185000D02*
X357075D01*
X355500Y183425D02*
Y186575D01*
X118504Y165000D02*
X121653D01*
X120079Y163425D02*
Y166575D01*
X128347Y165000D02*
X131496D01*
X129921Y163425D02*
Y166575D01*
X328504Y165000D02*
X331653D01*
X330079Y163425D02*
Y166575D01*
X338347Y165000D02*
X341496D01*
X339921Y163425D02*
Y166575D01*
X299004Y147000D02*
X302153D01*
X300579Y145425D02*
Y148575D01*
X308846Y147000D02*
X311996D01*
X310421Y145425D02*
Y148575D01*
X148004Y147000D02*
X151154D01*
X149579Y145425D02*
Y148575D01*
X157846Y147000D02*
X160996D01*
X159421Y145425D02*
Y148575D01*
X187583Y166000D02*
X190732D01*
X189157Y164425D02*
Y167575D01*
X207268Y166000D02*
X210417D01*
X208842Y164425D02*
Y167575D01*
X236583Y166000D02*
X239732D01*
X238158Y164425D02*
Y167575D01*
X256268Y166000D02*
X259417D01*
X257842Y164425D02*
Y167575D01*
X329728Y188000D02*
X334453D01*
X332090Y185638D02*
Y190362D01*
X288547Y188000D02*
X293272D01*
X290910Y185638D02*
Y190362D01*
X177532Y49158D02*
X181468D01*
X179500Y47189D02*
Y51126D01*
X177532Y68843D02*
X181468D01*
X179500Y66874D02*
Y70811D01*
X278532Y68843D02*
X282469D01*
X280500Y66874D02*
Y70811D01*
X278532Y49158D02*
X282469D01*
X280500Y47189D02*
Y51126D01*
X343268Y142000D02*
X346417D01*
X344843Y140425D02*
Y143575D01*
X323583Y142000D02*
X326732D01*
X325157Y140425D02*
Y143575D01*
X133268Y142000D02*
X136417D01*
X134843Y140425D02*
Y143575D01*
X113583Y142000D02*
X116732D01*
X115157Y140425D02*
Y143575D01*
X162768Y123000D02*
X165917D01*
X164342Y121425D02*
Y124575D01*
X143083Y123000D02*
X146232D01*
X144658Y121425D02*
Y124575D01*
X294083Y123000D02*
X297232D01*
X295657Y121425D02*
Y124575D01*
X313768Y123000D02*
X316917D01*
X315342Y121425D02*
Y124575D01*
X40728Y150000D02*
X44272D01*
X42500Y148228D02*
Y151772D01*
X40728Y160000D02*
X44272D01*
X42500Y158228D02*
Y161772D01*
X415728Y160000D02*
X419272D01*
X417500Y158228D02*
Y161772D01*
X415728Y150000D02*
X419272D01*
X417500Y148228D02*
Y151772D01*
X311425Y68921D02*
X314575D01*
X313000Y67347D02*
Y70496D01*
X311425Y59079D02*
X314575D01*
X313000Y57504D02*
Y60654D01*
X145425Y59000D02*
X148575D01*
X147000Y57425D02*
Y60575D01*
X145425Y68843D02*
X148575D01*
X147000Y67268D02*
Y70417D01*
X236425Y202000D02*
X239575D01*
X238000Y200425D02*
Y203575D01*
X236425Y212000D02*
X239575D01*
X238000Y210425D02*
Y213575D01*
X236425Y192000D02*
X239575D01*
X238000Y190425D02*
Y193575D01*
X216425Y202000D02*
X219575D01*
X218000Y200425D02*
Y203575D01*
X216425Y212000D02*
X219575D01*
X218000Y210425D02*
Y213575D01*
X216425Y192000D02*
X219575D01*
X218000Y190425D02*
Y193575D01*
X238925Y152500D02*
X242075D01*
X240500Y150925D02*
Y154075D01*
X248925Y152500D02*
X252075D01*
X250500Y150925D02*
Y154075D01*
X258925Y152500D02*
X262075D01*
X260500Y150925D02*
Y154075D01*
X268925Y152500D02*
X272075D01*
X270500Y150925D02*
Y154075D01*
X268925Y122500D02*
X272075D01*
X270500Y120925D02*
Y124075D01*
X258925Y122500D02*
X262075D01*
X260500Y120925D02*
Y124075D01*
X248925Y122500D02*
X252075D01*
X250500Y120925D02*
Y124075D01*
X238925Y122500D02*
X242075D01*
X240500Y120925D02*
Y124075D01*
X187925Y152500D02*
X191075D01*
X189500Y150925D02*
Y154075D01*
X197925Y152500D02*
X201075D01*
X199500Y150925D02*
Y154075D01*
X207925Y152500D02*
X211075D01*
X209500Y150925D02*
Y154075D01*
X217925Y152500D02*
X221075D01*
X219500Y150925D02*
Y154075D01*
X217925Y122500D02*
X221075D01*
X219500Y120925D02*
Y124075D01*
X207925Y122500D02*
X211075D01*
X209500Y120925D02*
Y124075D01*
X197925Y122500D02*
X201075D01*
X199500Y120925D02*
Y124075D01*
X187925Y122500D02*
X191075D01*
X189500Y120925D02*
Y124075D01*
X207705Y110000D02*
X211248D01*
X209476Y108228D02*
Y111772D01*
X179752Y110000D02*
X183295D01*
X181524Y108228D02*
Y111772D01*
X45925Y182500D02*
X49075D01*
X47500Y180925D02*
Y184075D01*
X45925Y172500D02*
X49075D01*
X47500Y170925D02*
Y174075D01*
X45925Y192500D02*
X49075D01*
X47500Y190925D02*
Y194075D01*
X415925Y182500D02*
X419075D01*
X417500Y180925D02*
Y184075D01*
X415925Y172500D02*
X419075D01*
X417500Y170925D02*
Y174075D01*
X415925Y192500D02*
X419075D01*
X417500Y190925D02*
Y194075D01*
X360228Y207000D02*
X363772D01*
X362000Y205228D02*
Y208772D01*
X350228Y207000D02*
X353772D01*
X352000Y205228D02*
Y208772D01*
X327250Y212000D02*
X332750D01*
X330000Y209250D02*
Y214750D01*
X317250Y212000D02*
X322750D01*
X320000Y209250D02*
Y214750D01*
X307250Y212000D02*
X312750D01*
X310000Y209250D02*
Y214750D01*
X106228Y207000D02*
X109772D01*
X108000Y205228D02*
Y208772D01*
X96228Y207000D02*
X99772D01*
X98000Y205228D02*
Y208772D01*
X147250Y212000D02*
X152750D01*
X150000Y209250D02*
Y214750D01*
X137250Y212000D02*
X142750D01*
X140000Y209250D02*
Y214750D01*
X127250Y212000D02*
X132750D01*
X130000Y209250D02*
Y214750D01*
X181750Y238000D02*
X187250D01*
X184500Y235250D02*
Y240750D01*
X161750Y238000D02*
X167250D01*
X164500Y235250D02*
Y240750D01*
X292750Y238000D02*
X298250D01*
X295500Y235250D02*
Y240750D01*
X272750Y238000D02*
X278250D01*
X275500Y235250D02*
Y240750D01*
X181750Y262000D02*
X187250D01*
X184500Y259250D02*
Y264750D01*
X161750Y262000D02*
X167250D01*
X164500Y259250D02*
Y264750D01*
X292750Y262000D02*
X298250D01*
X295500Y259250D02*
Y264750D01*
X272750Y262000D02*
X278250D01*
X275500Y259250D02*
Y264750D01*
X88925Y118000D02*
X92075D01*
X90500Y116425D02*
Y119575D01*
X78925Y118000D02*
X82075D01*
X80500Y116425D02*
Y119575D01*
X68925Y118000D02*
X72075D01*
X70500Y116425D02*
Y119575D01*
X58925Y118000D02*
X62075D01*
X60500Y116425D02*
Y119575D01*
X58925Y148000D02*
X62075D01*
X60500Y146425D02*
Y149575D01*
X68925Y148000D02*
X72075D01*
X70500Y146425D02*
Y149575D01*
X78925Y148000D02*
X82075D01*
X80500Y146425D02*
Y149575D01*
X88925Y148000D02*
X92075D01*
X90500Y146425D02*
Y149575D01*
X397925Y118000D02*
X401075D01*
X399500Y116425D02*
Y119575D01*
X387925Y118000D02*
X391075D01*
X389500Y116425D02*
Y119575D01*
X377925Y118000D02*
X381075D01*
X379500Y116425D02*
Y119575D01*
X367925Y118000D02*
X371075D01*
X369500Y116425D02*
Y119575D01*
X367925Y148000D02*
X371075D01*
X369500Y146425D02*
Y149575D01*
X377925Y148000D02*
X381075D01*
X379500Y146425D02*
Y149575D01*
X387925Y148000D02*
X391075D01*
X389500Y146425D02*
Y149575D01*
X397925Y148000D02*
X401075D01*
X399500Y146425D02*
Y149575D01*
X166728Y188000D02*
X171453D01*
X169091Y185638D02*
Y190362D01*
X125547Y188000D02*
X130272D01*
X127909Y185638D02*
Y190362D01*
X96602Y103500D02*
X98965D01*
X97783Y102319D02*
Y104681D01*
X132035Y103500D02*
X134398D01*
X133217Y102319D02*
Y104681D01*
X361035Y103500D02*
X363398D01*
X362217Y102319D02*
Y104681D01*
X325602Y103500D02*
X327965D01*
X326783Y102319D02*
Y104681D01*
X322602Y123000D02*
X324965D01*
X323783Y121819D02*
Y124181D01*
X358035Y123000D02*
X360398D01*
X359216Y121819D02*
Y124181D01*
X135035Y123000D02*
X137398D01*
X136217Y121819D02*
Y124181D01*
X99602Y123000D02*
X101964D01*
X100784Y121819D02*
Y124181D01*
X236902Y180000D02*
X239265D01*
X238083Y178819D02*
Y181181D01*
X272335Y180000D02*
X274698D01*
X273517Y178819D02*
Y181181D01*
X218535Y180000D02*
X220898D01*
X219717Y178819D02*
Y181181D01*
X183102Y180000D02*
X185465D01*
X184283Y178819D02*
Y181181D01*
X332035Y88000D02*
X334398D01*
X333217Y86819D02*
Y89181D01*
X296602Y88000D02*
X298965D01*
X297783Y86819D02*
Y89181D01*
X161035Y88000D02*
X163398D01*
X162217Y86819D02*
Y89181D01*
X125602Y88000D02*
X127965D01*
X126783Y86819D02*
Y89181D01*
X224035Y88000D02*
X226398D01*
X225217Y86819D02*
Y89181D01*
X188602Y88000D02*
X190965D01*
X189783Y86819D02*
Y89181D01*
X269035Y88000D02*
X271398D01*
X270217Y86819D02*
Y89181D01*
X233602Y88000D02*
X235965D01*
X234783Y86819D02*
Y89181D01*
X167602Y212000D02*
X169965D01*
X168783Y210819D02*
Y213181D01*
X203035Y212000D02*
X205398D01*
X204217Y210819D02*
Y213181D01*
X254602Y212000D02*
X256965D01*
X255783Y210819D02*
Y213181D01*
X290035Y212000D02*
X292398D01*
X291217Y210819D02*
Y213181D01*
X321819Y25500D02*
X324181D01*
X323000Y24319D02*
Y26681D01*
X341819Y25500D02*
X344181D01*
X343000Y24319D02*
Y26681D01*
X331819Y25500D02*
X334181D01*
X333000Y24319D02*
Y26681D01*
X115819Y25500D02*
X118181D01*
X117000Y24319D02*
Y26681D01*
X135819Y25500D02*
X138181D01*
X137000Y24319D02*
Y26681D01*
X125819Y25500D02*
X128181D01*
X127000Y24319D02*
Y26681D01*
X344228Y68890D02*
X347772D01*
X346000Y67118D02*
Y70661D01*
X344228Y55110D02*
X347772D01*
X346000Y53339D02*
Y56882D01*
X112228Y55110D02*
X115772D01*
X114000Y53339D02*
Y56882D01*
X112228Y68890D02*
X115772D01*
X114000Y67118D02*
Y70661D01*
X92536Y37000D02*
X94898D01*
X93717Y35819D02*
Y38181D01*
X57102Y37000D02*
X59465D01*
X58284Y35819D02*
Y38181D01*
X191535Y32000D02*
X193898D01*
X192717Y30819D02*
Y33181D01*
X156102Y32000D02*
X158465D01*
X157283Y30819D02*
Y33181D01*
X156102Y18500D02*
X158465D01*
X157283Y17319D02*
Y19681D01*
X191535Y18500D02*
X193898D01*
X192717Y17319D02*
Y19681D01*
X31319Y133417D02*
X33681D01*
X32500Y132235D02*
Y134598D01*
X31319Y97983D02*
X33681D01*
X32500Y96802D02*
Y99164D01*
X72319Y200217D02*
X74681D01*
X73500Y199035D02*
Y201398D01*
X72319Y164783D02*
X74681D01*
X73500Y163602D02*
Y165965D01*
X60319Y200217D02*
X62681D01*
X61500Y199035D02*
Y201398D01*
X60319Y164783D02*
X62681D01*
X61500Y163602D02*
Y165965D01*
X385319Y164784D02*
X387681D01*
X386500Y163602D02*
Y165965D01*
X385319Y200217D02*
X387681D01*
X386500Y199035D02*
Y201398D01*
X397319Y164784D02*
X399681D01*
X398500Y163602D02*
Y165965D01*
X397319Y200217D02*
X399681D01*
X398500Y199035D02*
Y201398D01*
X426319Y97983D02*
X428681D01*
X427500Y96802D02*
Y99165D01*
X426319Y133416D02*
X428681D01*
X427500Y132235D02*
Y134598D01*
X398535Y31500D02*
X400898D01*
X399717Y30319D02*
Y32681D01*
X363102Y31500D02*
X365465D01*
X364283Y30319D02*
Y32681D01*
X301535Y32000D02*
X303898D01*
X302717Y30819D02*
Y33181D01*
X266102Y32000D02*
X268465D01*
X267283Y30819D02*
Y33181D01*
X301535Y18500D02*
X303898D01*
X302717Y17319D02*
Y19681D01*
X266102Y18500D02*
X268465D01*
X267283Y17319D02*
Y19681D01*
X359378Y278000D02*
X367252D01*
X363315Y274063D02*
Y281937D01*
X398748Y278000D02*
X406622D01*
X402685Y274063D02*
Y281937D01*
X185138Y329591D02*
X189862D01*
X187500Y327228D02*
Y331953D01*
X185138Y288409D02*
X189862D01*
X187500Y286047D02*
Y290772D01*
X339547Y364000D02*
X344272D01*
X341910Y361638D02*
Y366362D01*
X380728Y364000D02*
X385453D01*
X383090Y361638D02*
Y366362D01*
X290000Y349000D02*
X298000D01*
X294000Y345000D02*
Y353000D01*
X268500Y349000D02*
X276500D01*
X272500Y345000D02*
Y353000D01*
X311500Y349000D02*
X319500D01*
X315500Y345000D02*
Y353000D01*
X162000Y349000D02*
X170000D01*
X166000Y345000D02*
Y353000D01*
X140500Y349000D02*
X148500D01*
X144500Y345000D02*
Y353000D01*
X183500Y349000D02*
X191500D01*
X187500Y345000D02*
Y353000D01*
X53378Y278000D02*
X61252D01*
X57315Y274063D02*
Y281937D01*
X92748Y278000D02*
X100622D01*
X96685Y274063D02*
Y281937D01*
X73228Y8500D02*
X76772D01*
X75000Y6728D02*
Y10272D01*
X73228Y18500D02*
X76772D01*
X75000Y16728D02*
Y20272D01*
X383425Y98000D02*
X386575D01*
X385000Y96425D02*
Y99575D01*
X373425Y98000D02*
X376575D01*
X375000Y96425D02*
Y99575D01*
X393425Y98000D02*
X396575D01*
X395000Y96425D02*
Y99575D01*
X92925Y165000D02*
X96075D01*
X94500Y163425D02*
Y166575D01*
X82925Y165000D02*
X86075D01*
X84500Y163425D02*
Y166575D01*
X102925Y165000D02*
X106075D01*
X104500Y163425D02*
Y166575D01*
X73425Y98000D02*
X76575D01*
X75000Y96425D02*
Y99575D01*
X83425Y98000D02*
X86575D01*
X85000Y96425D02*
Y99575D01*
X63425Y98000D02*
X66575D01*
X65000Y96425D02*
Y99575D01*
X179752Y100000D02*
X183295D01*
X181524Y98228D02*
Y101772D01*
X207705Y100000D02*
X211248D01*
X209476Y98228D02*
Y101772D01*
X363925Y165000D02*
X367075D01*
X365500Y163425D02*
Y166575D01*
X373925Y165000D02*
X377075D01*
X375500Y163425D02*
Y166575D01*
X353925Y165000D02*
X357075D01*
X355500Y163425D02*
Y166575D01*
X276705Y110000D02*
X280248D01*
X278476Y108228D02*
Y111772D01*
X248752Y110000D02*
X252295D01*
X250524Y108228D02*
Y111772D01*
X248752Y100000D02*
X252295D01*
X250524Y98228D02*
Y101772D01*
X276705Y100000D02*
X280248D01*
X278476Y98228D02*
Y101772D01*
X16750Y358000D02*
X33250D01*
X25000Y349750D02*
Y366250D01*
X16750Y22000D02*
X33250D01*
X25000Y13750D02*
Y30250D01*
X426750Y22000D02*
X443250D01*
X435000Y13750D02*
Y30250D01*
X426750Y358000D02*
X443250D01*
X435000Y349750D02*
Y366250D01*
X174925Y123158D02*
X178075D01*
X176500Y121583D02*
Y124732D01*
X174925Y142842D02*
X178075D01*
X176500Y141268D02*
Y144417D01*
X281925Y123158D02*
X285075D01*
X283500Y121583D02*
Y124732D01*
X281925Y142842D02*
X285075D01*
X283500Y141268D02*
Y144417D01*
M02*
