M48
;Layer_Color=9474304
;FILE_FORMAT=2:5
INCH,TZ
;TYPE=PLATED
T1F00S00C0.02362
T2F00S00C0.03150
T3F00S00C0.03543
T4F00S00C0.03937
T5F00S00C0.04724
T6F00S00C0.05118
T7F00S00C0.05500
T8F00S00C0.07874
T9F00S00C0.08000
T10F00S00C0.16500
%
T01
X58284Y37000
X93717
X117000Y25500
X127000
X137000
X157283Y32000
Y18500
X192717
Y32000
X267283
Y18500
X302717
Y32000
X323000Y25500
X333000
X343000
X364283Y31500
X399717
X427500Y97983
Y133416
X398500Y164784
X386500
Y200217
X398500
X359216Y123000
X362217Y103500
X326783
X333217Y88000
X323783Y123000
X297783Y88000
X270217
X234783
X225217
X189783
X162217
X184283Y180000
X219717
X238083
X273517
X136217Y123000
X133217Y103500
X126783Y88000
X97783Y103500
X100784Y123000
X73500Y164783
X61500
Y200217
X73500
X32500Y133417
Y97983
X168783Y212000
X204217
X255783
X291217
T02
X315342Y123000
X325157Y142000
X344843
X339921Y165000
X330079
X355500
X365500
X375500
Y185000
X365500
X355500
X369500Y148000
X379500
X389500
X399500
Y118000
X389500
X379500
X369500
X375000Y98000
X385000
X395000
X417500Y172500
Y182500
Y192500
X310421Y147000
X300579
X283500Y142842
Y123158
X295657Y123000
X270500Y122500
X260500
X250500
X240500
X219500
X209500
X199500
X189500
X176500Y123158
X164342Y123000
X159421Y147000
X176500Y142842
X189500Y152500
X199500
X209500
X219500
X240500
X250500
X260500
X270500
X257842Y166000
X238158
X238000Y192000
Y202000
X218000
Y192000
X208842Y166000
X189157
X313000Y68921
Y59079
X147000Y59000
Y68843
X144658Y123000
X134843Y142000
X115157
X120079Y165000
X129921
X104500
X94500
X84500
Y185000
X94500
X104500
X90500Y148000
X80500Y148000
X70500
X60500Y148000
Y118000
X70500
X80500
X90500
X85000Y98000
X75000
X65000
X47500Y172500
Y182500
Y192500
X149579Y147000
X218000Y212000
X238000
T03
X75000Y8500
Y18500
X346000Y55110
Y68890
X417500Y150000
Y160000
X278476Y110000
Y100000
X250524
Y110000
X209476
Y100000
X181524
Y110000
X114000Y68890
Y55110
X42500Y150000
Y160000
X98000Y207000
X108000
X352000
X362000
T04
X179500Y49158
Y68843
X280500Y68843
Y49158
T05
X332090Y188000
X290910
X169091
X127909
X187500Y288409
Y329591
X341910Y364000
X383090
T06
X210000Y52000
X230000
X250000
X250000Y250000
X230000
X210000
T07
X130000Y212000
X140000
X150000
X164500Y238000
X184500
X184500Y262000
X164500
X275500
X295500
Y238000
X275500
X310000Y212000
X320000
X330000
T08
X57315Y278000
X96685
X363315
X402685
T09
X144500Y349000
X166000
X187500
X272500
X294000
X315500
T10
X25000Y22000
X435000
X25000Y358000
X435000
M30
