G04 Layer_Physical_Order=1*
G04 Layer_Color=255*
%FSLAX25Y25*%
%MOIN*%
G70*
G01*
G75*
%ADD10C,0.03000*%
%ADD11C,0.09000*%
%ADD12C,0.05000*%
%ADD13C,0.01000*%
%ADD14C,0.07000*%
%ADD15C,0.09842*%
%ADD16R,0.09842X0.09842*%
%ADD17O,0.07000X0.09000*%
%ADD18R,0.06693X0.06693*%
%ADD19C,0.06693*%
%ADD20C,0.05905*%
%ADD21C,0.07874*%
%ADD22R,0.07874X0.07874*%
%ADD23R,0.06693X0.06693*%
%ADD24O,0.09000X0.07000*%
%ADD25R,0.05905X0.05905*%
%ADD26C,0.08661*%
%ADD27C,0.06299*%
%ADD28C,0.07087*%
%ADD29R,0.07087X0.07087*%
%ADD30C,0.17716*%
%ADD31R,0.17716X0.17716*%
%ADD32R,0.07874X0.07874*%
%ADD33C,0.11811*%
%ADD34C,0.23000*%
G36*
X460500Y377000D02*
Y-1000D01*
X1500D01*
X-1000Y1500D01*
Y379000D01*
X458500D01*
X460500Y377000D01*
D02*
G37*
%LPC*%
G36*
X164342Y127278D02*
X161317Y126025D01*
X160064Y123000D01*
X161317Y119975D01*
X164342Y118722D01*
X167368Y119975D01*
X168621Y123000D01*
X167368Y126025D01*
X164342Y127278D01*
D02*
G37*
G36*
X427500Y102475D02*
X424324Y101159D01*
X423008Y97983D01*
X424324Y94807D01*
X427500Y93492D01*
X430676Y94807D01*
X431991Y97983D01*
X430676Y101159D01*
X427500Y102475D01*
D02*
G37*
G36*
X32500Y102475D02*
X29324Y101159D01*
X28008Y97983D01*
X29324Y94807D01*
X32500Y93492D01*
X35676Y94807D01*
X36992Y97983D01*
X35676Y101159D01*
X32500Y102475D01*
D02*
G37*
G36*
X295657Y127278D02*
X292632Y126025D01*
X291379Y123000D01*
X292632Y119975D01*
X295657Y118722D01*
X298683Y119975D01*
X299936Y123000D01*
X298683Y126025D01*
X295657Y127278D01*
D02*
G37*
G36*
X399500Y122705D02*
X396173Y121327D01*
X395582Y119900D01*
X393418D01*
X392827Y121327D01*
X389500Y122705D01*
X386173Y121327D01*
X385582Y119900D01*
X383418D01*
X382827Y121327D01*
X379500Y122705D01*
X376173Y121327D01*
X375582Y119900D01*
X373418D01*
X372827Y121327D01*
X369500Y122705D01*
X366173Y121327D01*
X364795Y118000D01*
X366173Y114673D01*
X369500Y113295D01*
X372827Y114673D01*
X373418Y116100D01*
X375582D01*
X376173Y114673D01*
X379500Y113295D01*
X382827Y114673D01*
X383418Y116100D01*
X385582D01*
X386173Y114673D01*
X389500Y113295D01*
X392827Y114673D01*
X393418Y116100D01*
X395582D01*
X396173Y114673D01*
X399500Y113295D01*
X402827Y114673D01*
X404205Y118000D01*
X402827Y121327D01*
X399500Y122705D01*
D02*
G37*
G36*
X283500Y127436D02*
X280475Y126183D01*
X279222Y123158D01*
X280475Y120132D01*
X283500Y118879D01*
X286525Y120132D01*
X287778Y123158D01*
X286525Y126183D01*
X283500Y127436D01*
D02*
G37*
G36*
X176500D02*
X173475Y126183D01*
X172222Y123158D01*
X173475Y120132D01*
X176500Y118879D01*
X179525Y120132D01*
X180778Y123158D01*
X179525Y126183D01*
X176500Y127436D01*
D02*
G37*
G36*
X350543Y59654D02*
X341457D01*
Y50567D01*
X350543D01*
Y59654D01*
D02*
G37*
G36*
X186000Y373953D02*
X59500D01*
X55291Y372210D01*
X50291Y367210D01*
X48547Y363000D01*
Y341953D01*
X21000D01*
X16791Y340210D01*
X10791Y334209D01*
X9047Y330000D01*
Y74000D01*
X10791Y69791D01*
X15901Y64680D01*
X20110Y62937D01*
X141761D01*
X143098Y60937D01*
X142757Y60115D01*
X124321Y41679D01*
X123212Y39000D01*
Y27198D01*
X123082Y26886D01*
X120918D01*
X120176Y28676D01*
X118479Y29379D01*
X108179Y39679D01*
X105500Y40788D01*
X95414D01*
X93717Y41491D01*
X90541Y40176D01*
X89225Y37000D01*
X90541Y33824D01*
X93717Y32509D01*
X95414Y33212D01*
X103931D01*
X113121Y24022D01*
X113459Y23206D01*
X112329Y21206D01*
X79347D01*
Y22847D01*
X70653D01*
Y14154D01*
X72065D01*
X72463Y12154D01*
X71673Y11827D01*
X70295Y8500D01*
X71673Y5173D01*
X75000Y3796D01*
X78327Y5173D01*
X78584Y5794D01*
X299500D01*
X301413Y6587D01*
X304630Y9803D01*
X304630Y9803D01*
X305422Y11716D01*
Y15129D01*
X305892Y15324D01*
X307208Y18500D01*
X305892Y21676D01*
X302717Y22991D01*
X299541Y21676D01*
X298225Y18500D01*
X299541Y15324D01*
X300011Y15129D01*
Y12837D01*
X298379Y11206D01*
X79127D01*
X78277Y12154D01*
X79169Y14154D01*
X79347D01*
Y15794D01*
X153913D01*
X154107Y15324D01*
X157283Y14008D01*
X160459Y15324D01*
X161775Y18500D01*
X160459Y21676D01*
X157283Y22991D01*
X154107Y21676D01*
X153913Y21206D01*
X141671D01*
X140541Y23206D01*
X140879Y24022D01*
X145069Y28212D01*
X155586D01*
X157283Y27509D01*
X160459Y28824D01*
X161775Y32000D01*
X160459Y35176D01*
X157283Y36492D01*
X155586Y35788D01*
X143500D01*
X140821Y34679D01*
X135521Y29379D01*
X133824Y28676D01*
X133790Y28595D01*
X131442Y28152D01*
X130788Y28832D01*
Y37431D01*
X148115Y54757D01*
X150327Y55673D01*
X151705Y59000D01*
X150922Y60889D01*
X152258Y62889D01*
X177034D01*
X184096Y55828D01*
X182963Y54132D01*
X179500Y55567D01*
X174968Y53689D01*
X173091Y49158D01*
X174968Y44625D01*
X179500Y42748D01*
X184032Y44625D01*
X185909Y49158D01*
X184475Y52620D01*
X186170Y53753D01*
X193633Y46290D01*
X197843Y44547D01*
X206212D01*
Y38069D01*
X203931Y35788D01*
X194414D01*
X192717Y36492D01*
X189541Y35176D01*
X188225Y32000D01*
X189541Y28824D01*
X192717Y27509D01*
X194414Y28212D01*
X205500D01*
X206212Y27736D01*
Y24569D01*
X203931Y22288D01*
X194414D01*
X192717Y22991D01*
X189541Y21676D01*
X188225Y18500D01*
X189541Y15324D01*
X192717Y14008D01*
X194414Y14712D01*
X205500D01*
X208179Y15821D01*
X212679Y20321D01*
X213788Y23000D01*
Y36500D01*
Y47160D01*
X214532Y47468D01*
X216409Y52000D01*
X215653Y53826D01*
X227130Y65303D01*
X227923Y67216D01*
Y84629D01*
X228393Y84824D01*
X228918Y86092D01*
X230780D01*
X231394Y85340D01*
X231608Y84824D01*
X231922Y84694D01*
X232078Y84504D01*
Y67216D01*
X232870Y65303D01*
X244079Y54094D01*
Y46079D01*
X246212D01*
Y36500D01*
Y23000D01*
X247321Y20321D01*
X251821Y15821D01*
X254500Y14712D01*
X265586D01*
X267283Y14008D01*
X270459Y15324D01*
X271775Y18500D01*
X270459Y21676D01*
X267283Y22991D01*
X265586Y22288D01*
X256069D01*
X253788Y24569D01*
Y27736D01*
X254500Y28212D01*
X265586D01*
X267283Y27509D01*
X270459Y28824D01*
X271775Y32000D01*
X270459Y35176D01*
X267283Y36492D01*
X265586Y35788D01*
X256069D01*
X253788Y38069D01*
Y44547D01*
X262158D01*
X266367Y46290D01*
X273830Y53753D01*
X275525Y52620D01*
X274091Y49158D01*
X275968Y44625D01*
X280500Y42748D01*
X285032Y44625D01*
X286909Y49158D01*
X285032Y53689D01*
X280500Y55567D01*
X277037Y54132D01*
X275904Y55828D01*
X283045Y62968D01*
X308653D01*
Y54732D01*
X311989D01*
X329212Y37510D01*
Y27198D01*
X329082Y26886D01*
X326918D01*
X326176Y28676D01*
X324479Y29379D01*
X319179Y34679D01*
X316500Y35788D01*
X304414D01*
X302717Y36492D01*
X299541Y35176D01*
X298225Y32000D01*
X299541Y28824D01*
X302717Y27509D01*
X304414Y28212D01*
X314931D01*
X319121Y24022D01*
X319824Y22324D01*
X323000Y21009D01*
X326176Y22324D01*
X326918Y24114D01*
X329082D01*
X329824Y22324D01*
X333000Y21009D01*
X336176Y22324D01*
X336918Y24114D01*
X339082D01*
X339824Y22324D01*
X343000Y21009D01*
X346176Y22324D01*
X346879Y24022D01*
X350569Y27712D01*
X362586D01*
X364283Y27009D01*
X367459Y28324D01*
X368775Y31500D01*
X367459Y34676D01*
X364283Y35991D01*
X362586Y35288D01*
X349000D01*
X346321Y34179D01*
X341522Y29379D01*
X339824Y28676D01*
X339790Y28595D01*
X337442Y28152D01*
X336788Y28832D01*
Y39079D01*
X335679Y41758D01*
X317347Y60090D01*
Y62937D01*
X439610D01*
X443820Y64680D01*
X449209Y70070D01*
X450953Y74279D01*
Y333000D01*
X449209Y337210D01*
X445000Y338953D01*
X415953D01*
Y347000D01*
X414210Y351209D01*
X412210Y353209D01*
X408000Y354953D01*
X385796D01*
Y359063D01*
X388028D01*
Y368937D01*
X378153D01*
Y359063D01*
X380385D01*
Y354953D01*
X319173D01*
X315500Y356474D01*
X310215Y354285D01*
X308026Y349000D01*
X310215Y343715D01*
X315500Y341526D01*
X319173Y343047D01*
X404047D01*
Y333000D01*
X405791Y328790D01*
X410000Y327047D01*
X439047D01*
Y76745D01*
X437144Y74843D01*
X313076D01*
X313000Y74874D01*
X281411D01*
X280500Y75252D01*
X275968Y73374D01*
X275512Y72274D01*
X264554Y61315D01*
X263502Y61705D01*
X262706Y62296D01*
Y74879D01*
X265621Y77794D01*
X381500D01*
X383413Y78587D01*
X386913Y82087D01*
X387706Y84000D01*
X387706Y84000D01*
Y93250D01*
X388444Y93556D01*
X388918Y94699D01*
X391082D01*
X391556Y93556D01*
X395000Y92129D01*
X398444Y93556D01*
X399164Y95294D01*
X408500D01*
X410413Y96087D01*
X411413Y97087D01*
X411413Y97087D01*
X412206Y99000D01*
Y134500D01*
X411413Y136413D01*
X409913Y137913D01*
X408000Y138706D01*
X372206D01*
Y144416D01*
X372827Y144673D01*
X373418Y146100D01*
X375582D01*
X376173Y144673D01*
X379500Y143295D01*
X382827Y144673D01*
X383418Y146100D01*
X385582D01*
X386173Y144673D01*
X389500Y143295D01*
X392827Y144673D01*
X393154Y145463D01*
X395153Y145065D01*
Y143654D01*
X403847D01*
Y152347D01*
X395153D01*
Y150935D01*
X393154Y150537D01*
X392827Y151327D01*
X389500Y152705D01*
X386173Y151327D01*
X385582Y149900D01*
X383418D01*
X382827Y151327D01*
X379500Y152705D01*
X376173Y151327D01*
X375582Y149900D01*
X373418D01*
X372827Y151327D01*
X369500Y152705D01*
X366173Y151327D01*
X364795Y148000D01*
X366173Y144673D01*
X366794Y144416D01*
Y138706D01*
X361500D01*
X359587Y137913D01*
X357303Y135630D01*
X356511Y133716D01*
Y126371D01*
X356041Y126176D01*
X354725Y123000D01*
X356041Y119824D01*
X359216Y118509D01*
X362392Y119824D01*
X363708Y123000D01*
X362392Y126176D01*
X361923Y126371D01*
Y132596D01*
X362621Y133294D01*
X406794D01*
Y100706D01*
X399164D01*
X398444Y102444D01*
X395000Y103871D01*
X391556Y102444D01*
X391082Y101301D01*
X388918D01*
X388444Y102444D01*
X385000Y103871D01*
X381556Y102444D01*
X381082Y101301D01*
X378918D01*
X378444Y102444D01*
X375000Y103871D01*
X373555Y103272D01*
X371413Y105413D01*
X369500Y106206D01*
X365587D01*
X365392Y106676D01*
X362217Y107992D01*
X359041Y106676D01*
X357725Y103500D01*
X359041Y100324D01*
X362217Y99009D01*
X365392Y100324D01*
X365587Y100794D01*
X368379D01*
X370142Y99031D01*
X370129Y99000D01*
Y97000D01*
X371556Y93556D01*
X375000Y92129D01*
X378444Y93556D01*
X378918Y94699D01*
X380963D01*
X381187Y94448D01*
X381556Y93556D01*
X382225Y93279D01*
X382294Y93201D01*
Y85121D01*
X380379Y83206D01*
X337388D01*
X336551Y85206D01*
X337708Y88000D01*
X336392Y91176D01*
X333217Y92492D01*
X330041Y91176D01*
X328725Y88000D01*
X329882Y85206D01*
X329046Y83206D01*
X314706D01*
Y98379D01*
X317121Y100794D01*
X323413D01*
X323607Y100324D01*
X326783Y99009D01*
X329959Y100324D01*
X331275Y103500D01*
X329959Y106676D01*
X326783Y107992D01*
X323607Y106676D01*
X323413Y106206D01*
X316000D01*
X314087Y105413D01*
X314087Y105413D01*
X310087Y101413D01*
X309294Y99500D01*
Y83206D01*
X301955D01*
X301118Y85206D01*
X302275Y88000D01*
X300959Y91176D01*
X297783Y92492D01*
X294607Y91176D01*
X294413Y90706D01*
X273587D01*
X273393Y91176D01*
X270217Y92492D01*
X267041Y91176D01*
X266846Y90706D01*
X264706D01*
Y100000D01*
X263913Y101913D01*
X262000Y102706D01*
X254476D01*
Y103953D01*
X253230D01*
Y106842D01*
X253549Y106975D01*
X254802Y110000D01*
X253549Y113025D01*
X253206Y113167D01*
Y118916D01*
X253827Y119173D01*
X254418Y120600D01*
X256582D01*
X257173Y119173D01*
X257794Y118916D01*
Y113500D01*
X258587Y111587D01*
X262087Y108087D01*
X264000Y107294D01*
X264000Y107294D01*
X274524D01*
Y106047D01*
X275770D01*
Y103158D01*
X275451Y103025D01*
X274198Y100000D01*
X275451Y96975D01*
X278476Y95722D01*
X281502Y96975D01*
X282755Y100000D01*
X281502Y103025D01*
X281182Y103158D01*
Y106047D01*
X282429D01*
Y113953D01*
X274524D01*
Y112706D01*
X265121D01*
X263206Y114621D01*
Y118916D01*
X263827Y119173D01*
X264418Y120600D01*
X266582D01*
X267173Y119173D01*
X270500Y117795D01*
X273827Y119173D01*
X275205Y122500D01*
X273827Y125827D01*
X270500Y127205D01*
X267173Y125827D01*
X266582Y124400D01*
X264418D01*
X263827Y125827D01*
X263206Y126084D01*
Y131379D01*
X264121Y132294D01*
X308379D01*
X312636Y128037D01*
Y126158D01*
X312317Y126025D01*
X311064Y123000D01*
X312317Y119975D01*
X315342Y118722D01*
X318368Y119975D01*
X318500Y120294D01*
X320413D01*
X320607Y119824D01*
X323783Y118509D01*
X326959Y119824D01*
X328275Y123000D01*
X326959Y126176D01*
X323783Y127491D01*
X320607Y126176D01*
X320413Y125706D01*
X318500D01*
X318368Y126025D01*
X318049Y126158D01*
Y129157D01*
X317256Y131071D01*
X312916Y135411D01*
X313127Y135921D01*
Y143416D01*
X313748Y143673D01*
X315126Y147000D01*
X313748Y150327D01*
X310421Y151705D01*
X307095Y150327D01*
X306925Y149917D01*
X304925Y150315D01*
Y151347D01*
X296232D01*
Y142654D01*
X304925D01*
Y142654D01*
X306925Y143040D01*
X307715Y142388D01*
Y137706D01*
X286655D01*
X286257Y139706D01*
X286525Y139817D01*
X287778Y142842D01*
X286525Y145868D01*
X283500Y147121D01*
X280475Y145868D01*
X280408Y145706D01*
X238500D01*
X238500Y145706D01*
X236587Y144913D01*
X231587Y139913D01*
X231054Y138627D01*
X231054D01*
X228946D01*
X228413Y139913D01*
X223413Y144913D01*
X221500Y145706D01*
X202206D01*
Y148916D01*
X202827Y149173D01*
X203418Y150600D01*
X205582D01*
X206173Y149173D01*
X209500Y147795D01*
X212827Y149173D01*
X213418Y150600D01*
X215582D01*
X216173Y149173D01*
X219500Y147795D01*
X222827Y149173D01*
X224205Y152500D01*
X222827Y155827D01*
X219500Y157205D01*
X216173Y155827D01*
X215582Y154400D01*
X213418D01*
X212827Y155827D01*
X211548Y156356D01*
Y162842D01*
X211868Y162975D01*
X213121Y166000D01*
X211868Y169025D01*
X211548Y170158D01*
X210756Y172071D01*
X210756Y172071D01*
X200913Y181913D01*
X199000Y182706D01*
X187654D01*
X187459Y183176D01*
X184283Y184492D01*
X181107Y183176D01*
X179792Y180000D01*
X181107Y176824D01*
X184283Y175508D01*
X187459Y176824D01*
X187654Y177294D01*
X197879D01*
X205872Y169301D01*
X205817Y169025D01*
X204564Y166000D01*
X205817Y162975D01*
X206136Y162842D01*
Y155738D01*
X205582Y154400D01*
X203418D01*
X202827Y155827D01*
X199500Y157205D01*
X196173Y155827D01*
X195582Y154400D01*
X193418D01*
X192827Y155827D01*
X189500Y157205D01*
X186173Y155827D01*
X184795Y152500D01*
X186173Y149173D01*
X189500Y147795D01*
X192827Y149173D01*
X193418Y150600D01*
X195582D01*
X196173Y149173D01*
X196794Y148916D01*
Y145706D01*
X179592D01*
X179525Y145868D01*
X176500Y147121D01*
X173475Y145868D01*
X172222Y142842D01*
X173475Y139817D01*
X174950Y139206D01*
X174553Y137206D01*
X152285D01*
Y142654D01*
X153925D01*
Y143685D01*
X155925Y144082D01*
X156095Y143673D01*
X159421Y142295D01*
X162748Y143673D01*
X164126Y147000D01*
X162748Y150327D01*
X159421Y151705D01*
X156095Y150327D01*
X155925Y149917D01*
X153925Y150315D01*
Y151347D01*
X145232D01*
Y142654D01*
X146873D01*
Y136542D01*
X142744Y132413D01*
X141952Y130500D01*
Y126158D01*
X141632Y126025D01*
X141500Y125706D01*
X139587D01*
X139392Y126176D01*
X136217Y127491D01*
X133041Y126176D01*
X131725Y123000D01*
X133041Y119824D01*
X136217Y118509D01*
X139392Y119824D01*
X139587Y120294D01*
X141500D01*
X141632Y119975D01*
X144658Y118722D01*
X147683Y119975D01*
X148936Y123000D01*
X147683Y126025D01*
X147363Y126158D01*
Y129379D01*
X149990Y132005D01*
X150500Y131794D01*
X206379D01*
X206794Y131379D01*
Y126084D01*
X206173Y125827D01*
X205582Y124400D01*
X203418D01*
X202827Y125827D01*
X199500Y127205D01*
X196173Y125827D01*
X195846Y125037D01*
X193846Y125435D01*
Y126847D01*
X185153D01*
Y118154D01*
X193846D01*
Y118331D01*
X195846Y119223D01*
X196794Y118374D01*
Y114621D01*
X194879Y112706D01*
X184681D01*
X184549Y113025D01*
X181524Y114278D01*
X178498Y113025D01*
X177245Y110000D01*
X178498Y106975D01*
X178818Y106842D01*
Y103953D01*
X177571D01*
Y96047D01*
X178818D01*
Y90706D01*
X165587D01*
X165392Y91176D01*
X162217Y92492D01*
X159041Y91176D01*
X157725Y88000D01*
X159041Y84824D01*
X159326Y84706D01*
X158928Y82706D01*
X130072D01*
X129674Y84706D01*
X129959Y84824D01*
X131275Y88000D01*
X129959Y91176D01*
X126783Y92492D01*
X123608Y91176D01*
X122292Y88000D01*
X123608Y84824D01*
X123892Y84706D01*
X123495Y82706D01*
X70121D01*
X67706Y85121D01*
Y93250D01*
X68444Y93556D01*
X68918Y94699D01*
X71082D01*
X71556Y93556D01*
X75000Y92129D01*
X78444Y93556D01*
X78918Y94699D01*
X81082D01*
X81556Y93556D01*
X85000Y92129D01*
X88444Y93556D01*
X89164Y95294D01*
X92283D01*
X94197Y96087D01*
X97313Y99203D01*
X97783Y99009D01*
X100959Y100324D01*
X102275Y103500D01*
X100959Y106676D01*
X97783Y107992D01*
X94608Y106676D01*
X93292Y103500D01*
X93487Y103030D01*
X91163Y100706D01*
X89164D01*
X88444Y102444D01*
X85000Y103871D01*
X81556Y102444D01*
X81082Y101301D01*
X79037D01*
X78813Y101552D01*
X78444Y102444D01*
X77775Y102721D01*
X77706Y102799D01*
Y107500D01*
X76913Y109413D01*
X73758Y112568D01*
X73827Y114673D01*
X74418Y116100D01*
X76582D01*
X77173Y114673D01*
X80500Y113295D01*
X83827Y114673D01*
X84418Y116100D01*
X86582D01*
X87173Y114673D01*
X90500Y113295D01*
X93827Y114673D01*
X95205Y118000D01*
X93827Y121327D01*
X90500Y122705D01*
X87173Y121327D01*
X86582Y119900D01*
X84418D01*
X83827Y121327D01*
X80500Y122705D01*
X77173Y121327D01*
X76813Y120456D01*
X74735Y120397D01*
X73972Y121715D01*
X74528Y123201D01*
X76121Y124794D01*
X95163D01*
X96487Y123470D01*
X96292Y123000D01*
X97607Y119824D01*
X100784Y118509D01*
X103959Y119824D01*
X104154Y120294D01*
X111879D01*
X114294Y117879D01*
Y105500D01*
X115087Y103587D01*
X117087Y101587D01*
X117087Y101587D01*
X119000Y100794D01*
X119000Y100794D01*
X129846D01*
X130041Y100324D01*
X133217Y99009D01*
X136392Y100324D01*
X137708Y103500D01*
X136392Y106676D01*
X133217Y107992D01*
X130041Y106676D01*
X129846Y106206D01*
X120121D01*
X119706Y106621D01*
Y119000D01*
X118913Y120913D01*
X118913Y120913D01*
X114913Y124913D01*
X113000Y125706D01*
X104154D01*
X103959Y126176D01*
X100784Y127491D01*
X100313Y127297D01*
X98197Y129413D01*
X96284Y130206D01*
X75000D01*
X73087Y129413D01*
X68587Y124913D01*
X67794Y123000D01*
Y121584D01*
X67173Y121327D01*
X66582Y119900D01*
X64418D01*
X63827Y121327D01*
X60500Y122705D01*
X57173Y121327D01*
X55795Y118000D01*
X57173Y114673D01*
X60500Y113295D01*
X63827Y114673D01*
X64418Y116100D01*
X66582D01*
X67173Y114673D01*
X67794Y114416D01*
Y112000D01*
X68587Y110087D01*
X72294Y106379D01*
Y102750D01*
X71556Y102444D01*
X71082Y101301D01*
X68918D01*
X68444Y102444D01*
X65000Y103871D01*
X61556Y102444D01*
X60129Y99000D01*
Y97000D01*
X61556Y93556D01*
X62294Y93250D01*
Y84000D01*
X63087Y82087D01*
X67087Y78087D01*
X67087Y78087D01*
X69000Y77294D01*
X194879D01*
X197294Y74879D01*
Y62296D01*
X196498Y61705D01*
X195446Y61315D01*
X184488Y72274D01*
X184032Y73374D01*
X179500Y75252D01*
X178399Y74796D01*
X147067D01*
X146953Y74843D01*
X22576D01*
X20953Y76466D01*
Y327534D01*
X23466Y330047D01*
X53000D01*
X57209Y331790D01*
X58710Y333291D01*
X60453Y337500D01*
Y360534D01*
X61966Y362047D01*
X181547D01*
Y352673D01*
X180025Y349000D01*
X182215Y343715D01*
X183712Y343095D01*
Y333346D01*
X182156Y329591D01*
X183721Y325812D01*
X187500Y324247D01*
X191279Y325812D01*
X192844Y329591D01*
X191288Y333346D01*
Y343095D01*
X192785Y343715D01*
X194975Y349000D01*
X193453Y352673D01*
Y366500D01*
X191709Y370709D01*
X190209Y372210D01*
X186000Y373953D01*
D02*
G37*
G36*
X435000Y35530D02*
X425433Y31567D01*
X421470Y22000D01*
X425433Y12433D01*
X435000Y8470D01*
X444567Y12433D01*
X448530Y22000D01*
X444567Y31567D01*
X435000Y35530D01*
D02*
G37*
G36*
X25000D02*
X15433Y31567D01*
X11470Y22000D01*
X15433Y12433D01*
X25000Y8470D01*
X34567Y12433D01*
X38530Y22000D01*
X34567Y31567D01*
X25000Y35530D01*
D02*
G37*
G36*
X399717Y35991D02*
X396541Y34676D01*
X395225Y31500D01*
X396541Y28324D01*
X399717Y27009D01*
X402892Y28324D01*
X404208Y31500D01*
X402892Y34676D01*
X399717Y35991D01*
D02*
G37*
G36*
X114000Y60028D02*
X110523Y58587D01*
X109082Y55110D01*
X110523Y51633D01*
X114000Y50193D01*
X117477Y51633D01*
X118918Y55110D01*
X117477Y58587D01*
X114000Y60028D01*
D02*
G37*
G36*
X230000Y58409D02*
X225468Y56532D01*
X223591Y52000D01*
X225468Y47468D01*
X230000Y45591D01*
X234532Y47468D01*
X236409Y52000D01*
X234532Y56532D01*
X230000Y58409D01*
D02*
G37*
G36*
X58284Y41491D02*
X55107Y40176D01*
X53792Y37000D01*
X55107Y33824D01*
X58284Y32509D01*
X61459Y33824D01*
X62775Y37000D01*
X61459Y40176D01*
X58284Y41491D01*
D02*
G37*
G36*
X80500Y152705D02*
X77173Y151327D01*
X76582Y149900D01*
X74418D01*
X73827Y151327D01*
X70500Y152705D01*
X67173Y151327D01*
X66582Y149900D01*
X64418D01*
X63827Y151327D01*
X60500Y152705D01*
X57173Y151327D01*
X55795Y148000D01*
X57173Y144673D01*
X60500Y143295D01*
X63827Y144673D01*
X64418Y146100D01*
X66582D01*
X67173Y144673D01*
X70500Y143295D01*
X73827Y144673D01*
X74418Y146100D01*
X76582D01*
X77173Y144673D01*
X80500Y143295D01*
X83827Y144673D01*
X84153Y145463D01*
X86154Y145065D01*
Y143654D01*
X94846D01*
Y152346D01*
X86154D01*
Y150935D01*
X84153Y150537D01*
X83827Y151327D01*
X80500Y152705D01*
D02*
G37*
G36*
X412543Y287858D02*
X392827D01*
Y268142D01*
X412543D01*
Y287858D01*
D02*
G37*
G36*
X166000Y356474D02*
X160715Y354285D01*
X158526Y349000D01*
X160047Y345327D01*
Y291466D01*
X158034Y289453D01*
X102185D01*
X98335Y287858D01*
X86827D01*
Y268142D01*
X94212D01*
Y238500D01*
Y211347D01*
X93654D01*
Y210788D01*
X80283D01*
X77605Y209679D01*
X72022Y204096D01*
X71803Y204005D01*
X63197D01*
X61500Y204708D01*
X58324Y203393D01*
X57008Y200217D01*
X58255Y197206D01*
X57546Y195206D01*
X52250D01*
X51944Y195944D01*
X48500Y197371D01*
X46500D01*
X43056Y195944D01*
X41629Y192500D01*
X43056Y189056D01*
X44199Y188582D01*
Y186418D01*
X43056Y185944D01*
X41629Y182500D01*
X43056Y179056D01*
X44199Y178582D01*
Y176537D01*
X43948Y176313D01*
X43056Y175944D01*
X42779Y175275D01*
X42701Y175206D01*
X33000D01*
X33000Y175206D01*
X31087Y174413D01*
X31087Y174413D01*
X30587Y173913D01*
X29794Y172000D01*
Y136787D01*
X29324Y136592D01*
X28008Y133417D01*
X29324Y130241D01*
X32500Y128925D01*
X35676Y130241D01*
X36992Y133417D01*
X35676Y136592D01*
X35206Y136787D01*
Y169794D01*
X42750D01*
X43056Y169056D01*
X46500Y167629D01*
X48500D01*
X51944Y169056D01*
X53371Y172500D01*
X51944Y175944D01*
X50801Y176418D01*
Y178463D01*
X51052Y178686D01*
X51944Y179056D01*
X52221Y179725D01*
X52299Y179794D01*
X56879D01*
X58794Y177879D01*
Y168154D01*
X58324Y167959D01*
X57008Y164783D01*
X57203Y164313D01*
X55596Y162706D01*
X46846D01*
Y164347D01*
X38154D01*
Y155654D01*
X39565D01*
X39963Y153654D01*
X39173Y153327D01*
X37795Y150000D01*
X39173Y146673D01*
X42500Y145295D01*
X45827Y146673D01*
X47205Y150000D01*
X45827Y153327D01*
X45037Y153654D01*
X45435Y155654D01*
X46846D01*
Y157294D01*
X56717D01*
X58630Y158087D01*
X61030Y160487D01*
X61500Y160292D01*
X64676Y161608D01*
X65991Y164783D01*
X64676Y167959D01*
X64206Y168154D01*
Y179000D01*
X64206Y179000D01*
X63413Y180913D01*
X59913Y184413D01*
X58000Y185206D01*
X52250D01*
X51944Y185944D01*
X50801Y186418D01*
Y188463D01*
X51052Y188687D01*
X51944Y189056D01*
X52221Y189725D01*
X52299Y189794D01*
X71879D01*
X73294Y188379D01*
Y178500D01*
X74087Y176587D01*
X77087Y173587D01*
X79000Y172794D01*
X91794D01*
Y169750D01*
X91056Y169444D01*
X90582Y168301D01*
X88418D01*
X87944Y169444D01*
X84500Y170871D01*
X81056Y169444D01*
X80336Y167706D01*
X76781D01*
X76676Y167959D01*
X73500Y169275D01*
X70324Y167959D01*
X69008Y164783D01*
X70324Y161608D01*
X73500Y160292D01*
X76676Y161608D01*
X76960Y162294D01*
X80336D01*
X81056Y160556D01*
X84500Y159129D01*
X87944Y160556D01*
X88418Y161699D01*
X90582D01*
X91056Y160556D01*
X94500Y159129D01*
X97944Y160556D01*
X98418Y161699D01*
X100582D01*
X101056Y160556D01*
X104500Y159129D01*
X107944Y160556D01*
X108664Y162294D01*
X115732D01*
Y160653D01*
X117373D01*
Y148042D01*
X115477Y146146D01*
X115157Y146278D01*
X112132Y145025D01*
X110879Y142000D01*
X112132Y138975D01*
X115157Y137722D01*
X118183Y138975D01*
X119436Y142000D01*
X119304Y142319D01*
X121992Y145008D01*
X122785Y146921D01*
X122785Y146921D01*
Y160653D01*
X124425D01*
Y161685D01*
X126425Y162083D01*
X126595Y161673D01*
X129921Y160295D01*
X130542Y160553D01*
X132136Y158958D01*
Y145158D01*
X131817Y145025D01*
X130564Y142000D01*
X131817Y138975D01*
X134843Y137722D01*
X137868Y138975D01*
X139121Y142000D01*
X137868Y145025D01*
X137548Y145158D01*
Y160079D01*
X137548Y160079D01*
X136756Y161992D01*
X134369Y164379D01*
X134626Y165000D01*
X133248Y168327D01*
X132914Y168465D01*
X132726Y170399D01*
X135121Y172794D01*
X164000D01*
X165913Y173587D01*
X171004Y178677D01*
X171004Y178677D01*
X171797Y180591D01*
Y183777D01*
X172869Y184221D01*
X174434Y188000D01*
X172869Y191779D01*
X171797Y192223D01*
Y208757D01*
X171959Y208824D01*
X173275Y212000D01*
X171959Y215176D01*
X168783Y216492D01*
X165608Y215176D01*
X164292Y212000D01*
X165608Y208824D01*
X166385Y208502D01*
Y192223D01*
X165312Y191779D01*
X163747Y188000D01*
X165312Y184221D01*
X166385Y183777D01*
Y181711D01*
X162879Y178206D01*
X134000D01*
X132087Y177413D01*
X132087Y177413D01*
X128087Y173413D01*
X127294Y171500D01*
Y169559D01*
X126425Y168849D01*
X124425Y169346D01*
Y169346D01*
X122785D01*
Y179048D01*
X126799Y183063D01*
X132846D01*
Y185294D01*
X141000D01*
X142913Y186087D01*
X151913Y195087D01*
X152706Y197000D01*
Y207351D01*
X154080Y207920D01*
X155770Y212000D01*
X154080Y216080D01*
X150000Y217770D01*
X145920Y216080D01*
X145738D01*
X143788Y217959D01*
Y234500D01*
X142679Y237179D01*
X138679Y241179D01*
X136000Y242288D01*
X101788D01*
Y263395D01*
X103636Y264161D01*
X121241Y246556D01*
X121241Y246556D01*
X124685Y245129D01*
X124685Y245129D01*
X159629D01*
Y240171D01*
X158730Y238000D01*
X160420Y233920D01*
X164500Y232230D01*
X168580Y233920D01*
X170270Y238000D01*
X169371Y240171D01*
Y250000D01*
Y259829D01*
X170270Y262000D01*
X168580Y266080D01*
X164500Y267770D01*
X160420Y266080D01*
X158730Y262000D01*
X159629Y259829D01*
Y254871D01*
X126703D01*
X106543Y275030D01*
Y277547D01*
X160500D01*
X164709Y279291D01*
X170040Y284621D01*
X182563D01*
Y283472D01*
X192437D01*
Y293347D01*
X182563D01*
Y292198D01*
X171953D01*
Y345327D01*
X173475Y349000D01*
X171285Y354285D01*
X166000Y356474D01*
D02*
G37*
G36*
X144500D02*
X139215Y354285D01*
X137025Y349000D01*
X139215Y343715D01*
X144500Y341526D01*
X149785Y343715D01*
X151974Y349000D01*
X149785Y354285D01*
X144500Y356474D01*
D02*
G37*
G36*
X230000Y256409D02*
X225468Y254532D01*
X223591Y250000D01*
X225468Y245468D01*
X230000Y243591D01*
X234532Y245468D01*
X236409Y250000D01*
X234532Y254532D01*
X230000Y256409D01*
D02*
G37*
G36*
X57315Y288670D02*
X49770Y285545D01*
X46644Y278000D01*
X49770Y270455D01*
X57315Y267330D01*
X64860Y270455D01*
X67985Y278000D01*
X64860Y285545D01*
X57315Y288670D01*
D02*
G37*
G36*
X219000Y216871D02*
X217000D01*
X213556Y215444D01*
X213250Y214706D01*
X207587D01*
X207393Y215176D01*
X204217Y216492D01*
X201041Y215176D01*
X199725Y212000D01*
X201041Y208824D01*
X204217Y207508D01*
X207393Y208824D01*
X207587Y209294D01*
X213250D01*
X213556Y208556D01*
X214699Y208082D01*
Y206037D01*
X214448Y205814D01*
X213556Y205444D01*
X213279Y204775D01*
X213201Y204706D01*
X210500D01*
X208587Y203913D01*
X208587Y203913D01*
X206087Y201413D01*
X205294Y199500D01*
Y184500D01*
X206087Y182587D01*
X210587Y178087D01*
X212500Y177294D01*
X216346D01*
X216541Y176824D01*
X219717Y175508D01*
X222892Y176824D01*
X224208Y180000D01*
X222892Y183176D01*
X219717Y184492D01*
X216541Y183176D01*
X216346Y182706D01*
X213621D01*
X210706Y185621D01*
Y190210D01*
X212706Y190608D01*
X213556Y188556D01*
X217000Y187129D01*
X219000D01*
X222444Y188556D01*
X223871Y192000D01*
X222444Y195444D01*
X221301Y195918D01*
Y198082D01*
X222444Y198556D01*
X223871Y202000D01*
X222444Y205444D01*
X221301Y205918D01*
Y208082D01*
X222444Y208556D01*
X223871Y212000D01*
X222444Y215444D01*
X219000Y216871D01*
D02*
G37*
G36*
X239000D02*
X237000D01*
X233556Y215444D01*
X232129Y212000D01*
X233556Y208556D01*
X234699Y208082D01*
Y205918D01*
X233556Y205444D01*
X232129Y202000D01*
X233556Y198556D01*
X234699Y198082D01*
Y195918D01*
X233556Y195444D01*
X232129Y192000D01*
X233556Y188556D01*
X237000Y187129D01*
X239000D01*
X242444Y188556D01*
X243294Y190608D01*
X245294Y190210D01*
Y185121D01*
X243302Y183129D01*
X241259Y183176D01*
X238083Y184492D01*
X234908Y183176D01*
X233592Y180000D01*
X234908Y176824D01*
X238083Y175508D01*
X241259Y176824D01*
X241454Y177294D01*
X244000D01*
X245913Y178087D01*
X249913Y182087D01*
X249913Y182087D01*
X250706Y184000D01*
Y198500D01*
X250706Y198500D01*
X249913Y200413D01*
X246413Y203913D01*
X244500Y204706D01*
X242750D01*
X242444Y205444D01*
X241301Y205918D01*
Y207963D01*
X241552Y208187D01*
X242444Y208556D01*
X242721Y209225D01*
X242799Y209294D01*
X252413D01*
X252607Y208824D01*
X255783Y207508D01*
X258959Y208824D01*
X260275Y212000D01*
X258959Y215176D01*
X255783Y216492D01*
X252607Y215176D01*
X252413Y214706D01*
X242750D01*
X242444Y215444D01*
X239000Y216871D01*
D02*
G37*
G36*
X189157Y170278D02*
X186132Y169025D01*
X184879Y166000D01*
X186132Y162975D01*
X189157Y161722D01*
X192183Y162975D01*
X193436Y166000D01*
X192183Y169025D01*
X189157Y170278D01*
D02*
G37*
G36*
X435000Y371530D02*
X425433Y367567D01*
X421470Y358000D01*
X425433Y348433D01*
X435000Y344470D01*
X444567Y348433D01*
X448530Y358000D01*
X444567Y367567D01*
X435000Y371530D01*
D02*
G37*
G36*
X341910Y369344D02*
X338131Y367779D01*
X337686Y366706D01*
X296500D01*
X296500Y366706D01*
X294587Y365913D01*
X292087Y363413D01*
X291294Y361500D01*
Y355354D01*
X288715Y354285D01*
X286526Y349000D01*
X288047Y345327D01*
Y335000D01*
X289791Y330790D01*
X294791Y325791D01*
X299000Y324047D01*
X355034D01*
X356547Y322534D01*
Y285867D01*
X355770Y285545D01*
X354281Y281952D01*
X353056Y281444D01*
X326483Y254871D01*
X300371D01*
Y259829D01*
X301270Y262000D01*
X299580Y266080D01*
X295500Y267770D01*
X291420Y266080D01*
X289730Y262000D01*
X290629Y259829D01*
Y250000D01*
Y240171D01*
X289730Y238000D01*
X291420Y233920D01*
X295500Y232230D01*
X299580Y233920D01*
X301270Y238000D01*
X300371Y240171D01*
Y245129D01*
X328500D01*
X331944Y246556D01*
X355822Y270433D01*
X359212Y269029D01*
Y235288D01*
X324000D01*
X321321Y234179D01*
X317321Y230179D01*
X316212Y227500D01*
Y216745D01*
X314212Y216290D01*
X312706Y217511D01*
Y222000D01*
X312706Y222000D01*
X311913Y223913D01*
X308413Y227413D01*
X306500Y228206D01*
X289621D01*
X287706Y230121D01*
Y316500D01*
X286913Y318413D01*
X275206Y330121D01*
Y342646D01*
X277785Y343715D01*
X279975Y349000D01*
X277785Y354285D01*
X272500Y356474D01*
X267215Y354285D01*
X265025Y349000D01*
X267215Y343715D01*
X269794Y342646D01*
Y329000D01*
X270587Y327087D01*
X282294Y315379D01*
Y264754D01*
X280294Y264356D01*
X279580Y266080D01*
X275500Y267770D01*
X275208Y267649D01*
X272527Y270331D01*
X271444Y272944D01*
X268000Y274371D01*
X192000D01*
X188556Y272944D01*
X182591Y266979D01*
X180420Y266080D01*
X178730Y262000D01*
X180420Y257920D01*
X184500Y256230D01*
X188580Y257920D01*
X189479Y260091D01*
X194018Y264629D01*
X245129D01*
Y253714D01*
X243591Y250000D01*
X245468Y245468D01*
X250000Y243591D01*
X254532Y245468D01*
X256409Y250000D01*
X254871Y253714D01*
Y264629D01*
X267513D01*
X269851Y262292D01*
X269730Y262000D01*
X271420Y257920D01*
X275500Y256230D01*
X279580Y257920D01*
X280294Y259644D01*
X282294Y259246D01*
Y240754D01*
X280294Y240356D01*
X279580Y242080D01*
X275500Y243770D01*
X271420Y242080D01*
X270521Y239909D01*
X264983Y234371D01*
X214871D01*
Y244079D01*
X215921D01*
Y255921D01*
X204079D01*
Y244079D01*
X205129D01*
Y234371D01*
X195018D01*
X189479Y239909D01*
X188580Y242080D01*
X184500Y243770D01*
X180420Y242080D01*
X178730Y238000D01*
X180420Y233920D01*
X182591Y233021D01*
X189556Y226056D01*
X193000Y224629D01*
X267000D01*
X270444Y226056D01*
X277409Y233021D01*
X279580Y233920D01*
X280294Y235644D01*
X282294Y235246D01*
Y229000D01*
X283087Y227087D01*
X286587Y223587D01*
X288500Y222794D01*
X288500Y222794D01*
X305379D01*
X307294Y220879D01*
Y216649D01*
X305920Y216080D01*
X304230Y212000D01*
X305920Y207920D01*
X310000Y206230D01*
X313803Y207805D01*
X315000Y207870D01*
X316197Y207805D01*
X320000Y206230D01*
X323803Y207805D01*
X325521Y207898D01*
X327294Y206529D01*
Y190091D01*
X327453Y189706D01*
X326747Y188000D01*
X328312Y184221D01*
X332090Y182656D01*
X333163Y183100D01*
X337215Y179048D01*
Y169612D01*
X336425Y168960D01*
X334425Y169346D01*
Y169346D01*
X332785D01*
Y170921D01*
X331992Y172835D01*
X325913Y178913D01*
X324000Y179706D01*
X296121D01*
X294764Y181063D01*
X295592Y183063D01*
X295847D01*
Y192937D01*
X293615D01*
Y208502D01*
X294392Y208824D01*
X295708Y212000D01*
X294392Y215176D01*
X291217Y216492D01*
X288041Y215176D01*
X286725Y212000D01*
X288041Y208824D01*
X288204Y208757D01*
Y192937D01*
X285972D01*
Y183063D01*
X288204D01*
Y181091D01*
X288996Y179177D01*
X293087Y175087D01*
X295000Y174294D01*
X322879D01*
X325827Y171346D01*
X325732Y169346D01*
X325732D01*
Y164480D01*
X323244Y161992D01*
X322451Y160079D01*
Y145158D01*
X322132Y145025D01*
X320879Y142000D01*
X322132Y138975D01*
X325157Y137722D01*
X328183Y138975D01*
X329436Y142000D01*
X328183Y145025D01*
X327864Y145158D01*
Y158958D01*
X329559Y160653D01*
X334425D01*
Y160653D01*
X336425Y161040D01*
X337215Y160388D01*
Y146921D01*
X338008Y145008D01*
X340696Y142319D01*
X340564Y142000D01*
X341817Y138975D01*
X344843Y137722D01*
X347868Y138975D01*
X349121Y142000D01*
X347868Y145025D01*
X344843Y146278D01*
X344523Y146146D01*
X342627Y148042D01*
Y161416D01*
X343248Y161673D01*
X343505Y162294D01*
X351336D01*
X352056Y160556D01*
X355500Y159129D01*
X358944Y160556D01*
X359418Y161699D01*
X361582D01*
X362056Y160556D01*
X365500Y159129D01*
X368944Y160556D01*
X369418Y161699D01*
X371582D01*
X372056Y160556D01*
X375500Y159129D01*
X378944Y160556D01*
X379664Y162294D01*
X383040D01*
X383324Y161608D01*
X386500Y160292D01*
X389676Y161608D01*
X390991Y164784D01*
X389676Y167959D01*
X386500Y169275D01*
X383324Y167959D01*
X383219Y167706D01*
X379664D01*
X378944Y169444D01*
X376892Y170294D01*
X377290Y172294D01*
X382000D01*
X383913Y173087D01*
X386413Y175587D01*
X386413Y175587D01*
X387206Y177500D01*
Y185879D01*
X389121Y187794D01*
X407000D01*
X408913Y188587D01*
X410121Y189794D01*
X412750D01*
X413056Y189056D01*
X414199Y188582D01*
Y186537D01*
X413948Y186313D01*
X413056Y185944D01*
X412779Y185275D01*
X412701Y185206D01*
X400500D01*
X400500Y185206D01*
X398587Y184413D01*
X398587Y184413D01*
X396587Y182413D01*
X395794Y180500D01*
Y168154D01*
X395324Y167959D01*
X394008Y164784D01*
X395324Y161608D01*
X398500Y160292D01*
X398970Y160487D01*
X401370Y158087D01*
X403284Y157294D01*
X403284Y157294D01*
X413373D01*
X414223Y156346D01*
X413331Y154347D01*
X413154D01*
Y145654D01*
X421846D01*
Y154347D01*
X420435D01*
X420037Y156346D01*
X420827Y156673D01*
X422205Y160000D01*
X420827Y163327D01*
X417500Y164705D01*
X414173Y163327D01*
X413916Y162706D01*
X404404D01*
X402797Y164313D01*
X402991Y164784D01*
X401676Y167959D01*
X401206Y168154D01*
Y179379D01*
X401621Y179794D01*
X412750D01*
X413056Y179056D01*
X414199Y178582D01*
Y176418D01*
X413056Y175944D01*
X411629Y172500D01*
X413056Y169056D01*
X416500Y167629D01*
X418500D01*
X421944Y169056D01*
X422250Y169794D01*
X424794D01*
Y136787D01*
X424324Y136592D01*
X423008Y133416D01*
X424324Y130241D01*
X427500Y128925D01*
X430676Y130241D01*
X431991Y133416D01*
X430676Y136592D01*
X430206Y136787D01*
Y171000D01*
X429413Y172913D01*
X427913Y174413D01*
X426000Y175206D01*
X422250D01*
X421944Y175944D01*
X420801Y176418D01*
Y178582D01*
X421944Y179056D01*
X423371Y182500D01*
X421944Y185944D01*
X420801Y186418D01*
Y188582D01*
X421944Y189056D01*
X423371Y192500D01*
X421944Y195944D01*
X418500Y197371D01*
X416500D01*
X413056Y195944D01*
X412750Y195206D01*
X409000D01*
X409000Y195206D01*
X407087Y194413D01*
X407087Y194413D01*
X405879Y193206D01*
X388000D01*
X388000Y193206D01*
X386087Y192413D01*
X382587Y188913D01*
X381958Y187395D01*
X380519Y187130D01*
X379875Y187196D01*
X378944Y189444D01*
X378206Y189750D01*
Y192000D01*
X377413Y193913D01*
X374413Y196913D01*
X372500Y197706D01*
X357121D01*
X354706Y200121D01*
Y202654D01*
X356347D01*
Y204065D01*
X358347Y204463D01*
X358673Y203673D01*
X362000Y202295D01*
X364212Y203212D01*
X381396D01*
X382421Y201212D01*
X382009Y200217D01*
X383324Y197041D01*
X386500Y195725D01*
X388197Y196428D01*
X396802D01*
X398500Y195725D01*
X401676Y197041D01*
X402991Y200217D01*
X401676Y203393D01*
X398500Y204708D01*
X396802Y204005D01*
X390288D01*
Y207000D01*
Y230500D01*
X389179Y233179D01*
X388179Y234179D01*
X385500Y235288D01*
X366788D01*
Y268768D01*
X370860Y270455D01*
X373986Y278000D01*
X370860Y285545D01*
X368453Y286542D01*
Y325000D01*
X366709Y329209D01*
X361709Y334209D01*
X357500Y335953D01*
X301466D01*
X299953Y337466D01*
Y345327D01*
X301474Y349000D01*
X299285Y354285D01*
X296706Y355354D01*
Y360379D01*
X297621Y361294D01*
X337686D01*
X338131Y360221D01*
X341910Y358656D01*
X345688Y360221D01*
X347253Y364000D01*
X345688Y367779D01*
X341910Y369344D01*
D02*
G37*
G36*
X25000Y371530D02*
X15433Y367567D01*
X11470Y358000D01*
X15433Y348433D01*
X25000Y344470D01*
X34567Y348433D01*
X38530Y358000D01*
X34567Y367567D01*
X25000Y371530D01*
D02*
G37*
G36*
X273517Y184492D02*
X270341Y183176D01*
X270146Y182706D01*
X262000D01*
X260087Y181913D01*
X260087Y181913D01*
X255929Y177756D01*
X255136Y175842D01*
Y169158D01*
X254817Y169025D01*
X253564Y166000D01*
X254817Y162975D01*
X255794Y162570D01*
X255929Y162244D01*
X257794Y160379D01*
Y156084D01*
X257173Y155827D01*
X256582Y154400D01*
X254418D01*
X253827Y155827D01*
X250500Y157205D01*
X247173Y155827D01*
X246582Y154400D01*
X244418D01*
X243827Y155827D01*
X240500Y157205D01*
X237173Y155827D01*
X235795Y152500D01*
X237173Y149173D01*
X240500Y147795D01*
X243827Y149173D01*
X244418Y150600D01*
X246582D01*
X247173Y149173D01*
X250500Y147795D01*
X253827Y149173D01*
X254418Y150600D01*
X256582D01*
X257173Y149173D01*
X260500Y147795D01*
X263827Y149173D01*
X264418Y150600D01*
X266582D01*
X267173Y149173D01*
X270500Y147795D01*
X273827Y149173D01*
X275205Y152500D01*
X273827Y155827D01*
X270500Y157205D01*
X267173Y155827D01*
X266582Y154400D01*
X264418D01*
X263827Y155827D01*
X263206Y156084D01*
Y161500D01*
X262413Y163413D01*
X261815Y165261D01*
X262121Y166000D01*
X260868Y169025D01*
X260548Y169158D01*
Y174722D01*
X263121Y177294D01*
X270146D01*
X270341Y176824D01*
X273517Y175508D01*
X276693Y176824D01*
X278008Y180000D01*
X276693Y183176D01*
X273517Y184492D01*
D02*
G37*
G36*
X238158Y170278D02*
X235132Y169025D01*
X233879Y166000D01*
X235132Y162975D01*
X238158Y161722D01*
X241183Y162975D01*
X242436Y166000D01*
X241183Y169025D01*
X238158Y170278D01*
D02*
G37*
%LPD*%
G36*
X259294Y88500D02*
X260087Y86587D01*
X260587Y86087D01*
X260587Y86087D01*
X262500Y85294D01*
X262500Y85294D01*
X264751D01*
X264810Y85206D01*
X264727Y84671D01*
X263903Y82959D01*
X262587Y82413D01*
X258087Y77913D01*
X257294Y76000D01*
Y63121D01*
X254554Y60381D01*
X252706Y61146D01*
Y89500D01*
X251913Y91413D01*
X251913Y91413D01*
X249127Y94200D01*
X249893Y96047D01*
X254476D01*
Y97294D01*
X259294D01*
Y88500D01*
D02*
G37*
G36*
X216173Y119173D02*
X219500Y117795D01*
X221794Y118746D01*
X223794Y117528D01*
Y107121D01*
X215387Y98714D01*
X213691Y99847D01*
X213755Y100000D01*
X212502Y103025D01*
X212182Y103158D01*
Y106047D01*
X213429D01*
Y113953D01*
X212206D01*
Y118916D01*
X212827Y119173D01*
X213418Y120600D01*
X215582D01*
X216173Y119173D01*
D02*
G37*
G36*
X247794Y118374D02*
Y113148D01*
X247498Y113025D01*
X246245Y110000D01*
X247498Y106975D01*
X247818Y106842D01*
Y103953D01*
X246571D01*
Y99369D01*
X244723Y98604D01*
X236206Y107121D01*
Y118154D01*
X244847D01*
Y118331D01*
X246847Y119223D01*
X247794Y118374D01*
D02*
G37*
G36*
X223794Y136879D02*
Y127472D01*
X221794Y126254D01*
X219500Y127205D01*
X216173Y125827D01*
X215582Y124400D01*
X213418D01*
X212827Y125827D01*
X212206Y126084D01*
Y132500D01*
X212206Y132500D01*
X211413Y134413D01*
X211413Y134413D01*
X209413Y136413D01*
X207500Y137206D01*
X178447D01*
X178050Y139206D01*
X179525Y139817D01*
X179723Y140294D01*
X220379D01*
X223794Y136879D01*
D02*
G37*
G36*
X279394Y139706D02*
X278445Y137706D01*
X263000D01*
X261087Y136913D01*
X261087Y136913D01*
X258587Y134413D01*
X257794Y132500D01*
Y126084D01*
X257173Y125827D01*
X256582Y124400D01*
X254418D01*
X253827Y125827D01*
X250500Y127205D01*
X247173Y125827D01*
X246847Y125037D01*
X244847Y125435D01*
Y126847D01*
X236206D01*
Y136879D01*
X239621Y140294D01*
X278914D01*
X279394Y139706D01*
D02*
G37*
G36*
X231587Y104087D02*
X247294Y88379D01*
Y61146D01*
X245446Y60381D01*
X237489Y68337D01*
Y84629D01*
X237959Y84824D01*
X239275Y88000D01*
X237959Y91176D01*
X234783Y92492D01*
X231608Y91176D01*
X231082Y89908D01*
X228918D01*
X228393Y91176D01*
X225217Y92492D01*
X222041Y91176D01*
X220725Y88000D01*
X222041Y84824D01*
X222511Y84629D01*
Y68337D01*
X214554Y60381D01*
X212706Y61146D01*
Y88379D01*
X228413Y104087D01*
X228413Y104087D01*
X228946Y105373D01*
X231054D01*
X231587Y104087D01*
D02*
G37*
G36*
X206173Y119173D02*
X206794Y118916D01*
Y113953D01*
X205524D01*
Y106047D01*
X206770D01*
Y103158D01*
X206451Y103025D01*
X205198Y100000D01*
X206451Y96975D01*
X209476Y95722D01*
X209630Y95785D01*
X210763Y94090D01*
X208087Y91413D01*
X207294Y89500D01*
Y61146D01*
X205446Y60381D01*
X202706Y63121D01*
Y76000D01*
X201913Y77913D01*
X201913Y77913D01*
X197913Y81913D01*
X196000Y82706D01*
X193072D01*
X192674Y84706D01*
X192959Y84824D01*
X194275Y88000D01*
X192959Y91176D01*
X189783Y92492D01*
X186608Y91176D01*
X186413Y90706D01*
X184230D01*
Y96047D01*
X185476D01*
Y103953D01*
X184230D01*
Y106842D01*
X184549Y106975D01*
X184681Y107294D01*
X196000D01*
X197913Y108087D01*
X201413Y111587D01*
X202206Y113500D01*
X202206Y113500D01*
Y118916D01*
X202827Y119173D01*
X203418Y120600D01*
X205582D01*
X206173Y119173D01*
D02*
G37*
G36*
X185545Y84706D02*
X184599Y82706D01*
X167401D01*
X166455Y84706D01*
X166937Y85294D01*
X185063D01*
X185545Y84706D01*
D02*
G37*
G36*
X292377Y85206D02*
X291305Y83206D01*
X276695D01*
X275623Y85206D01*
X275682Y85294D01*
X292318D01*
X292377Y85206D01*
D02*
G37*
G36*
X136212Y232931D02*
Y216201D01*
X135920Y216080D01*
X134080Y216080D01*
X130000Y217770D01*
X125920Y216080D01*
X124230Y212000D01*
X125920Y207920D01*
X130000Y206230D01*
X134080Y207920D01*
X135920Y207920D01*
X140000Y206230D01*
X144080Y207920D01*
X145530Y207920D01*
X147294Y206489D01*
Y198121D01*
X139879Y190706D01*
X132846D01*
Y192937D01*
X122972D01*
Y186890D01*
X118165Y182083D01*
X117373Y180169D01*
Y169346D01*
X115732D01*
Y167706D01*
X108664D01*
X107944Y169444D01*
X104500Y170871D01*
X101056Y169444D01*
X100582Y168301D01*
X98537D01*
X98313Y168552D01*
X97944Y169444D01*
X97275Y169721D01*
X97206Y169799D01*
Y175500D01*
Y180250D01*
X97944Y180556D01*
X98488Y181869D01*
X100512D01*
X101056Y180556D01*
X104500Y179129D01*
X107944Y180556D01*
X109371Y184000D01*
Y186000D01*
X107944Y189444D01*
X104500Y190871D01*
X101056Y189444D01*
X100512Y188131D01*
X98488D01*
X97944Y189444D01*
X94500Y190871D01*
X91056Y189444D01*
X90582Y188301D01*
X88418D01*
X87944Y189444D01*
X87653Y189565D01*
X87424Y191598D01*
X89621Y193794D01*
X104500D01*
X106413Y194587D01*
X109913Y198087D01*
X110706Y200000D01*
X110706Y200000D01*
Y203416D01*
X111327Y203673D01*
X112705Y207000D01*
X111327Y210327D01*
X108000Y211705D01*
X104673Y210327D01*
X104347Y209537D01*
X102347Y209935D01*
Y211347D01*
X101788D01*
Y234712D01*
X134431D01*
X136212Y232931D01*
D02*
G37*
G36*
X105105Y203043D02*
X105141Y200968D01*
X103379Y199206D01*
X88500D01*
X86587Y198413D01*
X86587Y198413D01*
X82587Y194413D01*
X81794Y192500D01*
Y190095D01*
X81079Y189454D01*
X81056Y189444D01*
X81049Y189426D01*
X80706Y189119D01*
X79523Y189345D01*
X78642Y189654D01*
X77913Y191413D01*
X75103Y194224D01*
X75068Y195382D01*
X75236Y196444D01*
X76676Y197041D01*
X77379Y198738D01*
X81853Y203212D01*
X93654D01*
Y202654D01*
X102347D01*
Y202831D01*
X104347Y203723D01*
X105105Y203043D01*
D02*
G37*
G36*
X382712Y210788D02*
X364212D01*
X362000Y211705D01*
X358673Y210327D01*
X358347Y209537D01*
X356347Y209935D01*
Y211347D01*
X347654D01*
Y202654D01*
X349294D01*
Y199000D01*
X350087Y197087D01*
X354087Y193087D01*
X354087Y193087D01*
X354975Y192719D01*
X354855Y190603D01*
X352056Y189444D01*
X350629Y186000D01*
Y184000D01*
X352056Y180556D01*
X355500Y179129D01*
X358944Y180556D01*
X359488Y181869D01*
X361512D01*
X362056Y180556D01*
X362794Y180250D01*
Y175000D01*
Y169750D01*
X362056Y169444D01*
X361582Y168301D01*
X359418D01*
X358944Y169444D01*
X355500Y170871D01*
X352056Y169444D01*
X351336Y167706D01*
X343505D01*
X343248Y168327D01*
X342627Y168584D01*
Y180169D01*
X341835Y182083D01*
X336990Y186927D01*
X337434Y188000D01*
X335869Y191779D01*
X332706Y193089D01*
Y207351D01*
X334080Y207920D01*
X335770Y212000D01*
X334080Y216080D01*
X330000Y217770D01*
X326197Y216195D01*
X325777Y216172D01*
X323788Y217989D01*
Y225931D01*
X325569Y227712D01*
X382712D01*
Y210788D01*
D02*
G37*
D10*
X226500Y106000D02*
Y138000D01*
X210000Y89500D02*
X226500Y106000D01*
X221500Y143000D02*
X226500Y138000D01*
X324000Y177000D02*
X330079Y170921D01*
X295000Y177000D02*
X324000D01*
X290910Y181091D02*
X295000Y177000D01*
X356000Y195000D02*
X372500D01*
X352000Y199000D02*
X356000Y195000D01*
X372500D02*
X375500Y192000D01*
X141000Y188000D02*
X150000Y197000D01*
X127909Y188000D02*
X141000D01*
X150000Y197000D02*
Y212000D01*
X257842Y164157D02*
Y166000D01*
Y164157D02*
X260500Y161500D01*
Y152500D02*
Y161500D01*
X264500Y80500D02*
X312000D01*
X260000Y76000D02*
X264500Y80500D01*
X312000D02*
Y99500D01*
Y80500D02*
X381500D01*
X385000Y84000D01*
X69000Y80000D02*
X196000D01*
X65000Y84000D02*
X69000Y80000D01*
X196000D02*
X200000Y76000D01*
X250000Y52000D02*
Y89500D01*
X233500Y106000D02*
X250000Y89500D01*
Y52000D02*
X260000Y62000D01*
X75000Y8500D02*
X299500D01*
X302717Y11716D01*
Y18500D01*
X383000Y349000D02*
X383090Y349091D01*
X369000Y136000D02*
X408000D01*
X361500D02*
X369000D01*
X369500Y136500D01*
Y148000D01*
Y103500D02*
X375000Y98000D01*
X362217Y103500D02*
X369500D01*
X395000Y98000D02*
X408500D01*
X409500Y99000D01*
Y134500D01*
X408000Y136000D02*
X409500Y134500D01*
X359216Y133716D02*
X361500Y136000D01*
X359216Y123000D02*
Y133716D01*
X427500Y133416D02*
Y171000D01*
X426000Y172500D02*
X427500Y171000D01*
X32500Y133417D02*
Y172000D01*
X33000Y172500D01*
X32500Y133417D02*
X33000Y133917D01*
X385000Y84000D02*
Y98000D01*
X65000Y84000D02*
Y98000D01*
X75000D02*
Y107500D01*
X70500Y112000D02*
X75000Y107500D01*
X96284Y127500D02*
X100784Y123000D01*
X75000Y127500D02*
X96284D01*
X70500Y123000D02*
X75000Y127500D01*
X70500Y118000D02*
Y123000D01*
X119000Y103500D02*
X133217D01*
X117000Y105500D02*
X119000Y103500D01*
X117000Y105500D02*
Y119000D01*
X113000Y123000D02*
X117000Y119000D01*
X92283Y98000D02*
X97783Y103500D01*
X85000Y98000D02*
X92283D01*
X200000Y62000D02*
X210000Y52000D01*
X200000Y62000D02*
Y76000D01*
X260000Y62000D02*
Y76000D01*
X210000Y52000D02*
Y89500D01*
X309500Y135000D02*
X315342Y129157D01*
Y123000D02*
Y129157D01*
Y123000D02*
X323783D01*
X310421Y135921D02*
Y147000D01*
X309500Y135000D02*
X310421Y135921D01*
X260500Y132500D02*
X263000Y135000D01*
X260500Y122500D02*
Y132500D01*
X144658Y130500D02*
X149579Y135421D01*
X144658Y123000D02*
Y130500D01*
X136217Y123000D02*
X144658D01*
X149579Y135421D02*
Y147000D01*
Y135421D02*
X150500Y134500D01*
X207500D02*
X209500Y132500D01*
Y122500D02*
Y132500D01*
X262000Y88500D02*
Y100000D01*
X250524D02*
X262000D01*
Y88500D02*
X262500Y88000D01*
X278476Y100000D02*
Y110000D01*
X264000D02*
X278476D01*
X260500Y113500D02*
X264000Y110000D01*
X250524Y100000D02*
Y110000D01*
X250500Y110024D02*
X250524Y110000D01*
X250500Y110024D02*
Y122500D01*
X181524Y110000D02*
X196000D01*
X199500Y113500D01*
Y122500D01*
X209476Y100000D02*
Y110000D01*
X209500Y110024D01*
X283343Y143000D02*
X283500Y142842D01*
X233500Y138000D02*
X238500Y143000D01*
X199079D02*
X221500D01*
X176657D02*
X199079D01*
X199500Y143421D01*
Y152500D01*
X176500Y142842D02*
X176657Y143000D01*
X233500Y106000D02*
Y138000D01*
X33000Y172500D02*
X47500D01*
Y192500D02*
X73000D01*
X76000Y189500D01*
Y178500D02*
Y189500D01*
Y178500D02*
X79000Y175500D01*
X94500D02*
Y185000D01*
Y165000D02*
Y175500D01*
X79000D02*
X94500D01*
X61500Y164783D02*
Y179000D01*
X58000Y182500D02*
X61500Y179000D01*
X47500Y182500D02*
X58000D01*
X56717Y160000D02*
X61500Y164783D01*
X42500Y160000D02*
X56717D01*
X108000Y200000D02*
Y207000D01*
X104500Y196500D02*
X108000Y200000D01*
X88500Y196500D02*
X104500D01*
X84500Y192500D02*
X88500Y196500D01*
X84500Y185000D02*
Y192500D01*
X94500Y185000D02*
X104500D01*
X73500Y164783D02*
X73716Y165000D01*
X84500D01*
X104500D02*
X120079D01*
X417500Y172500D02*
X426000D01*
X398500Y164784D02*
Y180500D01*
X400500Y182500D01*
X417500D01*
X403284Y160000D02*
X417500D01*
X398500Y164784D02*
X403284Y160000D01*
X365500Y175000D02*
Y185000D01*
Y165000D02*
Y175000D01*
X382000D01*
X384500Y177500D01*
Y187000D01*
X388000Y190500D01*
X407000D01*
X409000Y192500D01*
X417500D01*
X386283Y165000D02*
X386500Y164784D01*
X375500Y165000D02*
X386283D01*
X355500Y185000D02*
X365500D01*
X352000Y199000D02*
Y207000D01*
X375500Y185000D02*
Y192000D01*
X339921Y165000D02*
X355500D01*
X257842Y175842D02*
X262000Y180000D01*
X273517D01*
X238083D02*
X244000D01*
X248000Y184000D01*
Y198500D01*
X244500Y202000D02*
X248000Y198500D01*
X238000Y202000D02*
X244500D01*
X208842Y153157D02*
X209500Y152500D01*
X208842Y166000D02*
Y170158D01*
X199000Y180000D02*
X208842Y170158D01*
X184283Y180000D02*
X199000D01*
X212500D02*
X219717D01*
X208000Y184500D02*
X212500Y180000D01*
X208000Y184500D02*
Y199500D01*
X210500Y202000D01*
X218000D01*
X238000Y212000D02*
X255783D01*
X290910Y211693D02*
X291217Y212000D01*
X290910Y188000D02*
Y211693D01*
X330079Y165000D02*
Y170921D01*
X325157Y160079D02*
X330079Y165000D01*
X325157Y142000D02*
Y160079D01*
X204217Y212000D02*
X218000D01*
X168783D02*
X169091Y211693D01*
X164000Y175500D02*
X169091Y180591D01*
X134000Y175500D02*
X164000D01*
X130000Y171500D02*
X134000Y175500D01*
X130000Y165079D02*
Y171500D01*
X129921Y165000D02*
X130000Y165079D01*
X129921Y165000D02*
X134843Y160079D01*
Y142000D02*
Y160079D01*
X115157Y142000D02*
X120079Y146921D01*
Y165000D01*
Y180169D01*
X127909Y188000D01*
X339921Y146921D02*
X344843Y142000D01*
X339921Y146921D02*
Y165000D01*
Y180169D01*
X332090Y188000D02*
X339921Y180169D01*
X330000Y190091D02*
Y212000D01*
X272500Y329000D02*
Y349000D01*
Y329000D02*
X285000Y316500D01*
Y229000D02*
Y316500D01*
Y229000D02*
X288500Y225500D01*
X306500D01*
X310000Y222000D01*
Y212000D02*
Y222000D01*
X383090Y349091D02*
Y364000D01*
X296500D02*
X341910D01*
X294000Y361500D02*
X296500Y364000D01*
X294000Y349000D02*
Y361500D01*
X225217Y67216D02*
Y88000D01*
X210000Y52000D02*
X225217Y67216D01*
X234783D02*
Y88000D01*
Y67216D02*
X250000Y52000D01*
X316000Y103500D02*
X326783D01*
X312000Y99500D02*
X316000Y103500D01*
X270217Y88000D02*
X297783D01*
X181500D02*
X181524Y88024D01*
X162217Y88000D02*
X181500D01*
X189783D01*
X75000Y18500D02*
X157283D01*
X75000Y18500D02*
X75000Y18500D01*
X263000Y135000D02*
X309500D01*
X150500Y134500D02*
X207500D01*
X238500Y143000D02*
X283343D01*
X100784Y123000D02*
X113000D01*
X181524Y100000D02*
Y110000D01*
X169091Y180591D02*
Y188000D01*
X260500Y113500D02*
Y122500D01*
X262500Y88000D02*
X270217D01*
X209500Y110024D02*
Y122500D01*
X70500Y112000D02*
Y118000D01*
X290910Y181091D02*
Y188000D01*
X257842Y166000D02*
Y175842D01*
X330000Y190091D02*
X332090Y188000D01*
X208842Y153157D02*
Y166000D01*
X181524Y88024D02*
Y100000D01*
X169091Y188000D02*
Y211693D01*
D11*
X445000Y74279D02*
Y333000D01*
X439610Y68890D02*
X445000Y74279D01*
X410000Y333000D02*
X445000D01*
X280579Y68921D02*
X313000D01*
X315500Y349000D02*
X383000D01*
X54500Y363000D02*
X59500Y368000D01*
X186000D02*
X187500Y366500D01*
X251500Y50500D02*
X262158D01*
X208500D02*
X210000Y52000D01*
X197843Y50500D02*
X208500D01*
X346000Y68890D02*
X439610D01*
X15000Y74000D02*
X20110Y68890D01*
X15000Y330000D02*
X21000Y336000D01*
X96685Y278000D02*
X102185Y283500D01*
X160500D02*
X166000Y289000D01*
X294000Y335000D02*
Y349000D01*
Y335000D02*
X299000Y330000D01*
X357500D01*
X362500Y325000D01*
Y278815D02*
Y325000D01*
X114000Y68890D02*
X146953D01*
X147000Y68843D01*
X179500D01*
X313000Y68921D02*
X313032Y68890D01*
X280500Y68843D02*
X280579Y68921D01*
X15000Y74000D02*
Y330000D01*
X187500Y349000D02*
Y366500D01*
X21000Y336000D02*
X53000D01*
X54500Y337500D01*
X179500Y68843D02*
X179500Y68843D01*
X166000Y289000D02*
Y349000D01*
X102185Y283500D02*
X160500D01*
X410000Y333000D02*
Y347000D01*
X408000Y349000D02*
X410000Y347000D01*
X383000Y349000D02*
X408000D01*
X313032Y68890D02*
X346000D01*
X262158Y50500D02*
X280500Y68843D01*
X179500Y68843D02*
X197843Y50500D01*
X20110Y68890D02*
X114000D01*
X59500Y368000D02*
X186000D01*
X54500Y337500D02*
Y363000D01*
D12*
X363000Y231500D02*
Y278000D01*
Y278315D01*
X313000Y59079D02*
X333000Y39079D01*
X302717Y32000D02*
X316500D01*
X254500Y18500D02*
X267283D01*
X166000Y289000D02*
X166590Y288409D01*
X187500D01*
Y329591D02*
Y349000D01*
X80283Y207000D02*
X98000D01*
X73500Y200217D02*
X80283Y207000D01*
X61500Y200217D02*
X73500D01*
X386500Y207000D02*
Y230500D01*
Y200217D02*
Y207000D01*
X362000D02*
X386500D01*
Y200217D02*
X398500D01*
X385500Y231500D02*
X386500Y230500D01*
X268000Y269500D02*
X275500Y262000D01*
X249500Y269500D02*
X250000Y269000D01*
X210000Y229500D02*
X210000Y229500D01*
X96685Y278000D02*
X98000Y276685D01*
X140000Y212000D02*
Y234500D01*
X136000Y238500D02*
X140000Y234500D01*
X98000Y238500D02*
X136000D01*
X98000Y207000D02*
Y238500D01*
Y276685D01*
X320000Y212000D02*
Y227500D01*
X324000Y231500D01*
X363000D01*
X362500Y278815D02*
X363000Y278315D01*
Y231500D02*
X385500D01*
X362000Y207000D02*
X362283Y206716D01*
X210000Y36500D02*
Y52000D01*
X250000D02*
X251500Y50500D01*
X252500Y49500D01*
X205500Y32000D02*
X210000Y36500D01*
X192717Y32000D02*
X205500D01*
X143500D02*
X157283D01*
X137000Y25500D02*
X143500Y32000D01*
X316500D02*
X323000Y25500D01*
X105500Y37000D02*
X117000Y25500D01*
X93717Y37000D02*
X105500D01*
X343000Y25500D02*
X349000Y31500D01*
X364283D01*
X127000Y25500D02*
Y39000D01*
X147000Y59000D01*
X333000Y25500D02*
Y39079D01*
X210000Y23000D02*
Y36500D01*
X205500Y18500D02*
X210000Y23000D01*
X192717Y18500D02*
X205500D01*
X250000Y23000D02*
X254500Y18500D01*
X250000Y36500D02*
Y52000D01*
Y36500D02*
X254500Y32000D01*
X267283D01*
X250000Y23000D02*
Y36500D01*
D13*
X164500Y238000D02*
X164500Y238000D01*
D14*
X184500Y262000D02*
X192000Y269500D01*
X184500Y238000D02*
X193000Y229500D01*
X267000D02*
X275500Y238000D01*
X250000Y250000D02*
Y269000D01*
X249500Y269500D02*
X268000D01*
X210000Y229500D02*
Y250000D01*
X193000Y229500D02*
X210000D01*
X267000D01*
X328500Y250000D02*
X356500Y278000D01*
X295500Y250000D02*
X328500D01*
X295500Y238000D02*
Y250000D01*
Y262000D01*
X164500Y250000D02*
X164500Y250000D01*
Y238000D02*
Y250000D01*
Y262000D01*
X98000Y276685D02*
X124685Y250000D01*
X356500Y278000D02*
X363000D01*
X192000Y269500D02*
X249500D01*
X124685Y250000D02*
X164500D01*
D15*
X210000Y52000D02*
D03*
X230000D02*
D03*
X250000Y250000D02*
D03*
X230000D02*
D03*
X179500Y49158D02*
D03*
Y68843D02*
D03*
X280500Y68843D02*
D03*
Y49158D02*
D03*
D16*
X250000Y52000D02*
D03*
X210000Y250000D02*
D03*
D17*
X94500Y185000D02*
D03*
X84500D02*
D03*
X104500D02*
D03*
X365500D02*
D03*
X375500D02*
D03*
X355500D02*
D03*
X385000Y98000D02*
D03*
X375000D02*
D03*
X395000D02*
D03*
X94500Y165000D02*
D03*
X84500D02*
D03*
X104500D02*
D03*
X75000Y98000D02*
D03*
X85000D02*
D03*
X65000D02*
D03*
X365500Y165000D02*
D03*
X375500D02*
D03*
X355500D02*
D03*
D18*
X120079D02*
D03*
X330079D02*
D03*
X300579Y147000D02*
D03*
X149579D02*
D03*
X352000Y207000D02*
D03*
X98000D02*
D03*
D19*
X129921Y165000D02*
D03*
X339921D02*
D03*
X310421Y147000D02*
D03*
X159421D02*
D03*
X42500Y150000D02*
D03*
X417500Y160000D02*
D03*
X313000Y68921D02*
D03*
X147000Y59000D02*
D03*
X240500Y152500D02*
D03*
X250500D02*
D03*
X260500D02*
D03*
X270500D02*
D03*
Y122500D02*
D03*
X260500D02*
D03*
X250500D02*
D03*
X189500Y152500D02*
D03*
X199500D02*
D03*
X209500D02*
D03*
X219500D02*
D03*
Y122500D02*
D03*
X209500D02*
D03*
X199500D02*
D03*
X362000Y207000D02*
D03*
X108000D02*
D03*
X90500Y118000D02*
D03*
X80500D02*
D03*
X70500D02*
D03*
X60500D02*
D03*
Y148000D02*
D03*
X70500Y148000D02*
D03*
X80500D02*
D03*
X399500Y118000D02*
D03*
X389500D02*
D03*
X379500D02*
D03*
X369500D02*
D03*
Y148000D02*
D03*
X379500D02*
D03*
X389500D02*
D03*
X75000Y8500D02*
D03*
D20*
X189157Y166000D02*
D03*
X208842D02*
D03*
X238158D02*
D03*
X257842D02*
D03*
X344843Y142000D02*
D03*
X325157D02*
D03*
X134843D02*
D03*
X115157D02*
D03*
X164342Y123000D02*
D03*
X144658D02*
D03*
X295657D02*
D03*
X315342D02*
D03*
X181524Y110000D02*
D03*
X209476Y100000D02*
D03*
X250524Y110000D02*
D03*
X278476Y100000D02*
D03*
X176500Y123158D02*
D03*
Y142842D02*
D03*
X283500Y123158D02*
D03*
Y142842D02*
D03*
D21*
X332090Y188000D02*
D03*
X169091D02*
D03*
X187500Y329591D02*
D03*
X341910Y364000D02*
D03*
D22*
X290910Y188000D02*
D03*
X127909D02*
D03*
X383090Y364000D02*
D03*
D23*
X42500Y160000D02*
D03*
X417500Y150000D02*
D03*
X313000Y59079D02*
D03*
X147000Y68843D02*
D03*
X240500Y122500D02*
D03*
X189500D02*
D03*
X90500Y148000D02*
D03*
X399500Y148000D02*
D03*
X75000Y18500D02*
D03*
D24*
X238000Y202000D02*
D03*
Y212000D02*
D03*
Y192000D02*
D03*
X218000Y202000D02*
D03*
Y212000D02*
D03*
Y192000D02*
D03*
X47500Y182500D02*
D03*
Y172500D02*
D03*
Y192500D02*
D03*
X417500Y182500D02*
D03*
Y172500D02*
D03*
Y192500D02*
D03*
D25*
X209476Y110000D02*
D03*
X181524Y100000D02*
D03*
X278476Y110000D02*
D03*
X250524Y100000D02*
D03*
D26*
X330000Y212000D02*
D03*
X320000D02*
D03*
X310000D02*
D03*
X150000D02*
D03*
X140000D02*
D03*
X130000D02*
D03*
X184500Y238000D02*
D03*
X164500D02*
D03*
X295500D02*
D03*
X275500D02*
D03*
X184500Y262000D02*
D03*
X164500D02*
D03*
X295500D02*
D03*
X275500D02*
D03*
D27*
X97783Y103500D02*
D03*
X133217D02*
D03*
X362217D02*
D03*
X326783D02*
D03*
X323783Y123000D02*
D03*
X359216D02*
D03*
X136217D02*
D03*
X100784D02*
D03*
X238083Y180000D02*
D03*
X273517D02*
D03*
X219717D02*
D03*
X184283D02*
D03*
X333217Y88000D02*
D03*
X297783D02*
D03*
X162217D02*
D03*
X126783D02*
D03*
X225217D02*
D03*
X189783D02*
D03*
X270217D02*
D03*
X234783D02*
D03*
X168783Y212000D02*
D03*
X204217D02*
D03*
X255783D02*
D03*
X291217D02*
D03*
X323000Y25500D02*
D03*
X343000D02*
D03*
X333000D02*
D03*
X117000D02*
D03*
X137000D02*
D03*
X127000D02*
D03*
X93717Y37000D02*
D03*
X58284D02*
D03*
X192717Y32000D02*
D03*
X157283D02*
D03*
Y18500D02*
D03*
X192717D02*
D03*
X32500Y133417D02*
D03*
Y97983D02*
D03*
X73500Y200217D02*
D03*
Y164783D02*
D03*
X61500Y200217D02*
D03*
Y164783D02*
D03*
X386500Y164784D02*
D03*
Y200217D02*
D03*
X398500Y164784D02*
D03*
Y200217D02*
D03*
X427500Y97983D02*
D03*
Y133416D02*
D03*
X399717Y31500D02*
D03*
X364283D02*
D03*
X302717Y32000D02*
D03*
X267283D02*
D03*
X302717Y18500D02*
D03*
X267283D02*
D03*
D28*
X346000Y68890D02*
D03*
X114000Y55110D02*
D03*
D29*
X346000D02*
D03*
X114000Y68890D02*
D03*
D30*
X363315Y278000D02*
D03*
X57315D02*
D03*
D31*
X402685D02*
D03*
X96685D02*
D03*
D32*
X187500Y288409D02*
D03*
D33*
X294000Y349000D02*
D03*
X272500D02*
D03*
X315500D02*
D03*
X166000D02*
D03*
X144500D02*
D03*
X187500D02*
D03*
D34*
X25000Y358000D02*
D03*
Y22000D02*
D03*
X435000D02*
D03*
Y358000D02*
D03*
M02*
