M48
INCH
T01C0.0400
T02C0.0300
T03C0.1500
T04C0.0650
T05C0.0600
T06C0.0930
T07C0.0700
T08C0.0450
T09C0.1000
T10C0.2000
T11C0.0150
%
T01
X-023192Y-011200
X-021192Y-011200
X-023192Y-013750
X-021192Y-013750
X-013688Y-011200
X-011688Y-011200
X-013688Y-013750
X-011688Y-013750
X-003681Y+008808
X-008681Y+008808
X-016396Y+011621
X-021396Y+011621
X+003483Y+008808
X-001516Y+008808
X-016396Y+010041
X-021396Y+010041
X-021125Y+023240
X-020125Y+023240
X-019125Y+023240
X+003412Y+014065
X+003412Y+010065
X-000302Y+020170
X-004302Y+020170
X+003412Y+024260
X+003412Y+015260
X-022188Y-027033
X-021188Y-027033
X-020188Y-027033
X-016938Y-023260
X-016938Y-028260
X-015688Y-024010
X-015688Y-028010
X-014188Y-024010
X-014188Y-028010
X-012688Y-024010
X-012688Y-028010
X-015938Y-029260
X-010938Y-029260
X-011188Y-024010
X-011188Y-028010
X-008219Y-023510
X-008219Y-029416
X-003219Y-023510
X-003219Y-029416
X-005719Y-024760
X-005719Y-029760
X-000469Y-029010
X-000469Y-024010
X-015688Y-020760
X-009782Y-020760
X-007219Y-021510
X-003219Y-021510
X-003219Y-020010
X-007219Y-020010
X-013500Y-017000
X-007594Y-017000
X-016125Y+023240
X-015125Y+023240
X-014125Y+023240
X-021125Y+020740
X-020125Y+020740
X-019125Y+020740
X-017625Y+024240
X-017625Y+019240
X-022375Y+024240
X-022375Y+019240
X-023375Y+017990
X-018375Y+017990
X-012875Y+023240
X-012875Y+018240
X-016125Y+021875
X-016125Y+016875
X-014125Y+015490
X-014125Y+019490
X-006625Y+016990
X-005625Y+016990
X-004625Y+016990
X-006625Y+013990
X-005625Y+013990
X-004625Y+013990
X-009625Y+011990
X-004625Y+011990
X-007375Y+006070
X-001469Y+006070
X-010125Y+018240
X-010125Y+016271
X-011302Y+020170
X-006302Y+020170
X-053192Y-011200
X-051192Y-011200
X-053192Y-013750
X-051192Y-013750
X-043688Y-011200
X-041688Y-011200
X-043688Y-013750
X-041688Y-013750
X-036681Y+008808
X-041681Y+008808
X-046396Y+011621
X-051396Y+011621
X-027766Y+008808
X-032766Y+008808
X-046396Y+010041
X-051396Y+010041
X-051125Y+023240
X-050125Y+023240
X-049125Y+023240
X-027445Y+014065
X-027445Y+010065
X-030302Y+020170
X-034302Y+020170
X-027445Y+024260
X-027445Y+015260
X-046125Y+023240
X-045125Y+023240
X-044125Y+023240
X-051125Y+020740
X-050125Y+020740
X-049125Y+020740
X-047625Y+024240
X-047625Y+019240
X-052375Y+024240
X-052375Y+019240
X-053375Y+017990
X-048375Y+017990
X-042875Y+023240
X-042875Y+018240
X-046125Y+021875
X-046125Y+016875
X-044125Y+015490
X-044125Y+019490
X-036625Y+016990
X-035625Y+016990
X-034625Y+016990
X-036625Y+013990
X-035625Y+013990
X-034625Y+013990
X-039625Y+011990
X-034625Y+011990
X-037375Y+006070
X-031469Y+006070
X-040125Y+018240
X-040125Y+016271
X-041302Y+020170
X-036302Y+020170
X-043155Y-028628
X-039155Y-028628
X-042019Y-027408
X-041019Y-027408
X-040019Y-027408
X-040028Y-024702
X-041028Y-024702
X-042028Y-024702
X-040314Y-022750
X-044314Y-022750
X-045250Y+012000
X-045250Y+016000
X-015250Y+012000
X-015250Y+016000
X-028945Y+024260
X-028945Y+019260
X+001947Y+024260
X+001947Y+019260
X-024250Y-017250
X-019250Y-017250
X-024250Y-015750
X-019250Y-015750
X-027266Y+002808
X-032266Y+002808
X-033516Y+002808
X-038516Y+002808
X-009016Y+003308
X-004016Y+003308
X-002766Y+003308
X+002233Y+003308
X-053192Y-008700
X-048192Y-008700
X-046942Y-008700
X-041942Y-008700
X-023192Y-008700
X-018192Y-008700
X-016942Y-008700
X-011942Y-008700
T02
X-018608Y+016170
X-019608Y+016170
X-020608Y+016170
X-021608Y+016170
X-021608Y+013170
X-020608Y+013170
X-019608Y+013170
X-018608Y+013170
X-000675Y+016490
X+000125Y+016490
X+000925Y+016490
X-000675Y+013740
X+000125Y+013740
X+000925Y+013740
X-003375Y+010740
X-000875Y+010740
X-048608Y+016170
X-049608Y+016170
X-050608Y+016170
X-051608Y+016170
X-051608Y+013170
X-050608Y+013170
X-049608Y+013170
X-048608Y+013170
X-030675Y+016490
X-029875Y+016490
X-029075Y+016490
X-030675Y+013740
X-029875Y+013740
X-029075Y+013740
X-033375Y+010740
X-030875Y+010740
X-051790Y-020939
X-050805Y-020939
X-047321Y-020939
X-048305Y-020939
X-030695Y+021710
X-030695Y+022510
X-030695Y+023310
X+000162Y+021710
X+000162Y+022510
X+000162Y+023310
T03
X-020125Y+029740
X-015125Y+029740
X-010125Y+029740
X-005125Y+029740
X-000125Y+029740
X+003375Y-030260
X-050125Y+029740
X-045125Y+029740
X-040125Y+029740
X-035125Y+029740
X-030125Y+029740
X-053625Y-030260
X-025125Y-030260
X-025125Y+029740
T04
X-007275Y+021740
X-005125Y+021740
X-002975Y+021740
X-037275Y+021740
X-035125Y+021740
X-032975Y+021740
T05
X-018375Y-012510
X-016375Y-012510
X-000385Y-020490
X+001614Y-020490
X+003614Y-020490
X-048375Y-012510
X-046375Y-012510
X-028385Y-016490
X-026385Y-016490
X-032745Y-025571
X-030745Y-025571
X-028745Y-025571
X-053469Y-026451
X-051469Y-026451
X-049469Y-026451
T06
X-019188Y-023783
X-023238Y-023783
X-049181Y+001096
X-045244Y+001096
X-051641Y+001096
X-042783Y+001096
X-049427Y+004931
X-049427Y-002739
X-043275Y+001096
X-050165Y+001096
X-019202Y+001096
X-015265Y+001096
X-021663Y+001096
X-012805Y+001096
X-019449Y+004931
X-019449Y-002739
X-013297Y+001096
X-020187Y+001096
X-031087Y-007153
X-035024Y-007153
X-028626Y-007153
X-037485Y-007153
X-030841Y-010989
X-030841Y-003318
X-036993Y-007153
X-030103Y-007153
X-001087Y-007153
X-005024Y-007153
X+001373Y-007153
X-007485Y-007153
X-000841Y-010989
X-000841Y-003318
X-006993Y-007153
X-000103Y-007153
T07
X+001750Y-026500
X-050165Y+001096
X-047212Y+004049
X-047212Y-001856
X-020187Y+001096
X-017234Y+004049
X-017234Y-001856
X-030103Y-007153
X-033056Y-010106
X-033056Y-004200
X-000103Y-007153
X-003056Y-010106
X-003056Y-004200
T08
X-038484Y-018928
X-035531Y-018928
X-044921Y-018928
X-041968Y-018928
X-033140Y-022669
X-031640Y-022669
X-030140Y-022669
X-028640Y-022669
T09
X-036140Y-026053
X-046140Y-026053
T10
X+003412Y+020260
X-027445Y+020260
X-018945Y-018989
X-023195Y-018989
X+001614Y-023990
X-017375Y-015760
X-047375Y-016010
X-027375Y-019760
X-030750Y-029260
X-051055Y-023439
T11
X-047212Y+001096
X-017234Y+001096
X-033056Y-007153
X-003056Y-007153
M30
